<?xml version="1.0" encoding="utf-8"?>
<!-- Generator: Adobe Illustrator 24.0.2, SVG Export Plug-In . SVG Version: 6.00 Build 0)  -->
<svg version="1.1"
	 id="svg4475" inkscape:version="0.48.4 r9939" sodipodi:docname="25 alien space planet human life mysterious secret (4).svg" xmlns:cc="http://creativecommons.org/ns#" xmlns:dc="http://purl.org/dc/elements/1.1/" xmlns:inkscape="http://www.inkscape.org/namespaces/inkscape" xmlns:rdf="http://www.w3.org/1999/02/22-rdf-syntax-ns#" xmlns:sodipodi="http://sodipodi.sourceforge.net/DTD/sodipodi-0.dtd" xmlns:svg="http://www.w3.org/2000/svg"
	 xmlns="http://www.w3.org/2000/svg" xmlns:xlink="http://www.w3.org/1999/xlink" x="0px" y="0px" viewBox="0 0 51.1 64"
	 style="enable-background:new 0 0 51.1 64;" xml:space="preserve">
<sodipodi:namedview  bordercolor="#666666" borderopacity="1.0" id="base" inkscape:bbox-nodes="true" inkscape:bbox-paths="true" inkscape:current-layer="g11374" inkscape:cx="7.2163638" inkscape:cy="16.763561" inkscape:document-units="px" inkscape:pageopacity="0.0" inkscape:pageshadow="2" inkscape:snap-bbox="true" inkscape:snap-bbox-edge-midpoints="true" inkscape:snap-bbox-midpoints="true" inkscape:snap-global="false" inkscape:window-height="705" inkscape:window-maximized="1" inkscape:window-width="1366" inkscape:window-x="-8" inkscape:window-y="-8" inkscape:zoom="11.2" pagecolor="#ffffff" showgrid="true">
	<inkscape:grid  empspacing="5" enabled="true" id="grid4527" snapvisiblegridlinesonly="true" type="xygrid" visible="true">
		</inkscape:grid>
</sodipodi:namedview>
<g id="layer1" transform="translate(0,-1020.3622)" inkscape:groupmode="layer" inkscape:label="Layer 1">
	<g id="g10414" transform="translate(309.5948,-461.25192)">
		<g id="g15415" transform="translate(66.405195,515.25192)">
			<g id="g15417" transform="translate(-150,-49.999983)">
				<g id="g14600" transform="translate(-49.999995,-130.00002)">
					<g id="g11374" transform="translate(2.954685,-637.5163)">
						<g id="g6161">
							
								<path id="path11336" inkscape:connector-curvature="0" sodipodi:nodetypes="sccccscccsscsccscccssscscssssccssssscccsssccccccccccccccccccsscccccccccccccsscscccsssccscsccccssccsccsccssccssssssssssssssssssssccccccccccccccccc" d="
								M-153.4,1783.9c-3.3,0-6.2,0.1-8.3,0.4c-1.1,0.1-2,0.3-2.6,0.5c-0.3,0.1-0.6,0.2-0.9,0.3c-0.1,0.1-0.3,0.2-0.4,0.4
								c-0.1,0.2-0.3,0.4-0.3,0.8c0,0.3,0.2,0.6,0.3,0.8c0.1,0.2,0.3,0.3,0.4,0.4c0.3,0.2,0.5,0.2,0.9,0.3c0.7,0.2,1.6,0.3,2.6,0.4
								c2.1,0.2,5,0.4,8.3,0.4c3.3,0,6.2-0.2,8.4-0.4c1.1-0.1,2-0.3,2.6-0.4c0.3-0.1,0.6-0.2,0.9-0.3c0.1-0.1,0.3-0.2,0.4-0.4
								c0.1-0.2,0.3-0.5,0.3-0.8c0-0.3-0.2-0.6-0.3-0.8c-0.1-0.2-0.3-0.3-0.4-0.4c-0.3-0.2-0.5-0.2-0.9-0.3
								c-0.7-0.2-1.6-0.4-2.6-0.5C-147.2,1784-150.1,1783.9-153.4,1783.9z M-153.4,1785.9c2.9,0,5.4,0.2,7.4,0.4
								c-2,0.2-4.5,0.3-7.4,0.3c-2.9,0-5.4-0.1-7.4-0.3C-158.8,1786.1-156.3,1785.9-153.4,1785.9z M-153.4,1790.7
								c-14.1,0-25.6,11.2-25.6,25.1c0,7.3,6.4,15.1,12.6,21.2c6.2,6.2,12.4,10.7,12.4,10.7c0.3,0.3,0.8,0.3,1.2,0
								c0,0,6.2-4.5,12.4-10.7c6.2-6.2,12.6-14,12.6-21.2C-127.8,1801.9-139.3,1790.7-153.4,1790.7z M-153.4,1792.7
								c13,0,23.6,10.3,23.6,23.1c0,6-5.9,13.7-11.9,19.8c-5.8,5.8-11,9.6-11.6,10c-0.5-0.4-5.8-4.2-11.6-10
								c-6.1-6.1-12-13.8-12-19.8C-177,1803-166.4,1792.7-153.4,1792.7z M-163.6,1803.5c-2.1,0-4.3,0.8-5.9,2.4
								c-3.2,3.2-3.2,8.3,0,11.4c0.9,0.9,2.3,1.5,3.8,2c1.5,0.5,3.2,0.9,4.7,1.1c1.6,0.3,3,0.4,4.1,0.6c0.6,0.1,1.2,0.1,1.8,0.2
								c0.6,0,1.1-0.5,1.1-1.1c0,0-0.1-0.7-0.2-1.6c0,0,0-0.1,0-0.1c-0.1-0.9-0.2-2.1-0.4-3.4c0-0.2-0.1-0.5-0.1-0.7
								c0,0,0-0.1,0-0.1c-0.1-0.7-0.3-1.5-0.5-2.2c-0.1-0.4-0.2-0.7-0.3-1.1c-0.1-0.4-0.2-0.8-0.3-1.2c-0.3-0.8-0.6-1.6-0.9-2.3
								c-0.1-0.1-0.1-0.2-0.2-0.3c-0.3-0.4-0.5-0.8-0.8-1.1C-159.4,1804.3-161.5,1803.5-163.6,1803.5z M-142.2,1803.5
								c-2.1,0-4.2,0.8-5.8,2.4c-0.3,0.3-0.7,0.7-0.9,1.1c-0.1,0.1-0.1,0.2-0.2,0.3c-0.1,0.2-0.3,0.4-0.4,0.7
								c-0.1,0.1-0.1,0.3-0.2,0.4c0,0,0,0,0,0.1c-1,2.4-1.6,5.5-1.9,8c-0.3,2-0.4,3.6-0.4,3.6c-0.2,0.7,0.2,1.3,1.1,1.1
								c0,0,2.8-0.2,5.9-0.8c1.6-0.3,3.3-0.6,4.8-1.1c1.5-0.5,2.8-1.1,3.7-2c3.2-3.2,3.2-8.3,0-11.4
								C-138,1804.3-140.1,1803.5-142.2,1803.5z M-163.6,1805.5c1.4,0,2.7,0.5,3.9,1.4c-3.9,0.6-7,3.9-7,8c0,0.7,0.1,1.3,0.3,1.9
								c-0.7-0.3-1.3-0.6-1.6-0.9c-2.5-2.4-2.5-6.1,0-8.6C-166.8,1806.1-165.2,1805.5-163.6,1805.5z M-142.2,1805.5
								c1.6,0,3.2,0.6,4.4,1.8c2.5,2.4,2.5,6.1,0,8.6c-0.3,0.3-1,0.6-1.7,0.9c0.2-0.6,0.4-1.3,0.4-1.9c0-4.1-3.1-7.3-7.1-8
								C-145,1806-143.6,1805.5-142.2,1805.5z M-158.4,1808.6C-158.4,1808.6-158.4,1808.6-158.4,1808.6c0.1,0.1,0.2,0.3,0.2,0.4
								c0.3,0.6,0.5,1.4,0.7,2.2c-0.8-0.6-1.7-0.9-2.7-0.9c-2.2,0-4.2,1.7-4.2,4.1c0,1.6,1,3.1,2.4,3.8c-0.7-0.2-1.3-0.3-1.9-0.5
								c-0.5-0.8-0.9-1.8-0.9-2.8C-164.7,1811.5-161.9,1808.7-158.4,1808.6z M-147.5,1808.7c3.5,0,6.4,2.8,6.4,6.2
								c0,1-0.4,1.9-0.9,2.8c-0.6,0.2-1.2,0.3-1.9,0.4c1.4-0.7,2.4-2.1,2.4-3.7c0-2.3-2-4.1-4.2-4.1c-1,0-1.9,0.3-2.7,0.9
								C-148.1,1810.3-147.8,1809.4-147.5,1808.7z M-160.1,1812.3c1.3,0,2.3,0.9,2.3,2.1c0,1-1,2.1-2.3,2.1c-1.1,0-2.2-1.1-2.2-2.1
								C-162.3,1813.2-161.3,1812.3-160.1,1812.3z M-145.7,1812.3c1.1,0,2.2,0.9,2.2,2.1c0,1-1.1,2.1-2.2,2.1
								c-1.3,0-2.3-1.1-2.3-2.1C-148,1813.2-147,1812.3-145.7,1812.3z M-160.1,1813.4c-0.5,0-0.9,0.4-0.9,1c0,0.4,0.5,0.9,0.9,0.9
								c0.6,0,1-0.5,1-0.9C-159.1,1813.8-159.5,1813.4-160.1,1813.4z M-145.7,1813.4c-0.6,0-1.1,0.4-1.1,1c0,0.4,0.5,0.9,1.1,0.9
								c0.5,0,0.9-0.5,0.9-0.9C-144.8,1813.8-145.3,1813.4-145.7,1813.4z M-156.3,1816.3c0,0.4,0.1,1.1,0.1,1.1
								c0.1,0.5,0.1,1.1,0.1,1.6c-0.5,0-1.3-0.1-2.3-0.2c-0.5,0-1.1-0.2-1.6-0.3C-158.4,1818.5-157,1817.5-156.3,1816.3z
								 M-149.5,1816.4c0.7,1.2,2,2,3.5,2.1c-0.9,0.2-1.8,0.3-2.6,0.4c-0.4,0.1-0.8,0.1-1.1,0.1c0.1-0.6,0.1-1.1,0.1-1.6
								C-149.6,1817.1-149.6,1816.7-149.5,1816.4z M-157.5,1830.1v2h8.2v-2H-157.5z"/>
						</g>
					</g>
				</g>
			</g>
		</g>
	</g>
</g>
</svg>
