<?xml version="1.0" encoding="utf-8"?>
<!-- Generator: Adobe Illustrator 24.0.2, SVG Export Plug-In . SVG Version: 6.00 Build 0)  -->
<svg version="1.1"
	 id="svg4475" inkscape:version="0.48.4 r9939" sodipodi:docname="25 alien space planet human life mysterious secret (2).svg" xmlns:cc="http://creativecommons.org/ns#" xmlns:dc="http://purl.org/dc/elements/1.1/" xmlns:inkscape="http://www.inkscape.org/namespaces/inkscape" xmlns:rdf="http://www.w3.org/1999/02/22-rdf-syntax-ns#" xmlns:sodipodi="http://sodipodi.sourceforge.net/DTD/sodipodi-0.dtd" xmlns:svg="http://www.w3.org/2000/svg"
	 xmlns="http://www.w3.org/2000/svg" xmlns:xlink="http://www.w3.org/1999/xlink" x="0px" y="0px" viewBox="0 0 56.1 64"
	 style="enable-background:new 0 0 56.1 64;" xml:space="preserve">
<sodipodi:namedview  bordercolor="#666666" borderopacity="1.0" id="base" inkscape:bbox-nodes="true" inkscape:bbox-paths="true" inkscape:current-layer="g14600" inkscape:cx="5.3528482" inkscape:cy="7.1610049" inkscape:document-units="px" inkscape:pageopacity="0.0" inkscape:pageshadow="2" inkscape:snap-bbox="true" inkscape:snap-bbox-edge-midpoints="true" inkscape:snap-bbox-midpoints="true" inkscape:snap-global="true" inkscape:window-height="705" inkscape:window-maximized="1" inkscape:window-width="1366" inkscape:window-x="-8" inkscape:window-y="-8" inkscape:zoom="7.9195959" pagecolor="#ffffff" showgrid="true">
	<inkscape:grid  empspacing="5" enabled="true" id="grid4527" snapvisiblegridlinesonly="true" type="xygrid" visible="true">
		</inkscape:grid>
</sodipodi:namedview>
<g id="layer1" transform="translate(0,-1020.3622)" inkscape:groupmode="layer" inkscape:label="Layer 1">
	<g id="g10414" transform="translate(309.5948,-461.25192)">
		<g id="g15415" transform="translate(66.405195,515.25192)">
			<g id="g15417" transform="translate(-150,-49.999983)">
				<g id="g14600" transform="translate(-49.999995,-130.00002)">
					<path id="path12690" d="M-147.9,1146.4c-15.5,0-28,12.6-28,28c0,8.1,7,16.8,13.8,23.7c6.8,6.9,13.5,12,13.5,12
						c0.4,0.3,1,0.3,1.4,0c0,0,6.7-5.1,13.5-12c6.8-6.9,13.8-15.7,13.8-23.7C-119.9,1158.9-132.4,1146.4-147.9,1146.4z
						 M-147.9,1148.6c14.3,0,25.8,11.5,25.8,25.8c0,6.8-6.5,15.4-13.1,22.2c-6.3,6.4-12.1,10.6-12.7,11.1
						c-0.6-0.5-6.4-4.7-12.7-11.1c-6.7-6.8-13.1-15.5-13.1-22.2C-173.7,1160.1-162.1,1148.6-147.9,1148.6z M-147.9,1154.5
						c-2.6,0-4.9,1.4-6.5,3.5c-1.6,2.1-2.5,4.9-2.5,8c0,3.4,2.1,7.7,4.1,11.5c2,3.7,4,6.7,4,6.7c0.4,0.5,1,0.6,1.5,0.3
						c0.1-0.1,0.2-0.2,0.3-0.3c0,0,2-3,4-6.7c2-3.7,4.1-8.1,4.1-11.5c0-3.1-0.9-5.9-2.5-8C-143,1155.9-145.3,1154.5-147.9,1154.5z
						 M-147.9,1156.7c1.8,0,3.5,0.9,4.8,2.6c1.3,1.7,2.1,4,2.1,6.7c0,2.4-1.9,6.8-3.8,10.4c-1.5,2.8-2.4,4.1-3,5
						c-0.6-0.9-1.5-2.2-3-5c-2-3.6-3.8-8.1-3.8-10.4c0-2.6,0.8-5,2.1-6.7C-151.4,1157.6-149.7,1156.7-147.9,1156.7z M-152.3,1190.4
						v2.2h8.8v-2.2H-152.3z"/>
				</g>
			</g>
		</g>
	</g>
</g>
</svg>
