<?xml version="1.0" encoding="utf-8"?>
<!-- Generator: Adobe Illustrator 24.0.2, SVG Export Plug-In . SVG Version: 6.00 Build 0)  -->
<svg version="1.1"
	 id="svg4475" inkscape:version="0.48.4 r9939" sodipodi:docname="25 alien space planet human life mysterious secret (3).svg" xmlns:cc="http://creativecommons.org/ns#" xmlns:dc="http://purl.org/dc/elements/1.1/" xmlns:inkscape="http://www.inkscape.org/namespaces/inkscape" xmlns:rdf="http://www.w3.org/1999/02/22-rdf-syntax-ns#" xmlns:sodipodi="http://sodipodi.sourceforge.net/DTD/sodipodi-0.dtd" xmlns:svg="http://www.w3.org/2000/svg"
	 xmlns="http://www.w3.org/2000/svg" xmlns:xlink="http://www.w3.org/1999/xlink" x="0px" y="0px" viewBox="0 0 48.4 64"
	 style="enable-background:new 0 0 48.4 64;" xml:space="preserve">
<sodipodi:namedview  bordercolor="#666666" borderopacity="1.0" id="base" inkscape:bbox-nodes="true" inkscape:bbox-paths="true" inkscape:current-layer="g14600" inkscape:cx="2.3734936" inkscape:cy="17.434345" inkscape:document-units="px" inkscape:pageopacity="0.0" inkscape:pageshadow="2" inkscape:snap-bbox="true" inkscape:snap-bbox-edge-midpoints="true" inkscape:snap-bbox-midpoints="true" inkscape:snap-global="true" inkscape:window-height="705" inkscape:window-maximized="1" inkscape:window-width="1366" inkscape:window-x="-8" inkscape:window-y="-8" inkscape:zoom="11.2" pagecolor="#ffffff" showgrid="true">
	<inkscape:grid  empspacing="5" enabled="true" id="grid4527" snapvisiblegridlinesonly="true" type="xygrid" visible="true">
		</inkscape:grid>
</sodipodi:namedview>
<g id="layer1" transform="translate(0,-1020.3622)" inkscape:groupmode="layer" inkscape:label="Layer 1">
	<g id="g10414" transform="translate(309.5948,-461.25192)">
		<g id="g15415" transform="translate(66.405195,515.25192)">
			<g id="g15417" transform="translate(-150,-49.999983)">
				<g id="g14600" transform="translate(-49.999995,-130.00002)">
					<path id="path12698" d="M-164.4,1146.4c-0.5,0.1-0.9,0.2-1.3,0.4c-1.7,1-2.3,3.2-1.3,4.9c0.8,1.4,2.4,2,3.9,1.7l2.3,3.9
						c-8.8,3.6-15.1,12.1-15.1,22.2c0,7,6,14.4,11.9,20.4s11.6,10.3,11.6,10.3c0.4,0.3,0.9,0.3,1.3,0c0,0,5.8-4.3,11.6-10.3
						s11.9-13.4,11.9-20.4c0-10.1-6.2-18.6-15.1-22.2l2.3-3.9c1.5,0.3,3.1-0.3,3.9-1.7c1-1.7,0.4-3.9-1.3-4.9
						c-1.7-1-3.9-0.4-4.9,1.3c-0.8,1.4-0.6,3.1,0.5,4.3l-2.4,4.3c-2.3-0.7-4.7-1.1-7.2-1.1c-2.5,0-4.9,0.4-7.1,1.1l-2.5-4.3
						c1.1-1.1,1.3-2.9,0.5-4.3C-161.5,1146.9-163,1146.2-164.4,1146.4z M-164.1,1148.4c0.6-0.1,1.2,0.2,1.5,0.8
						c0.4,0.8,0.2,1.8-0.6,2.2c-0.8,0.4-1.8,0.1-2.2-0.6c-0.4-0.8-0.1-1.7,0.6-2.1C-164.5,1148.5-164.3,1148.4-164.1,1148.4z
						 M-139.3,1148.4c0.2,0,0.4,0.1,0.6,0.2c0.8,0.4,1.1,1.4,0.6,2.1c-0.4,0.8-1.4,1.1-2.2,0.6c-0.8-0.4-0.9-1.4-0.5-2.2
						C-140.5,1148.6-139.9,1148.3-139.3,1148.4z M-151.7,1157.5c12.2,0,22.1,9.8,22.1,22c0,5.7-5.5,13.2-11.3,19
						c-5.4,5.5-10.3,9.1-10.9,9.5c-0.6-0.4-5.5-4-10.9-9.5c-5.7-5.8-11.3-13.3-11.3-19C-173.8,1167.3-163.9,1157.5-151.7,1157.5z
						 M-151.7,1162.5c-2.2,0-4.2,1.1-5.6,2.9c-1.4,1.8-2.3,4.2-2.3,6.9c0,1,0.2,2.1,0.6,3.3c0,0.1,0.1,0.2,0.1,0.3
						c0.7,2.1,1.7,4.2,2.8,6.2c0,0.1,0.1,0.1,0.1,0.2c1.7,3.2,3.4,5.7,3.4,5.7c0.3,0.4,0.9,0.6,1.4,0.2c0.1-0.1,0.2-0.1,0.2-0.2
						c0,0,1.7-2.5,3.4-5.6c0.1-0.1,0.1-0.2,0.2-0.3c1.1-2,2.2-4.2,2.9-6.4c0,0,0-0.1,0.1-0.1c0.2-0.6,0.3-1.3,0.4-1.9c0,0,0,0,0-0.1
						c0.1-0.4,0.1-0.8,0.1-1.3c0-2.7-0.9-5.1-2.3-6.9C-147.5,1163.6-149.4,1162.5-151.7,1162.5z M-151.7,1164.5c1.5,0,3,0.8,4.1,2.2
						c0.6,0.8,1.1,1.9,1.4,3c-1.5-1.4-3.4-2.2-5.5-2.3c-2.1,0-4,0.9-5.5,2.3c0.3-1.1,0.8-2.2,1.4-3
						C-154.7,1165.3-153.2,1164.5-151.7,1164.5z M-151.7,1169.4c2.5,0,4.9,1.8,5.7,4.1c-0.2,1-0.6,2.2-1.1,3.4
						c-0.7-1.8-2.5-3.1-4.6-3.1c-2.1,0-3.9,1.3-4.6,3.1c-0.5-1.2-0.9-2.4-1.1-3.4C-156.6,1171.3-154.1,1169.4-151.7,1169.4z
						 M-151.7,1175.9c1.6,0,2.8,1.2,2.8,2.8c0,1.3-0.9,2.4-2.1,2.8c-0.2,0-0.4,0.1-0.7,0.1c-0.2,0-0.4,0-0.6,0
						c-1.3-0.3-2.3-1.4-2.3-2.8C-154.5,1177.1-153.3,1175.9-151.7,1175.9z M-151.7,1177.7c-0.5,0-1,0.5-1,1c0,0.5,0.5,1,1,1
						s1-0.5,1-1C-150.7,1178.2-151.1,1177.7-151.7,1177.7z M-152.9,1183.4c0.1,0,0.1,0.1,0.2,0.1c0.3,0.1,0.7,0.1,1.1,0.1
						s0.7,0,1.1-0.1c0.1,0,0.1-0.1,0.2-0.1c-0.5,0.9-0.9,1.6-1.3,2.1C-152,1185-152.4,1184.3-152.9,1183.4z M-155.4,1193.2v2h7.5v-2
						H-155.4z"/>
				</g>
			</g>
		</g>
	</g>
</g>
</svg>
