<?xml version="1.0" encoding="utf-8"?>
<!-- Generator: Adobe Illustrator 24.0.2, SVG Export Plug-In . SVG Version: 6.00 Build 0)  -->
<svg version="1.1"
	 id="svg4475" inkscape:version="0.48.4 r9939" sodipodi:docname="25 alien space planet human life mysterious secret.svg" xmlns:cc="http://creativecommons.org/ns#" xmlns:dc="http://purl.org/dc/elements/1.1/" xmlns:inkscape="http://www.inkscape.org/namespaces/inkscape" xmlns:rdf="http://www.w3.org/1999/02/22-rdf-syntax-ns#" xmlns:sodipodi="http://sodipodi.sourceforge.net/DTD/sodipodi-0.dtd" xmlns:svg="http://www.w3.org/2000/svg"
	 xmlns="http://www.w3.org/2000/svg" xmlns:xlink="http://www.w3.org/1999/xlink" x="0px" y="0px" viewBox="0 0 56 64"
	 style="enable-background:new 0 0 56 64;" xml:space="preserve">
<sodipodi:namedview  bordercolor="#666666" borderopacity="1.0" id="base" inkscape:bbox-nodes="true" inkscape:bbox-paths="true" inkscape:current-layer="g14600" inkscape:cx="11.727506" inkscape:cy="6.9795314" inkscape:document-units="px" inkscape:pageopacity="0.0" inkscape:pageshadow="2" inkscape:snap-bbox="true" inkscape:snap-bbox-edge-midpoints="true" inkscape:snap-bbox-midpoints="true" inkscape:snap-global="true" inkscape:window-height="705" inkscape:window-maximized="1" inkscape:window-width="1366" inkscape:window-x="-8" inkscape:window-y="-8" inkscape:zoom="15.839192" pagecolor="#ffffff" showgrid="true">
	<inkscape:grid  empspacing="5" enabled="true" id="grid4527" snapvisiblegridlinesonly="true" type="xygrid" visible="true">
		</inkscape:grid>
</sodipodi:namedview>
<g id="layer1" transform="translate(0,-1020.3622)" inkscape:groupmode="layer" inkscape:label="Layer 1">
	<g id="g10414" transform="translate(309.5948,-461.25192)">
		<g id="g15415" transform="translate(66.405195,515.25192)">
			<g id="g15417" transform="translate(-150,-49.999983)">
				<g id="g14600" transform="translate(-49.999995,-130.00002)">
					<path id="path12682" d="M-148,1146.4c-15.5,0-28,12.6-28,28c0,8.1,7,16.8,13.8,23.7c6.8,6.9,13.5,12,13.5,12
						c0.4,0.3,1,0.3,1.4,0c0,0,6.7-5.1,13.5-12c6.8-6.9,13.8-15.7,13.8-23.7C-120,1158.9-132.5,1146.4-148,1146.4z M-148,1148.6
						c14.3,0,25.8,11.5,25.8,25.8c0,6.8-6.5,15.4-13.1,22.2c-6.3,6.4-12.1,10.6-12.7,11.1c-0.6-0.5-6.4-4.7-12.7-11.1
						c-6.7-6.8-13.1-15.5-13.1-22.2C-173.8,1160.1-162.3,1148.6-148,1148.6z M-159.3,1160.6c-2.3,0-4.6,0.8-6.4,2.6
						c-3.5,3.5-3.5,9.4,0,12.9c1,1,2.5,1.7,4.1,2.2s3.5,0.9,5.2,1.2c3.5,0.6,6.6,0.8,6.6,0.8c0.6,0,1.1-0.4,1.2-1c0,0,0-0.1,0-0.1
						c0,0-0.2-3-0.8-6.5c-0.3-1.7-0.7-3.6-1.2-5.2c-0.5-1.7-1.2-3.2-2.2-4.2C-154.6,1161.5-156.9,1160.6-159.3,1160.6z
						 M-135.9,1160.6c-2.3,0-4.6,0.8-6.4,2.6c-1,1-1.7,2.5-2.2,4.2c-0.5,1.7-0.9,3.5-1.2,5.2c-0.6,3.5-0.8,6.5-0.8,6.5
						c0,0.6,0.4,1.1,1,1.2c0,0,0.1,0,0.1,0c0,0,3-0.2,6.5-0.8c1.7-0.3,3.6-0.7,5.3-1.2c1.7-0.5,3.1-1.2,4.1-2.2
						c3.5-3.5,3.5-9.4,0-12.9C-131.2,1161.5-133.5,1160.6-135.9,1160.6z M-159.3,1162.8c1.8,0,3.5,0.7,4.9,2.1
						c0.5,0.5,1.2,1.7,1.7,3.2c0.5,1.5,0.9,3.3,1.2,4.9c0.5,2.6,0.5,4.1,0.6,5c-0.9-0.1-2.4-0.2-5-0.6c-1.7-0.3-3.4-0.7-4.9-1.2
						c-1.5-0.5-2.7-1.1-3.3-1.6c-2.7-2.7-2.7-7,0-9.7C-162.8,1163.5-161,1162.8-159.3,1162.8z M-135.9,1162.8c1.8,0,3.5,0.7,4.9,2.1
						c2.7,2.7,2.7,7,0,9.7c-0.5,0.5-1.7,1.2-3.2,1.6c-1.5,0.5-3.3,0.9-4.9,1.2c-2.7,0.5-4.1,0.5-5,0.6c0.1-0.9,0.2-2.4,0.6-5
						c0.3-1.7,0.7-3.4,1.2-4.9c0.5-1.5,1.1-2.7,1.6-3.2C-139.4,1163.5-137.6,1162.8-135.9,1162.8z"/>
				</g>
			</g>
		</g>
	</g>
</g>
</svg>
