<?xml version="1.0" encoding="utf-8"?>
<!-- Generator: Adobe Illustrator 24.0.2, SVG Export Plug-In . SVG Version: 6.00 Build 0)  -->
<svg version="1.1"
	 id="svg4475" inkscape:version="0.48.4 r9939" sodipodi:docname="4 earth planet astrology solar system dense astronimical.svg" xmlns:cc="http://creativecommons.org/ns#" xmlns:dc="http://purl.org/dc/elements/1.1/" xmlns:inkscape="http://www.inkscape.org/namespaces/inkscape" xmlns:rdf="http://www.w3.org/1999/02/22-rdf-syntax-ns#" xmlns:sodipodi="http://sodipodi.sourceforge.net/DTD/sodipodi-0.dtd" xmlns:svg="http://www.w3.org/2000/svg"
	 xmlns="http://www.w3.org/2000/svg" xmlns:xlink="http://www.w3.org/1999/xlink" x="0px" y="0px" viewBox="0 0 64 64"
	 style="enable-background:new 0 0 64 64;" xml:space="preserve">
<sodipodi:namedview  bordercolor="#666666" borderopacity="1.0" id="base" inkscape:bbox-nodes="true" inkscape:bbox-paths="true" inkscape:current-layer="g10391" inkscape:cx="5.3528482" inkscape:cy="27.364056" inkscape:document-units="px" inkscape:pageopacity="0.0" inkscape:pageshadow="2" inkscape:snap-bbox="true" inkscape:snap-bbox-edge-midpoints="true" inkscape:snap-bbox-midpoints="true" inkscape:snap-global="true" inkscape:window-height="705" inkscape:window-maximized="1" inkscape:window-width="1366" inkscape:window-x="-8" inkscape:window-y="-8" inkscape:zoom="7.9195959" pagecolor="#ffffff" showgrid="true">
	<inkscape:grid  empspacing="5" enabled="true" id="grid4527" snapvisiblegridlinesonly="true" type="xygrid" visible="true">
		</inkscape:grid>
</sodipodi:namedview>
<g id="layer1" transform="translate(0,-1020.3622)" inkscape:groupmode="layer" inkscape:label="Layer 1">
	<g id="g10414" transform="translate(309.5948,-461.25192)">
		<g id="g15415" transform="translate(66.405195,515.25192)">
			<g id="g15417" transform="translate(-150,-49.999983)">
				<g id="g14600" transform="translate(-49.999995,-130.00002)">
					<g id="g10391" transform="translate(88.27405,-335.97045)">
						<path id="path10017" d="M-232.2,1482.3c-10.6,0-19.9,5.2-25.7,13.2c-3.6,4.9-5.9,10.9-6.2,17.4c-0.2,0.3-0.3,0.8-0.1,1.1
							c0,0.1,0,0.3,0,0.4c0,7.1,2.3,13.6,6.2,18.9c0,0,0,0,0.1,0.1c5.8,7.8,15.1,12.9,25.7,12.9c13.8,0,25.4-8.6,29.9-20.7
							c0.1-0.1,0.1-0.2,0.1-0.2c0,0,0-0.1,0.1-0.1c0,0,0,0,0-0.1c0.4-1.2,0.7-2.3,1-3.6c0,0,0,0,0.1-0.1c0,0,0,0,0-0.1
							c0,0,0,0,0-0.1c0,0,0.1-0.1,0.1-0.1c0-0.1,0-0.2,0-0.2c0.4-2.1,0.7-4.4,0.7-6.6c0-0.2-0.1-0.4-0.1-0.6c0,0,0-0.1,0-0.1
							c0.1-0.2,0.1-0.4,0-0.6c0,0,0-0.1,0-0.1c-0.5-10.8-6.3-20.2-14.9-25.6c0,0,0,0-0.1-0.1
							C-220.2,1484.2-225.9,1482.3-232.2,1482.3z M-232.2,1484.3c4.6,0,8.9,1.1,12.8,2.9h-1.2c-1.6,0-2.9,1.3-2.9,2.9
							c0,1.6,1.3,2.9,2.9,2.9h1.9c0.7,0,1,0.3,1,1c0,0.4-0.3,0.9-1,0.9h-3.8c-1.7,0-3,1.3-3,2.9c0,1.7,1.3,3,3,3h17
							c1.8,3.5,2.9,7.4,3.1,11.6h-59.8c0.1-1.3,0.2-2.6,0.4-3.8h23.7c1.6,0,2.9-1.3,2.9-2.9c0-1.7-1.3-3-2.9-3h-5.8
							c-0.4,0-0.9-0.4-0.9-0.9c0-0.4,0.4-0.9,0.9-0.9h3.9c1.6,0,2.9-1.3,2.9-3c0-1.6-1.3-2.9-2.9-2.9h-15.2
							C-249.6,1488.5-241.4,1484.3-232.2,1484.3z M-220.6,1489.2h4.7c3.8,2.5,6.9,5.8,9.2,9.6h-15.9c-0.7,0-1-0.3-1-1
							c0-0.4,0.3-0.9,1-0.9h3.8c1.7,0,3-1.3,3-2.9c0-1.7-1.3-3-3-3h-1.9c-0.4,0-0.9-0.4-0.9-0.9
							C-221.5,1489.7-221,1489.2-220.6,1489.2z M-256.6,1497h16.7c0.4,0,0.9,0.4,0.9,0.9c0,0.7-0.4,1-0.9,1h-3.9
							c-1.6,0-2.9,1.3-2.9,2.9c0,1.6,1.3,2.9,2.9,2.9h5.8c0.4,0,0.9,0.3,0.9,1c0,0.4-0.4,0.9-0.9,0.9h-23.2c0.2-0.7,0.4-1.3,0.6-1.9
							h3.2c1.6,0,2.9-1.3,2.9-2.9c0-1.6-1.3-2.9-2.9-2.9h-0.5C-257.4,1498.2-257.1,1497.6-256.6,1497z M-259,1500.9h1.6
							c0.4,0,0.9,0.5,0.9,0.9c0,0.4-0.4,0.9-0.9,0.9h-2.5C-259.6,1502.1-259.3,1501.4-259,1500.9z M-262.2,1514.4h60
							c0,0.6-0.1,1.3-0.1,1.9h-6.6c-1.6,0-2.9,1.3-2.9,2.9c0,1.6,1.3,2.9,2.9,2.9h5.6c-0.2,0.7-0.3,1.3-0.6,1.9h-43.7
							c-0.7,0-0.9-0.4-0.9-0.9c0-0.4,0.1-0.6,0.2-0.7c0.1-0.2,0.4-0.2,0.7-0.2h2c1.7,0,3.1-1.3,3.1-2.9c0-1.6-1.4-2.9-3.1-2.9h-13.8
							h-2.7C-262.2,1515.7-262.2,1515-262.2,1514.4z M-262,1518.3h2.6h13.8c0.7,0,1.1,0.5,1.1,0.9c0,0.4-0.4,0.9-1.1,0.9h-2
							c-0.8,0-1.6,0.3-2.1,0.9c-0.5,0.6-0.8,1.3-0.8,2.1c0,1.5,1.3,2.9,2.9,2.9h43c-4.5,10.8-15.1,18.3-27.6,18.3
							c-9.3,0-17.5-4.1-23-10.6c1.6,0,2.9-1.3,2.9-2.9c0-1.6-1.3-2.9-2.9-2.9h-1.4c-0.7,0-1-0.3-1-1c0-0.4,0.3-0.9,1-0.9h1.2
							c1.7,0,3-1.3,3-2.9c0-1.7-1.3-3-3-3h-6.2C-261.8,1519.5-261.9,1518.9-262,1518.3z M-208.9,1518.3h6.4
							c-0.1,0.6-0.1,1.2-0.2,1.8h-6.1c-0.4,0-0.9-0.4-0.9-0.9C-209.9,1518.8-209.4,1518.3-208.9,1518.3z M-261.2,1522.1h5.7
							c0.7,0,1,0.3,1,1c0,0.4-0.3,0.9-1,0.9h-1.2c-1.6,0-2.9,1.2-3,2.6C-260.3,1525.2-260.8,1523.7-261.2,1522.1z M-233.5,1527.9
							c-1.7,0-3,1.3-3,2.9c0,1.6,1.3,2.9,3,2.9h1.9c0.4,0,0.9,0.3,0.9,1c0,0.4-0.4,0.9-0.9,0.9h-3.9c-1.6,0-2.9,1.3-2.9,2.9
							c0,1.7,1.3,3,2.9,3h14.1c0.8,0,1.6-0.3,2.1-0.9c0.5-0.6,0.8-1.3,0.8-2.1c0-1.5-1.3-2.9-2.9-2.9h-1.4c-0.7,0-0.9-0.4-0.9-0.9
							c0-0.4,0.1-0.6,0.2-0.7c0.1-0.2,0.3-0.2,0.6-0.2h3.4c1.7,0,3-1.3,3-2.9c0-1.6-1.3-2.9-3-2.9H-233.5z M-211.7,1527.9
							c-1.7,0-3,1.3-3,2.9c0,1.6,1.3,2.9,3,2.9c1.6,0,2.9-1.3,2.9-2.9C-208.8,1529.3-210.1,1527.9-211.7,1527.9z M-258.1,1529.5
							c0.4,0.2,0.9,0.4,1.4,0.4h1.4c0.4,0,0.9,0.5,0.9,0.9c0,0.4-0.5,0.9-0.9,0.9h-1.6C-257.3,1531-257.7,1530.3-258.1,1529.5z
							 M-233.5,1529.9h14c0.7,0,1,0.5,1,0.9c0,0.4-0.3,0.9-1,0.9h-3.4c-0.8,0-1.6,0.3-2.1,0.9c-0.5,0.6-0.7,1.3-0.7,2.1
							c0,1.5,1.2,2.9,2.9,2.9h1.4c0.7,0,0.9,0.3,0.9,0.9c0,0.4-0.1,0.6-0.2,0.7c-0.1,0.2-0.4,0.2-0.7,0.2h-14.1
							c-0.4,0-0.9-0.3-0.9-1c0-0.4,0.5-0.9,0.9-0.9h3.9c1.6,0,2.9-1.3,2.9-2.9c0-1.7-1.3-3-2.9-3h-1.9c-0.7,0-1-0.4-1-0.9
							C-234.5,1530.4-234.2,1529.9-233.5,1529.9z M-211.7,1529.9c0.4,0,0.9,0.5,0.9,0.9c0,0.4-0.5,0.9-0.9,0.9c-0.7,0-1-0.4-1-0.9
							C-212.7,1530.4-212.4,1529.9-211.7,1529.9z M-242.8,1535.7c-1.6,0-2.9,1.3-2.9,2.9c0,1.7,1.3,3,2.9,3c1.7,0,3.1-1.3,3.1-3
							C-239.8,1536.9-241.2,1535.7-242.8,1535.7z M-242.8,1537.6c0.7,0,1.1,0.4,1.1,0.9c0,0.7-0.4,1-1.1,1c-0.4,0-0.9-0.3-0.9-1
							C-243.7,1538.1-243.3,1537.6-242.8,1537.6z"/>
					</g>
				</g>
			</g>
		</g>
	</g>
</g>
</svg>
