<?xml version="1.0" encoding="utf-8"?>
<!-- Generator: Adobe Illustrator 24.0.2, SVG Export Plug-In . SVG Version: 6.00 Build 0)  -->
<svg version="1.1"
	 id="svg4475" inkscape:version="0.48.4 r9939" sodipodi:docname="14 galaxy spaceship universe invasion alien solar system 1.svg" xmlns:cc="http://creativecommons.org/ns#" xmlns:dc="http://purl.org/dc/elements/1.1/" xmlns:inkscape="http://www.inkscape.org/namespaces/inkscape" xmlns:rdf="http://www.w3.org/1999/02/22-rdf-syntax-ns#" xmlns:sodipodi="http://sodipodi.sourceforge.net/DTD/sodipodi-0.dtd" xmlns:svg="http://www.w3.org/2000/svg"
	 xmlns="http://www.w3.org/2000/svg" xmlns:xlink="http://www.w3.org/1999/xlink" x="0px" y="0px" viewBox="0 0 66.7 64"
	 style="enable-background:new 0 0 66.7 64;" xml:space="preserve">
<sodipodi:namedview  bordercolor="#666666" borderopacity="1.0" id="base" inkscape:bbox-nodes="true" inkscape:bbox-paths="true" inkscape:current-layer="g14600" inkscape:cx="5.3528482" inkscape:cy="15.229762" inkscape:document-units="px" inkscape:pageopacity="0.0" inkscape:pageshadow="2" inkscape:snap-bbox="true" inkscape:snap-bbox-edge-midpoints="true" inkscape:snap-bbox-midpoints="true" inkscape:snap-global="true" inkscape:window-height="705" inkscape:window-maximized="1" inkscape:window-width="1366" inkscape:window-x="-8" inkscape:window-y="-8" inkscape:zoom="7.9195959" pagecolor="#ffffff" showgrid="true">
	<inkscape:grid  empspacing="5" enabled="true" id="grid4527" snapvisiblegridlinesonly="true" type="xygrid" visible="true">
		</inkscape:grid>
</sodipodi:namedview>
<g id="layer1" transform="translate(0,-1020.3622)" inkscape:groupmode="layer" inkscape:label="Layer 1">
	<g id="g10414" transform="translate(309.5948,-461.25192)">
		<g id="g15415" transform="translate(66.405195,515.25192)">
			<g id="g15417" transform="translate(-150,-49.999983)">
				<g id="g14600" transform="translate(-49.999995,-130.00002)">
					<path id="path11118" d="M-142,1146.4c-11.5,0-20.7,9.1-21.2,20.3c-3.9,1-7,2.3-9.1,3.9c-2.3,1.7-3.7,3.8-3.7,6.1
						c0,2,1.2,3.9,3,5.3s4.2,2.5,7.2,3.5c2.6,0.8,5.6,1.5,8.8,2c1,0.9,2,1.9,3,2.6l-7.7,13.1c-0.3-0.1-0.7-0.2-1.1-0.2
						c-1,0-1.9,0.2-2.9,0.8c0,0-0.1,0.1-0.1,0.1c-1.6,1.1-2.7,3-2.7,5.1c0,0.7,0.6,1.3,1.3,1.3h4.2h4.3c0.7,0,1.3-0.6,1.3-1.3
						c0-1.7-0.7-3.3-2-4.5l7.5-13c2.5,1.3,5.3,2,8.2,2.2v7.7c-0.6,0.1-1.1,0.3-1.6,0.6c-1.6,1.1-2.7,3.1-2.7,5.2
						c0,0.7,0.6,1.3,1.3,1.3h4.3h4.2c0.7,0,1.3-0.6,1.3-1.3c0-2.2-1-4.1-2.7-5.2c-0.5-0.3-1-0.5-1.5-0.6v-7.7c3-0.2,5.9-1,8.5-2.4
						l6.8,12.4c-0.1,0.1-0.3,0.1-0.4,0.2c-1.6,1.1-2.7,3-2.7,5.1c0,0.7,0.6,1.3,1.3,1.3h4.2h4.3c0.7,0,1.3-0.6,1.3-1.3
						c0-2.2-1-4-2.7-5.1c-0.8-0.5-1.8-0.8-2.7-0.8l-7.2-13.2c1-0.7,2-1.6,2.9-2.4c0.1-0.1,0.1-0.1,0.2-0.2c2.6-0.5,5.1-1.1,7.2-1.8
						c3-1,5.4-2.1,7.2-3.5c1.8-1.4,3-3.3,3-5.3c0-2.2-1.5-4.1-3.6-5.6c-2-1.4-4.7-2.7-7.9-3.7C-121,1155.8-130.3,1146.4-142,1146.4z
						 M-142,1149.1c10.3,0,18.4,8.3,18.4,18.4c0,0.3,0.1,0.5,0.3,0.8c-0.3,2.5-2.2,4.9-5.5,6.7c-3.2,1.8-7.7,2.9-12.6,2.9
						c-5.1,0-10-1.3-13.5-3.2s-5.6-4.5-5.6-7c0,0,0-0.1,0-0.1c0-0.1,0-0.1,0-0.2C-160.5,1157.3-152.4,1149.1-142,1149.1z
						 M-162.5,1169.5c0.8,3,3,5.7,6.3,7.6c4,2.2,9.3,3.5,14.8,3.5c5.3,0,10.2-1.2,14-3.3c3.1-1.7,5.1-4.3,6.1-7.2
						c2.8,0.9,5.3,2,6.8,3.1c1.8,1.3,2.5,2.4,2.5,3.4c0,1-0.6,2.1-2,3.2c-1.4,1.1-3.6,2.2-6.4,3.1c-5.6,1.9-13.5,3-22.2,3
						c-8.7,0-16.6-1.2-22.2-3c-2.8-0.9-5-2-6.4-3.1c-1.4-1.1-2-2.2-2-3.2c0-1.3,0.7-2.7,2.6-4
						C-169,1171.4-166.1,1170.4-162.5,1169.5z M-167.8,1172.7c-0.9,0-1.4,0.6-1.4,1.4c0,0.6,0.6,1.3,1.4,1.3c0.6,0,1.3-0.7,1.3-1.3
						C-166.5,1173.3-167.2,1172.7-167.8,1172.7z M-118,1173.3c-0.6,0-1.3,0.6-1.3,1.3c0,0.9,0.7,1.5,1.3,1.5c0.9,0,1.4-0.7,1.4-1.5
						C-116.5,1173.9-117.1,1173.3-118,1173.3z M-162.7,1177.1c-0.9,0-1.5,0.7-1.5,1.5c0,0.9,0.7,1.4,1.5,1.4c0.6,0,1.3-0.6,1.3-1.4
						C-161.5,1177.8-162.1,1177.1-162.7,1177.1z M-123.1,1177.7c-0.6,0-1.3,0.7-1.3,1.5c0,0.6,0.6,1.3,1.3,1.3
						c0.9,0,1.5-0.6,1.5-1.3C-121.6,1178.4-122.2,1177.7-123.1,1177.7z M-154.8,1180.3c-0.9,0-1.5,0.7-1.5,1.5
						c0,0.6,0.7,1.3,1.5,1.3c0.9,0,1.4-0.6,1.4-1.3C-153.4,1181-154,1180.3-154.8,1180.3z M-132,1180.5c-0.9,0-1.5,0.7-1.5,1.5
						c0,0.9,0.7,1.5,1.5,1.5c0.6,0,1.3-0.7,1.3-1.5C-130.8,1181.2-131.4,1180.5-132,1180.5z M-143.5,1181.9c-0.6,0-1.3,0.6-1.3,1.3
						c0,0.9,0.6,1.4,1.3,1.4c0.9,0,1.5-0.6,1.5-1.4C-142,1182.5-142.7,1181.9-143.5,1181.9z M-131.9,1188c-3,2-6.4,3.1-10.1,3.1
						c-3.6,0-7-1-9.9-2.9c3,0.3,6,0.5,9.3,0.5C-138.9,1188.7-135.3,1188.4-131.9,1188z M-142,1203.9c0.5,0,0.9,0.1,1.3,0.3
						c0.5,0.3,0.6,1,0.8,1.6h-2.2h-2.3c0.3-0.6,0.3-1.3,0.8-1.6C-143,1203.9-142.5,1203.9-142,1203.9z M-162.5,1205.7
						c0.5,0,0.8,0.1,1.3,0.4c0.6,0.3,0.6,1,0.8,1.5h-2.3h-2.2c0.3-0.5,0.4-1.2,0.8-1.5C-163.5,1205.9-163,1205.7-162.5,1205.7z
						 M-122.8,1205.8c0.5,0,0.9,0.1,1.3,0.3c0.5,0.3,0.6,1,0.8,1.5h-2.3h-2.2c0.3-0.5,0.4-1.2,0.8-1.5
						C-123.9,1205.9-123.3,1205.8-122.8,1205.8z"/>
				</g>
			</g>
		</g>
	</g>
</g>
</svg>
