<?xml version="1.0" encoding="utf-8"?>
<!-- Generator: Adobe Illustrator 24.0.2, SVG Export Plug-In . SVG Version: 6.00 Build 0)  -->
<svg version="1.1"
	 id="svg4475" inkscape:version="0.48.4 r9939" sodipodi:docname="15 14 galaxy spaceship universe invasion alien solar system rocket.svg" xmlns:cc="http://creativecommons.org/ns#" xmlns:dc="http://purl.org/dc/elements/1.1/" xmlns:inkscape="http://www.inkscape.org/namespaces/inkscape" xmlns:rdf="http://www.w3.org/1999/02/22-rdf-syntax-ns#" xmlns:sodipodi="http://sodipodi.sourceforge.net/DTD/sodipodi-0.dtd" xmlns:svg="http://www.w3.org/2000/svg"
	 xmlns="http://www.w3.org/2000/svg" xmlns:xlink="http://www.w3.org/1999/xlink" x="0px" y="0px" viewBox="0 0 47.2 64"
	 style="enable-background:new 0 0 47.2 64;" xml:space="preserve">
<sodipodi:namedview  bordercolor="#666666" borderopacity="1.0" id="base" inkscape:bbox-nodes="true" inkscape:bbox-paths="true" inkscape:current-layer="g14600" inkscape:cx="3.8760705" inkscape:cy="5.4781688" inkscape:document-units="px" inkscape:pageopacity="0.0" inkscape:pageshadow="2" inkscape:snap-bbox="true" inkscape:snap-bbox-edge-midpoints="true" inkscape:snap-bbox-midpoints="true" inkscape:snap-global="true" inkscape:window-height="705" inkscape:window-maximized="1" inkscape:window-width="1366" inkscape:window-x="-8" inkscape:window-y="-8" inkscape:zoom="7.9195959" pagecolor="#ffffff" showgrid="true">
	<inkscape:grid  empspacing="5" enabled="true" id="grid4527" snapvisiblegridlinesonly="true" type="xygrid" visible="true">
		</inkscape:grid>
</sodipodi:namedview>
<g id="layer1" transform="translate(0,-1020.3622)" inkscape:groupmode="layer" inkscape:label="Layer 1">
	<g id="g10414" transform="translate(309.5948,-461.25192)">
		<g id="g15415" transform="translate(66.405195,515.25192)">
			<g id="g15417" transform="translate(-150,-49.999983)">
				<g id="g14600" transform="translate(-49.999995,-130.00002)">
					<path id="path11370" d="M-152.3,1146.5l-0.7,0.7c-0.5,0.5-0.9,1-1.4,1.4c-5.5,5.9-7.9,13-8.5,20c-0.3,4.3,0,8.6,0.9,12.6
						l-3.6,1c-0.3-3.5-1.5-7.1-4.2-10l-0.8-0.8l-0.7,0.8c-5.5,5.9-4.9,14.4-2.8,20.4c0,0,0,0-0.1,0.1l-1.9,4c-0.2,0.5,0,1.1,0.5,1.3
						c0.1,0.1,0.3,0.1,0.4,0.1h1.3c-0.4,0.8-0.1,1.4,0.1,2.1c0.2,0.7,0.5,1.4,0.8,2.1c0.6,1.3,1.4,2.4,1.4,2.4l0.8,1.3l0.9-1.3
						c0,0,0.7-1.1,1.4-2.4c0.3-0.7,0.7-1.4,0.9-2.1c0.2-0.7,0.4-1.3,0.1-2.1h1.3c0.6,0,1-0.4,1-1c0-0.1,0-0.3-0.1-0.4l-1.6-4
						c0-0.1-0.1-0.2-0.1-0.3c0.2-0.7,0.5-1.3,0.7-2.1l6.6-1.8c0.2,0.5,0.4,1,0.6,1.5c0.1,0.2,0.1,0.3,0.2,0.5l-2.3,3.9
						c-0.3,0.5-0.1,1.1,0.4,1.4c0.2,0.1,0.3,0.1,0.5,0.1h3.8c-0.3,0.4-0.6,0.8-0.8,1.3c-0.5,1.1-0.2,2.1,0.2,3.3
						c0.4,1.2,0.9,2.4,1.4,3.6c1.2,2.4,2.4,4.5,2.4,4.5l0.8,1.4l0.9-1.3c0,0,1.3-2.1,2.6-4.4c0.6-1.2,1.2-2.5,1.6-3.7
						c0.4-1.2,0.7-2.3,0.2-3.4c-0.2-0.5-0.5-0.9-0.8-1.3h3.7c0.6,0,1-0.4,1-1c0-0.2,0-0.3-0.1-0.5l-2.1-4c0.1-0.2,0.1-0.4,0.2-0.6
						c0.3-0.7,0.6-1.4,0.8-2.1l6.2,1.6c0.1,0.5,0.2,1,0.4,1.5c0.2,0.5,0.3,1,0.5,1.5c0,0,0,0-0.1,0.1l-1.9,4c-0.2,0.5,0,1.1,0.5,1.3
						c0.1,0.1,0.3,0.1,0.4,0.1h1.3c-0.4,0.8-0.1,1.4,0.1,2.1c0.2,0.7,0.5,1.4,0.8,2.1c0.6,1.3,1.3,2.4,1.3,2.4l0.8,1.3l0.9-1.3
						c0,0,0.8-1.1,1.4-2.4c0.3-0.7,0.7-1.4,0.9-2.1c0.2-0.7,0.4-1.3,0.1-2.1h1.3c0.6,0,1-0.4,1-1c0-0.1,0-0.3-0.1-0.4l-1.6-4
						c0,0,0,0-0.1-0.1c0,0,0,0,0-0.1c2.1-6,2.8-14.5-2.8-20.4l-0.8-0.8l-0.7,0.8c-2.5,2.7-3.8,5.9-4.2,9.2l-3.6-1
						c0.7-3.8,1.1-7.9,0.8-11.9c-0.6-7.6-3.4-15.3-9.8-21.4L-152.3,1146.5z M-152.3,1149.6c2.6,2.8,4.5,5.8,5.8,9h-11.6
						C-156.8,1155.4-154.9,1152.3-152.3,1149.6z M-159.1,1160.6h13.7c0.9,2.7,1.5,5.4,1.7,8.2c0.5,7.3-1,14.7-3.4,20.7
						c-0.1,0.3-0.2,0.5-0.3,0.8h-9.5c-0.1-0.2-0.2-0.5-0.3-0.7c-2.4-6.1-4-13.5-3.5-20.7C-160.6,1166-160,1163.3-159.1,1160.6z
						 M-152.3,1163.9c-2,0-3.6,1.7-3.6,3.7s1.6,3.6,3.6,3.6c2,0,3.6-1.6,3.6-3.6S-150.3,1163.9-152.3,1163.9z M-152.3,1165.9
						c0.9,0,1.6,0.8,1.6,1.7c0,0.9-0.7,1.6-1.6,1.6c-0.9,0-1.6-0.7-1.6-1.6C-153.9,1166.7-153.2,1165.9-152.3,1165.9z
						 M-170.5,1174.9c3.8,5.2,3.3,12.2,1.4,17.3h-3C-173.9,1187.1-174.3,1180.1-170.5,1174.9z M-134,1174.9
						c3.8,5.2,3.4,12.2,1.5,17.3h-3C-137.4,1187.1-137.8,1180.1-134,1174.9z M-143,1182.5l3.9,1.1c0,0.8,0,1.6,0.1,2.4
						c0,0.6,0.1,1.1,0.2,1.6l-5.2-1.4C-143.6,1185-143.3,1183.8-143,1182.5z M-161.5,1183.3c0.3,1.2,0.7,2.5,1.1,3.6l-5.4,1.4
						c0.2-1.3,0.3-2.7,0.3-4L-161.5,1183.3z M-157.6,1192.3h10.4l1.1,2h-12.6L-157.6,1192.3z M-172.5,1194.3h3.9l0.8,2h-5.6
						L-172.5,1194.3z M-136,1194.3h3.9l0.8,2h-2.9h-2.8L-136,1194.3z M-152.5,1196.3L-152.5,1196.3c0.7,0,1.3,0.1,1.8,0.3
						c0.5,0.2,1,0.6,1.4,1.7c0.1,0.2,0.1,1-0.2,2.1c-0.3,1-0.9,2.2-1.4,3.3c-0.8,1.5-1.1,2-1.6,2.8c-0.5-0.8-0.8-1.3-1.5-2.8
						c-0.6-1.2-1.1-2.4-1.4-3.4c-0.3-1-0.2-1.8-0.2-1.9c0.4-1,0.9-1.4,1.4-1.7C-153.7,1196.4-153.1,1196.3-152.5,1196.3z
						 M-170.6,1198.3c0.3,0,0.6,0.1,0.8,0.1s0.3,0.2,0.6,0.7c0-0.1,0,0.3-0.2,0.8c-0.2,0.5-0.4,1.1-0.7,1.7
						c-0.2,0.4-0.2,0.4-0.4,0.8c-0.2-0.3-0.2-0.3-0.4-0.8c-0.3-0.6-0.5-1.3-0.7-1.8c-0.1-0.5,0-0.9-0.1-0.7c0.2-0.4,0.4-0.6,0.6-0.7
						C-171.1,1198.3-170.9,1198.3-170.6,1198.3z M-134.2,1198.3c0.3,0,0.5,0.1,0.7,0.1s0.3,0.2,0.6,0.7c0-0.1,0,0.3-0.1,0.8
						c-0.2,0.5-0.4,1.1-0.8,1.7c-0.2,0.4-0.2,0.4-0.4,0.8c-0.2-0.3-0.2-0.4-0.4-0.8c-0.3-0.6-0.5-1.3-0.7-1.8
						c-0.1-0.5-0.1-0.9-0.2-0.7c0.2-0.4,0.4-0.6,0.6-0.7C-134.8,1198.3-134.5,1198.3-134.2,1198.3z"/>
				</g>
			</g>
		</g>
	</g>
</g>
</svg>
