<?xml version="1.0" encoding="utf-8"?>
<!-- Generator: Adobe Illustrator 24.0.2, SVG Export Plug-In . SVG Version: 6.00 Build 0)  -->
<svg version="1.1"
	 id="svg4475" inkscape:version="0.48.4 r9939" sodipodi:docname="14 galaxy spaceship universe invasion alien solar system.svg" xmlns:cc="http://creativecommons.org/ns#" xmlns:dc="http://purl.org/dc/elements/1.1/" xmlns:inkscape="http://www.inkscape.org/namespaces/inkscape" xmlns:rdf="http://www.w3.org/1999/02/22-rdf-syntax-ns#" xmlns:sodipodi="http://sodipodi.sourceforge.net/DTD/sodipodi-0.dtd" xmlns:svg="http://www.w3.org/2000/svg"
	 xmlns="http://www.w3.org/2000/svg" xmlns:xlink="http://www.w3.org/1999/xlink" x="0px" y="0px" viewBox="0 0 45.1 64"
	 style="enable-background:new 0 0 45.1 64;" xml:space="preserve">
<sodipodi:namedview  bordercolor="#666666" borderopacity="1.0" id="base" inkscape:bbox-nodes="true" inkscape:bbox-paths="true" inkscape:current-layer="g14600" inkscape:cx="-6.4950316" inkscape:cy="16.432068" inkscape:document-units="px" inkscape:pageopacity="0.0" inkscape:pageshadow="2" inkscape:snap-bbox="true" inkscape:snap-bbox-edge-midpoints="true" inkscape:snap-bbox-midpoints="true" inkscape:snap-global="true" inkscape:window-height="705" inkscape:window-maximized="1" inkscape:window-width="1366" inkscape:window-x="-8" inkscape:window-y="-8" inkscape:zoom="15.839192" pagecolor="#ffffff" showgrid="true">
	<inkscape:grid  empspacing="5" enabled="true" id="grid4527" snapvisiblegridlinesonly="true" type="xygrid" visible="true">
		</inkscape:grid>
</sodipodi:namedview>
<g id="layer1" transform="translate(0,-1020.3622)" inkscape:groupmode="layer" inkscape:label="Layer 1">
	<g id="g10414" transform="translate(309.5948,-461.25192)">
		<g id="g15415" transform="translate(66.405195,515.25192)">
			<g id="g15417" transform="translate(-150,-49.999983)">
				<g id="g14600" transform="translate(-49.999995,-130.00002)">
					<path id="path10586" d="M-153.5,1146.4c-3.4,0-6.7,0.9-9.7,2.6c0,0,0,0-0.1,0v0.1c-5.7,3.2-9.3,9.2-9.7,15.7h-0.3
						c-1.7,0-2.9,1.4-2.9,3v2c0,1.6,1.2,3.2,2.9,3.2h1.9l1.3,5.3c0.1,0.4,0.5,0.7,1,0.8h7.3v2c0,0.6,0.5,1,1,1h0.8l-3.8,27.2
						c-0.1,0.6,0.3,1.1,0.8,1.2c0.1,0,0.1,0,0.2,0h18.4c0.6,0,1-0.4,1-1c0-0.1,0-0.1,0-0.2l-3.9-27.2h0.8c0.6,0,1-0.5,1-1v-2h7.2
						c0.5,0,0.9-0.3,1-0.8l1.3-5.3h1.8c1.7,0,3-1.4,3-3.2v-2c0-1.7-1.3-3-3-3h-0.1c-0.4-6.5-4-12.5-9.7-15.7c0,0,0-0.1,0-0.1
						c0,0,0,0-0.1,0C-146.7,1147.2-150.1,1146.4-153.5,1146.4z M-153.5,1148.4c3,0,6,0.8,8.7,2.3c0,0,0,0,0.1,0
						c5.1,2.8,8.2,8.2,8.6,14h-34.7c0.4-5.8,3.5-11.1,8.6-14c0,0,0,0,0.1,0C-159.5,1149.2-156.5,1148.4-153.5,1148.4z
						 M-173.1,1166.7h39.2c0.5,0,1,0.5,1,1v2c0,0.7-0.4,1.1-1,1.1h-39.2c-0.5,0-0.8-0.4-0.8-1.1v-2
						C-174,1167.1-173.6,1166.7-173.1,1166.7z M-171.9,1167.8c-0.6,0-1.1,0.4-1.1,1c0,0.5,0.5,1,1.1,1c0.5,0,1-0.5,1-1
						C-171,1168.2-171.5,1167.8-171.9,1167.8z M-167.9,1167.8c-0.5,0-0.9,0.4-0.9,1c0,0.5,0.4,1,0.9,1c0.6,0,1.1-0.5,1.1-1
						C-166.9,1168.2-167.3,1167.8-167.9,1167.8z M-163.7,1167.8c-0.6,0-1.1,0.4-1.1,1c0,0.5,0.5,1,1.1,1c0.6,0,1.1-0.5,1.1-1
						C-162.7,1168.2-163.1,1167.8-163.7,1167.8z M-159.6,1167.8c-0.6,0-1.1,0.4-1.1,1c0,0.5,0.5,1,1.1,1c0.5,0,1-0.5,1-1
						C-158.7,1168.2-159.2,1167.8-159.6,1167.8z M-155.6,1167.8c-0.5,0-0.9,0.4-0.9,1c0,0.5,0.4,1,0.9,1c0.6,0,1.1-0.5,1.1-1
						C-154.5,1168.2-155,1167.8-155.6,1167.8z M-151.4,1167.8c-0.6,0-1.1,0.4-1.1,1c0,0.5,0.5,1,1.1,1c0.6,0,1-0.5,1-1
						C-150.4,1168.2-150.8,1167.8-151.4,1167.8z M-147.3,1167.8c-0.6,0-1.1,0.4-1.1,1c0,0.5,0.5,1,1.1,1c0.5,0,1-0.5,1-1
						C-146.3,1168.2-146.8,1167.8-147.3,1167.8z M-143.3,1167.8c-0.5,0-1,0.4-1,1c0,0.5,0.5,1,1,1c0.6,0,1.1-0.5,1.1-1
						C-142.2,1168.2-142.7,1167.8-143.3,1167.8z M-139.2,1167.8c-0.6,0-1,0.4-1,1c0,0.5,0.4,1,1,1c0.6,0,1.1-0.5,1.1-1
						C-138.1,1168.2-138.6,1167.8-139.2,1167.8z M-135,1167.8c-0.6,0-1.1,0.4-1.1,1c0,0.5,0.5,1,1.1,1c0.5,0,0.9-0.5,0.9-1
						C-134.1,1168.2-134.5,1167.8-135,1167.8z M-169.1,1172.8h31.3l-1,4.1h-29.3L-169.1,1172.8z M-159.7,1178.9h12.3v1h-12.3V1178.9
						z M-157.8,1182h8.6l3.9,26.3h-16.1L-157.8,1182z"/>
				</g>
			</g>
		</g>
	</g>
</g>
</svg>
