<?xml version="1.0" encoding="utf-8"?>
<!-- Generator: Adobe Illustrator 24.0.2, SVG Export Plug-In . SVG Version: 6.00 Build 0)  -->
<svg version="1.1"
	 id="svg4475" inkscape:version="0.48.4 r9939" sodipodi:docname="14 galaxy spaceship universe invasion alien solar system rocket launch 1.svg" xmlns:cc="http://creativecommons.org/ns#" xmlns:dc="http://purl.org/dc/elements/1.1/" xmlns:inkscape="http://www.inkscape.org/namespaces/inkscape" xmlns:rdf="http://www.w3.org/1999/02/22-rdf-syntax-ns#" xmlns:sodipodi="http://sodipodi.sourceforge.net/DTD/sodipodi-0.dtd" xmlns:svg="http://www.w3.org/2000/svg"
	 xmlns="http://www.w3.org/2000/svg" xmlns:xlink="http://www.w3.org/1999/xlink" x="0px" y="0px" viewBox="0 0 36.1 64"
	 style="enable-background:new 0 0 36.1 64;" xml:space="preserve">
<sodipodi:namedview  bordercolor="#666666" borderopacity="1.0" id="base" inkscape:bbox-nodes="true" inkscape:bbox-paths="true" inkscape:current-layer="g14600" inkscape:cx="6.9096145" inkscape:cy="19.272515" inkscape:document-units="px" inkscape:pageopacity="0.0" inkscape:pageshadow="2" inkscape:snap-bbox="true" inkscape:snap-bbox-edge-midpoints="true" inkscape:snap-bbox-midpoints="true" inkscape:snap-global="false" inkscape:window-height="705" inkscape:window-maximized="1" inkscape:window-width="1366" inkscape:window-x="-8" inkscape:window-y="-8" inkscape:zoom="11.313709" pagecolor="#ffffff" showgrid="true">
	<inkscape:grid  empspacing="5" enabled="true" id="grid4527" snapvisiblegridlinesonly="true" type="xygrid" visible="true">
		</inkscape:grid>
</sodipodi:namedview>
<g id="layer1" transform="translate(0,-1020.3622)" inkscape:groupmode="layer" inkscape:label="Layer 1">
	<g id="g10414" transform="translate(309.5948,-461.25192)">
		<g id="g15415" transform="translate(66.405195,515.25192)">
			<g id="g15417" transform="translate(-150,-49.999983)">
				<g id="g14600" transform="translate(-49.999995,-130.00002)">
					<path id="path7376" d="M-158,1146.5c-1.3,0-2.4,0.6-3.1,1.4c-0.8,0.9-1.2,2-1.6,3.3c-0.2,0.7-0.3,1.5-0.4,2.2l-0.1,0.9
						c-0.3,2-0.6,4.2-0.9,6.6c-1.1,7.5-3.2,16.2-11.4,22.3l-0.4,0.3v0.5v4.4v1h1h10l0.6,3l0.2,0.8h0.8h10.8h0.8l0.2-0.8l0.6-3h10h1
						v-1v-4.4v-0.5l-0.4-0.3c-8.2-6-10.3-14.8-11.4-22.3c-0.5-3.7-0.8-7.2-1.5-9.8c-0.3-1.3-0.8-2.4-1.6-3.3
						C-155.6,1147-156.7,1146.5-158,1146.5z M-158,1148.5c0.8,0,1.2,0.3,1.7,0.7c0.4,0.5,0.8,1.3,1.1,2.4c0.1,0.5,0.3,1.2,0.4,1.8
						h-6.3c0.1-0.6,0.2-1.2,0.4-1.7c0.3-1.1,0.7-2,1.1-2.5C-159.2,1148.8-158.8,1148.5-158,1148.5z M-161.3,1155.5h6.8
						c0.6,4.3,1.1,10,2.7,15.9h-12.2C-162.4,1165.5-161.9,1159.8-161.3,1155.5z M-158,1156.6c-1.7,0-3.1,1.4-3.1,3.2
						c0,1.7,1.4,3.2,3.1,3.2s3.2-1.4,3.2-3.2C-154.8,1158-156.2,1156.6-158,1156.6z M-158,1158.6c0.6,0,1.2,0.5,1.2,1.2
						c0,0.7-0.6,1.2-1.2,1.2c-0.6,0-1.1-0.5-1.1-1.2C-159.1,1159.1-158.6,1158.6-158,1158.6z M-158,1164.3c-1.5,0-2.7,1.3-2.7,2.9
						c0,1.5,1.2,2.8,2.7,2.8c1.5,0,2.8-1.3,2.8-2.8C-155.2,1165.6-156.4,1164.3-158,1164.3z M-158,1166.3c0.4,0,0.8,0.4,0.8,0.9
						c0,0.5-0.4,0.8-0.8,0.8c-0.4,0-0.7-0.3-0.7-0.8C-158.7,1166.7-158.4,1166.3-158,1166.3z M-165.4,1173.4L-165.4,1173.4h14.9h0.1
						c1.6,3.6,3.8,7,7.2,9.9h-29.3C-169.2,1180.4-167,1176.9-165.4,1173.4z M-161.3,1175.4c-0.5,0.1-0.9,0.6-0.8,1.2
						s0.6,0.9,1.2,0.8h6c0.5,0,1-0.4,1-1c0-0.5-0.4-1-1-1c0,0,0,0,0,0h-6c-0.1,0-0.1,0-0.2,0
						C-161.2,1175.4-161.2,1175.4-161.3,1175.4z M-161.3,1179.3c-0.5,0.1-0.9,0.6-0.8,1.2s0.6,0.9,1.2,0.8l0,0h6c0.5,0,1-0.4,1-1
						c0-0.5-0.4-1-1-1c0,0,0,0,0,0h-6c-0.1,0-0.1,0-0.2,0C-161.2,1179.3-161.2,1179.3-161.3,1179.3z M-174,1185.3h32.1v2.1h-9.8
						h-0.8l-0.2,0.8l-0.6,3h-9.3l-0.6-3l-0.2-0.8h-0.8h-9.8V1185.3z M-158,1194.3c-0.7,0-1.7,0.1-2.6,0.6c-0.9,0.5-1.8,1.3-2.4,2.7
						c-0.5,1.1-0.2,2.1,0.1,3.3c0.4,1.2,0.9,2.5,1.5,3.7c1.2,2.4,2.5,4.5,2.5,4.5l0.8,1.4l0.9-1.3c0,0,1.3-2.1,2.5-4.5
						c0.6-1.2,1.2-2.5,1.6-3.7c0.4-1.2,0.6-2.3,0.1-3.4c-0.6-1.4-1.5-2.4-2.4-2.8S-157.3,1194.3-158,1194.3z M-158,1196.3
						c0.3,0,0.5,0,0.9,0.6c0,0,0,0.2-0.1,0.6c-0.1,0.4-0.4,1-0.6,1.6c-0.1,0.2-0.1,0.2-0.2,0.4c-0.1-0.2-0.1-0.2-0.2-0.4
						c-0.2-0.5-0.5-1.1-0.6-1.6c-0.1-0.3,0-0.6-0.1-0.6C-158.5,1196.4-158.2,1196.3-158,1196.3z M-155.2,1197.5
						c0.2,0.2,0.3,0.5,0.4,0.8c0.1,0.2,0.1,1-0.2,2c-0.3,1-0.8,2.3-1.4,3.4c-0.8,1.5-1.1,2-1.6,2.8c-0.5-0.8-0.8-1.3-1.6-2.9
						c-0.6-1.2-1.1-2.4-1.4-3.4c-0.3-1-0.3-1.8-0.2-1.9c0.1-0.3,0.3-0.5,0.4-0.7c0,0.1,0.1,0.3,0.1,0.4c0.2,0.6,0.4,1.3,0.6,1.9
						c0.5,1.2,1.1,2.2,1.1,2.2l0.9,1.6l0.9-1.5c0,0,0.6-1.1,1.2-2.2c0.3-0.6,0.5-1.2,0.7-1.8
						C-155.2,1197.9-155.2,1197.7-155.2,1197.5z"/>
				</g>
			</g>
		</g>
	</g>
</g>
</svg>
