<?xml version="1.0" encoding="utf-8"?>
<!-- Generator: Adobe Illustrator 24.0.2, SVG Export Plug-In . SVG Version: 6.00 Build 0)  -->
<svg version="1.1"
	 id="svg4475" inkscape:version="0.48.4 r9939" sodipodi:docname="14 galaxy spaceship universe invasion alien solar system rocket launch.svg" xmlns:cc="http://creativecommons.org/ns#" xmlns:dc="http://purl.org/dc/elements/1.1/" xmlns:inkscape="http://www.inkscape.org/namespaces/inkscape" xmlns:rdf="http://www.w3.org/1999/02/22-rdf-syntax-ns#" xmlns:sodipodi="http://sodipodi.sourceforge.net/DTD/sodipodi-0.dtd" xmlns:svg="http://www.w3.org/2000/svg"
	 xmlns="http://www.w3.org/2000/svg" xmlns:xlink="http://www.w3.org/1999/xlink" x="0px" y="0px" viewBox="0 0 63 64"
	 style="enable-background:new 0 0 63 64;" xml:space="preserve">
<sodipodi:namedview  bordercolor="#666666" borderopacity="1.0" id="base" inkscape:bbox-nodes="true" inkscape:bbox-paths="true" inkscape:current-layer="g14600" inkscape:cx="-7.844578" inkscape:cy="10.854379" inkscape:document-units="px" inkscape:pageopacity="0.0" inkscape:pageshadow="2" inkscape:snap-bbox="true" inkscape:snap-bbox-edge-midpoints="true" inkscape:snap-bbox-midpoints="true" inkscape:snap-global="true" inkscape:window-height="705" inkscape:window-maximized="1" inkscape:window-width="1366" inkscape:window-x="-8" inkscape:window-y="-8" inkscape:zoom="11.2" pagecolor="#ffffff" showgrid="true">
	<inkscape:grid  empspacing="5" enabled="true" id="grid4527" snapvisiblegridlinesonly="true" type="xygrid" visible="true">
		</inkscape:grid>
</sodipodi:namedview>
<g id="layer1" transform="translate(0,-1020.3622)" inkscape:groupmode="layer" inkscape:label="Layer 1">
	<g id="g10414" transform="translate(309.5948,-461.25192)">
		<g id="g15415" transform="translate(66.405195,515.25192)">
			<g id="g15417" transform="translate(-150,-49.999983)">
				<g id="g14600" transform="translate(-49.999995,-130.00002)">
					
						<path id="path11556" inkscape:connector-curvature="0" sodipodi:nodetypes="sccccccccccccccccccccsccccccsccccccccccccccccccccccccccsssccscccsscccscccsscccccccccccccccsccccccccccccssssssscccccccsccccccccccccccccccscccccccsssssssssssssssssssssssccccc" d="
						M-144.5,1146.4c-1.1,0-1.8,0.6-2.6,1.5c-0.8,0.8-1.6,1.9-2.3,3.2c-1.6,2.6-3.1,6-4.1,9.5c0,0.1-0.1,0.2-0.1,0.3v0.6
						c0,0.1,0,0.2,0,0.3v2v2c0,0.1,0,0.2,0,0.3v2.2c0,0,0,0,0,0.1c-0.1,0.3-0.2,0.6-0.3,0.8c-3,7.7-7.4,15.6-15.1,20.1
						c-0.1,0-0.1,0.1-0.2,0.1c-2.1,1.1-4.1,2.4-6.1,3.8c-0.2,0.1-0.5,0.3-0.6,0.5c-0.2,0.3-0.3,0.7-0.1,1.1v5.5c0,0.5,0.5,1,1,1
						h19.3v1c0,1.5,1.2,2.8,2.7,3l1.5,4.4c0.1,0.4,0.5,0.7,1,0.7h12.2c0.4,0,0.8-0.3,1-0.7l1.5-4.4c1.5-0.2,2.6-1.5,2.6-3v-1h19.3
						c0.5,0,1-0.5,1-1v-5.8c0-0.2,0-0.3,0-0.5c0,0,0-0.1-0.1-0.1c0,0,0,0,0-0.1c0,0,0-0.1-0.1-0.1c0,0-0.1-0.1-0.1-0.1
						c0,0,0,0-0.1-0.1c0,0,0,0,0-0.1c0,0-0.1,0-0.1-0.1c0,0,0,0-0.1,0c0,0,0,0-0.1-0.1c-2-1.5-4.2-2.8-6.4-4
						c-7.8-4.5-12.2-12.5-15.2-20.3c-0.1-0.2-0.1-0.3-0.2-0.5v-2.5c0-0.1,0-0.1,0-0.2v-2v-2c0-0.1,0-0.1,0-0.2v-0.6
						c0-0.1,0-0.2-0.1-0.3c-1-3.4-2.6-6.9-4.1-9.5c-0.8-1.3-1.6-2.4-2.3-3.2C-142.7,1147-143.4,1146.4-144.5,1146.4z M-144.5,1148.4
						c-0.1,0,0.5,0.2,1.1,0.8s1.4,1.6,2.1,2.9c1.4,2.2,2.8,5.2,3.7,8.2c-1.4-0.3-3.9-0.7-6.9-0.7c-3,0-5.5,0.4-6.9,0.7
						c1-3,2.4-6,3.7-8.2c0.7-1.2,1.5-2.2,2.1-2.9C-145,1148.6-144.5,1148.4-144.5,1148.4z M-144.5,1161.6c3.5,0,6.5,0.7,7.1,0.9v1.1
						v0.9c-1-0.2-3.5-0.9-7.1-0.9c-3.6,0-6.1,0.7-7.1,0.9v-0.9v-1.1C-151,1162.3-148,1161.6-144.5,1161.6z M-144.5,1165.7
						c3.3,0,6.2,0.6,7.1,0.8v1.7c0,0.1,0,0.2,0,0.3v0.1c0,0.1,0,0.1,0,0.2v9.1v2v4.2v1.1v12h-14.2v-17.3v-2v-9.3v-2.1
						C-150.7,1166.3-147.8,1165.7-144.5,1165.7z M-153.7,1173.7v4.2v2v3.9c-2.7,0.5-5.4,1.2-8,2.1
						C-158.2,1182.3-155.6,1178-153.7,1173.7z M-135.4,1173.7c2,4.3,4.5,8.6,7.9,12.1c-2.6-0.9-5.2-1.6-7.9-2v-3.9v-2V1173.7z
						 M-149.6,1183.9c-0.6,0-1,0.5-1,1c0,0.6,0.5,1,1,1h10.2c0.6,0,1-0.5,1-1c0-0.6-0.5-1-1-1H-149.6z M-153.7,1185.8v11.6
						c-0.9,0.3-1.5,1-1.8,1.8H-174v-3h15.2v0.9c0,0.5,0.5,1,1,1c0.5,0,1-0.5,1-1v-3.9c0-0.6-0.6-1.1-1.2-1c-0.5,0.1-0.8,0.5-0.8,1v1
						h-14.5c1.5-1.1,3.1-2.1,4.8-3c0.2,0,0.4-0.1,0.5-0.3C-163.5,1188.4-158.6,1186.7-153.7,1185.8z M-135.4,1185.9
						c5,0.9,9.8,2.6,14.3,5c0.2,0.1,0.4,0.2,0.6,0.3c1.6,0.9,3.2,1.9,4.7,3h-14.5v-1c0-0.6-0.6-1.1-1.2-1c-0.5,0.1-0.8,0.5-0.8,1
						v3.9c0,0.5,0.5,1,1,1s1-0.5,1-1v-0.9h15.2v3h-18.5c-0.3-0.8-1-1.5-1.8-1.8V1185.9z M-149.6,1188c-0.6,0-1,0.5-1,1
						c0,0.6,0.5,1,1,1h10.2c0.6,0,1-0.5,1-1c0-0.6-0.5-1-1-1H-149.6z M-149.6,1192.1c-0.6,0-1,0.5-1,1c0,0.6,0.5,1,1,1h10.2
						c0.6,0,1-0.5,1-1c0-0.6-0.5-1-1-1H-149.6z M-152.6,1199.2h16.3c0.6,0,1,0.4,1,1v2c0,0.6-0.4,1-1,1h-16.3c-0.6,0-1-0.4-1-1v-2
						C-153.7,1199.6-153.2,1199.2-152.6,1199.2z M-150.9,1205.3h12.8l-1,3h-10.8L-150.9,1205.3z"/>
				</g>
			</g>
		</g>
	</g>
</g>
</svg>
