<?xml version="1.0" encoding="utf-8"?>
<!-- Generator: Adobe Illustrator 24.0.2, SVG Export Plug-In . SVG Version: 6.00 Build 0)  -->
<svg version="1.1"
	 id="svg4475" inkscape:version="0.48.4 r9939" sodipodi:docname="10 Jupiter planet astrology bigest solar system gas giant.svg" xmlns:cc="http://creativecommons.org/ns#" xmlns:dc="http://purl.org/dc/elements/1.1/" xmlns:inkscape="http://www.inkscape.org/namespaces/inkscape" xmlns:rdf="http://www.w3.org/1999/02/22-rdf-syntax-ns#" xmlns:sodipodi="http://sodipodi.sourceforge.net/DTD/sodipodi-0.dtd" xmlns:svg="http://www.w3.org/2000/svg"
	 xmlns="http://www.w3.org/2000/svg" xmlns:xlink="http://www.w3.org/1999/xlink" x="0px" y="0px" viewBox="0 0 64 64"
	 style="enable-background:new 0 0 64 64;" xml:space="preserve">
<sodipodi:namedview  bordercolor="#666666" borderopacity="1.0" id="base" inkscape:bbox-nodes="true" inkscape:bbox-paths="true" inkscape:current-layer="g14600" inkscape:cx="14.21247" inkscape:cy="33.468383" inkscape:document-units="px" inkscape:pageopacity="0.0" inkscape:pageshadow="2" inkscape:snap-bbox="true" inkscape:snap-bbox-edge-midpoints="true" inkscape:snap-bbox-midpoints="true" inkscape:snap-global="true" inkscape:window-height="705" inkscape:window-maximized="1" inkscape:window-width="1366" inkscape:window-x="-8" inkscape:window-y="-8" inkscape:zoom="5.6" pagecolor="#ffffff" showgrid="true">
	<inkscape:grid  empspacing="5" enabled="true" id="grid4527" snapvisiblegridlinesonly="true" type="xygrid" visible="true">
		</inkscape:grid>
</sodipodi:namedview>
<g id="layer1" transform="translate(0,-1020.3622)" inkscape:groupmode="layer" inkscape:label="Layer 1">
	<g id="g10414" transform="translate(309.5948,-461.25192)">
		<g id="g15415" transform="translate(66.405195,515.25192)">
			<g id="g15417" transform="translate(-150,-49.999983)">
				<g id="g14600" transform="translate(-49.999995,-130.00002)">
					<path id="path10123" d="M-143.9,1146.4c-9.4,0-17.9,4.1-23.8,10.6c0,0-0.1,0-0.1,0c0,0,0,0-0.1,0.1c-0.3,0.1-0.5,0.3-0.6,0.6
						c0,0,0,0.1-0.1,0.1c-4.6,5.5-7.5,12.6-7.5,20.2c0,0,0,0.1,0,0.1c0,0,0,0,0,0.1c0,1,0.1,1.8,0.1,2.4c0,0.1,0,0.2,0,0.3
						c0,0,0.1,0.1,0.1,0.1c0.4,4.7,1.8,9,3.9,12.9c0,0,0,0,0.1,0.1c0,0.1,0.1,0.1,0.1,0.2c5.5,9.6,15.9,16.2,27.7,16.2
						c14.6,0,27-10,30.7-23.6c0,0,0,0,0-0.1c0.7-2.7,1.2-5.6,1.2-8.5c0-5.8-1.6-11.2-4.4-15.9c0,0,0,0,0-0.1c0,0,0,0,0-0.1
						c0-0.4-0.2-0.8-0.6-0.9c0,0,0,0-0.1-0.1C-122.8,1152.4-132.7,1146.4-143.9,1146.4z M-143.9,1148.4c7.9,0,15.1,3.2,20.5,8.2
						c-1.2,0.3-2.2,1.4-2.2,2.7v1.5v4.3c0,0.7-0.4,1.1-0.9,1.1c-0.7,0-1.1-0.4-1.1-1.1v-6.5c0-1.7-1.3-3.1-2.9-3.1s-2.9,1.4-2.9,3.1
						v4.6c0,0.4-0.4,0.9-1.1,0.9c-0.4,0-0.9-0.4-0.9-0.9v-2.8c0-1.6-1.3-2.9-2.9-2.9c-1.7,0-3,1.3-3,2.9v3.6v3.2
						c0,0.4-0.5,0.9-0.9,0.9c-0.4,0-0.9-0.4-0.9-0.9v-3.2v-6.7c0-1.6-1.3-2.9-3-2.9c-1.6,0-2.9,1.3-2.9,2.9v4.9
						c0,0.7-0.4,1.1-0.9,1.1c-0.7,0-1-0.4-1-1.1v-1.9c0-1.6-1.3-2.9-2.9-2.9c-1.6,0-2.9,1.3-2.9,2.9v5.8c0,0.4-0.3,0.9-1,0.9
						c-0.4,0-0.9-0.4-0.9-0.9v-8.9c0-1.6-1.3-2.9-2.9-2.9c-0.4,0-0.8,0.1-1.2,0.3C-157.4,1150.8-151,1148.4-143.9,1148.4z
						 M-164,1156c-0.2,0.4-0.4,0.9-0.4,1.4v3.4v1.9c0,0.4-0.4,0.9-0.9,0.9s-0.9-0.4-0.9-0.9v-1.9v-2.1c0-0.2,0-0.3-0.1-0.4
						C-165.5,1157.6-164.8,1156.8-164,1156z M-161.4,1156.6c0.4,0,0.9,0.4,0.9,0.9v8.9c0,1.6,1.3,2.9,2.9,2.9c1.7,0,3-1.3,3-2.9
						v-5.8c0-0.4,0.5-0.9,0.9-0.9c0.4,0,0.9,0.4,0.9,0.9v1.9c0,1.7,1.3,3.1,3,3.1c1.6,0,2.9-1.4,2.9-3.1v-4.9c0-0.4,0.5-0.9,0.9-0.9
						c0.7,0,1,0.4,1,0.9v6.7v3.2c0,1.6,1.3,2.9,2.9,2.9s2.9-1.3,2.9-2.9v-3.2v-3.6c0-0.4,0.3-0.9,1-0.9c0.4,0,0.9,0.4,0.9,0.9v2.8
						c0,1.6,1.3,2.9,2.9,2.9c1.7,0,3.1-1.3,3.1-2.9v-4.6c0-0.7,0.4-1.1,0.9-1.1s0.9,0.4,0.9,1.1v6.5c0,1.7,1.4,3.1,3.1,3.1
						c1.6,0,2.9-1.4,2.9-3.1v-4.3v-1.5c0-0.7,0.3-0.9,0.9-0.9c0.4,0,0.7,0.1,0.8,0.2c0.2,0.1,0.3,0.3,0.3,0.6v1.5
						c0,1.6,1.3,2.9,2.9,2.9c0.3,0,0.6-0.1,0.9-0.2c0.8,1.5,1.5,3,2.1,4.6c-1.2,0.4-2.1,1.5-2.1,2.8v7.7c0,0.4-0.4,0.9-0.9,0.9
						c-0.4,0-0.9-0.5-0.9-0.9v-3.9c0-1.7-1.4-3.1-3.1-3.1c-1.6,0-2.9,1.4-2.9,3.1v3.9v3.8c0,0.7-0.4,1-0.9,1c-0.7,0-1.1-0.3-1.1-1
						v-7.7c0-1.7-1.3-3.1-2.9-3.1s-2.9,1.4-2.9,3.1v5.2c0,0.4-0.4,0.9-1.1,0.9c-0.4,0-0.9-0.5-0.9-0.9v-1.6c0-1.6-1.3-2.9-2.9-2.9
						c-1.7,0-3,1.3-3,2.9v3.6v2.4c0,0.7-0.5,1.1-0.9,1.1c-0.4,0-0.9-0.4-0.9-1.1v-2.4v-5.5c0-1.6-1.3-2.9-3-2.9
						c-1.6,0-2.9,1.3-2.9,2.9v3.8c0,0.7-0.4,1-0.9,1c-0.7,0-1-0.3-1-1v-1.9c0-1.6-1.3-2.9-2.9-2.9s-2.9,1.3-2.9,2.9v4.2
						c0,0.4-0.3,0.9-1,0.9c-0.4,0-0.9-0.4-0.9-0.9v-7.8c0-1.6-1.3-2.9-2.9-2.9c-1.7,0-3,1.3-3,2.9v3.3v0.8c0,0.4-0.4,0.9-0.9,0.9
						c-0.4,0-0.9-0.4-0.9-0.9v-0.8v-2.9c0-1.7-1.3-3.1-3-3.1c-1.6,0-2.9,1.4-2.9,3.1v3.4c0,0.4-0.4,0.9-0.9,0.9h-1
						c0-0.4-0.1-0.9-0.1-1.4c0-0.1,0-0.1,0-0.2c0-6.5,2.2-12.5,5.8-17.4v0.2v1.9c0,1.6,1.3,2.9,2.9,2.9c1.6,0,2.9-1.3,2.9-2.9v-1.9
						v-3.4C-162.4,1157-162,1156.6-161.4,1156.6z M-119.7,1160.9c0.2,0.3,0.4,0.5,0.6,0.8C-119.4,1161.5-119.7,1161.2-119.7,1160.9z
						 M-115.3,1170c0,0,0.1,0,0.1,0c0.8,2.6,1.2,5.3,1.2,8.2c0,2.5-0.4,4.9-0.9,7.2c-1.6,0-3,1.4-3,3v2.2c0,0.4-0.4,0.9-0.9,0.9
						c-0.4,0-0.9-0.4-0.9-0.9v-2.2c0-1.6-1.4-2.9-3.1-2.9c-1.6,0-2.9,1.3-2.9,2.9v7.7v2.6c0,0.7-0.4,1.1-0.9,1.1
						c-0.7,0-1.1-0.4-1.1-1.1v-6.4c0-1.6-1.3-2.9-2.9-2.9s-2.9,1.3-2.9,2.9v4.1c0,0.7-0.4,1-1.1,1c-0.4,0-0.9-0.3-0.9-1v-1.6
						c0-1.6-1.3-2.9-2.9-2.9c-1.7,0-3,1.3-3,2.9v4.7v2.6c0,0.4-0.5,0.9-0.9,0.9c-0.4,0-0.9-0.5-0.9-0.9v-2.6v-7.1
						c0-1.6-1.3-2.9-3-2.9c-1.6,0-2.9,1.3-2.9,2.9v5.4c0,0.7-0.4,1-0.9,1c-0.7,0-1-0.3-1-1v-3.5c0-1.6-1.3-2.9-2.9-2.9
						c-1.6,0-2.9,1.3-2.9,2.9v5.9c0,0.4-0.3,0.9-1,0.9c-0.4,0-0.9-0.4-0.9-0.9v-9.9c0-1.7-1.3-3-2.9-3c-1.7,0-3,1.3-3,3v4.5v0.9
						c0,0.4-0.4,0.9-0.9,0.9c-0.4,0-0.9-0.4-0.9-0.9v-0.9v-0.6c0-1.7-1.3-3.1-3-3.1c-0.6,0-1.2,0.2-1.6,0.6c-1.6-3.1-2.6-6.5-3-10.1
						h0.9c1.6,0,2.9-1.3,2.9-2.9v-3.4c0-0.7,0.4-1.1,0.9-1.1c0.7,0,1,0.4,1,1.1v2.9v0.8c0,1.6,1.3,2.9,2.9,2.9
						c1.6,0,2.9-1.3,2.9-2.9v-0.8v-3.3c0-0.4,0.3-0.9,1-0.9c0.4,0,0.9,0.5,0.9,0.9v7.8c0,1.6,1.3,2.9,2.9,2.9c1.7,0,3-1.3,3-2.9
						v-4.2c0-0.4,0.5-0.9,0.9-0.9c0.4,0,0.9,0.4,0.9,0.9v1.9c0,1.7,1.3,3,3,3c1.6,0,2.9-1.3,2.9-3v-3.8c0-0.4,0.5-0.9,0.9-0.9
						c0.7,0,1,0.5,1,0.9v5.5v2.4c0,1.7,1.3,3.1,2.9,3.1c1.6,0,2.9-1.4,2.9-3.1v-2.4v-3.6c0-0.4,0.3-0.9,1-0.9c0.4,0,0.9,0.4,0.9,0.9
						v1.6c0,1.6,1.3,2.9,2.9,2.9c1.7,0,3.1-1.3,3.1-2.9v-5.2c0-0.7,0.4-1.1,0.9-1.1c0.4,0,0.9,0.4,0.9,1.1v7.7c0,1.7,1.4,3,3.1,3
						c1.6,0,2.9-1.3,2.9-3v-3.8v-3.9c0-0.7,0.4-1.1,0.9-1.1c0.7,0,1.1,0.4,1.1,1.1v3.9c0,1.6,1.3,2.9,2.9,2.9s2.9-1.3,2.9-2.9v-7.7
						C-115.9,1170.5-115.7,1170.2-115.3,1170z M-122.7,1187.5c0.7,0,1.1,0.4,1.1,0.9v2.2c0,1.6,1.3,2.9,2.9,2.9
						c0.3,0,0.5-0.1,0.7-0.1c-5.2,9-14.9,15-25.9,15c-8.9,0-16.9-3.9-22.4-10.1c0.3,0.1,0.7,0.3,1.1,0.3c1.6,0,2.9-1.3,2.9-2.9v-0.9
						v-4.5c0-0.7,0.3-1,1-1c0.4,0,0.9,0.3,0.9,1v9.9c0,1.6,1.3,2.9,2.9,2.9c1.7,0,3-1.3,3-2.9v-5.9c0-0.4,0.5-0.9,0.9-0.9
						c0.4,0,0.9,0.4,0.9,0.9v3.5c0,1.7,1.3,3,3,3c1.6,0,2.9-1.3,2.9-3v-5.4c0-0.4,0.5-0.9,0.9-0.9c0.7,0,1,0.4,1,0.9v7.1v2.6
						c0,1.6,1.3,2.9,2.9,2.9c1.6,0,2.9-1.3,2.9-2.9v-2.6v-4.7c0-0.4,0.3-0.9,1-0.9c0.4,0,0.9,0.4,0.9,0.9v1.6c0,1.7,1.3,3,2.9,3
						c1.7,0,3.1-1.3,3.1-3v-4.1c0-0.4,0.4-0.9,0.9-0.9c0.4,0,0.9,0.4,0.9,0.9v6.4c0,1.7,1.4,3.1,3.1,3.1c1.6,0,2.9-1.4,2.9-3.1v-2.6
						v-7.7C-123.6,1188-123.2,1187.5-122.7,1187.5z M-115.6,1187.6c-0.1,0.4-0.2,0.8-0.4,1.1v-0.3
						C-115.9,1188.1-115.8,1187.8-115.6,1187.6z M-169.2,1193.2c0.7,0,1,0.4,1,1.1v0.6v0.9c0,0.1,0,0.2,0.1,0.4
						c-0.6-0.8-1.2-1.6-1.7-2.4C-169.6,1193.4-169.3,1193.2-169.2,1193.2z"/>
				</g>
			</g>
		</g>
	</g>
</g>
</svg>
