<?xml version="1.0" encoding="utf-8"?>
<!-- Generator: Adobe Illustrator 24.0.2, SVG Export Plug-In . SVG Version: 6.00 Build 0)  -->
<svg version="1.1"
	 id="svg4475" inkscape:version="0.48.4 r9939" sodipodi:docname="5 mars planet astrology solar system second smallestterrestrial.svg" xmlns:cc="http://creativecommons.org/ns#" xmlns:dc="http://purl.org/dc/elements/1.1/" xmlns:inkscape="http://www.inkscape.org/namespaces/inkscape" xmlns:rdf="http://www.w3.org/1999/02/22-rdf-syntax-ns#" xmlns:sodipodi="http://sodipodi.sourceforge.net/DTD/sodipodi-0.dtd" xmlns:svg="http://www.w3.org/2000/svg"
	 xmlns="http://www.w3.org/2000/svg" xmlns:xlink="http://www.w3.org/1999/xlink" x="0px" y="0px" viewBox="0 0 64 64"
	 style="enable-background:new 0 0 64 64;" xml:space="preserve">
<sodipodi:namedview  bordercolor="#666666" borderopacity="1.0" id="base" inkscape:bbox-nodes="true" inkscape:bbox-paths="true" inkscape:current-layer="g14600" inkscape:cx="-14.345127" inkscape:cy="27.364056" inkscape:document-units="px" inkscape:pageopacity="0.0" inkscape:pageshadow="2" inkscape:snap-bbox="true" inkscape:snap-bbox-edge-midpoints="true" inkscape:snap-bbox-midpoints="true" inkscape:snap-global="true" inkscape:window-height="705" inkscape:window-maximized="1" inkscape:window-width="1366" inkscape:window-x="-8" inkscape:window-y="-8" inkscape:zoom="7.9195959" pagecolor="#ffffff" showgrid="true">
	<inkscape:grid  empspacing="5" enabled="true" id="grid4527" snapvisiblegridlinesonly="true" type="xygrid" visible="true">
		</inkscape:grid>
</sodipodi:namedview>
<g id="layer1" transform="translate(0,-1020.3622)" inkscape:groupmode="layer" inkscape:label="Layer 1">
	<g id="g10414" transform="translate(309.5948,-461.25192)">
		<g id="g15415" transform="translate(66.405195,515.25192)">
			<g id="g15417" transform="translate(-150,-49.999983)">
				<g id="g14600" transform="translate(-49.999995,-130.00002)">
					<path id="path10103" inkscape:connector-curvature="0" d="M-143.9,1146.3c-12.3,0-22.9,7-28.2,17.1c0,0.1-0.1,0.2-0.1,0.2
						c-0.4,0.8-0.8,1.6-1.2,2.5c-0.2,0.6-0.4,1.1-0.6,1.7c-0.1,0.4-0.3,0.7-0.4,1.1c-0.1,0.3-0.2,0.6-0.2,0.9
						c-0.8,2.7-1.2,5.6-1.2,8.6c0,0.1,0,0.2,0,0.3c-0.3,0.4-0.2,1,0.1,1.3c0.1,1.1,0.2,2.2,0.3,3.2c0,0.1,0,0.1,0,0.2
						c1.7,10.5,8.4,19.3,17.7,23.7c0.1,0.1,0.3,0.2,0.4,0.2c4.1,1.9,8.6,2.9,13.4,2.9c4.8,0,9.3-1.1,13.4-2.9c0,0,0,0,0.1-0.1
						c10.9-5.1,18.5-16.1,18.5-28.9c0-0.9-0.1-1.7-0.1-2.6c0-0.2,0-0.4-0.1-0.6c0,0,0,0,0-0.1c-0.4-4-1.6-7.7-3.3-11.1
						c0,0,0,0,0-0.1c0,0,0,0,0-0.1c0-0.3-0.2-0.5-0.4-0.7c0,0,0,0,0-0.1c0,0,0,0-0.1-0.1c-0.7-1.2-1.4-2.4-2.2-3.5
						c-0.1-0.1-0.2-0.3-0.3-0.4c-0.9-1.2-1.9-2.3-2.9-3.4c-0.1-0.4-0.4-0.7-0.7-0.7c0,0-0.1,0-0.1,0c-1.4-1.3-2.9-2.5-4.5-3.5
						c-0.1-0.1-0.2-0.1-0.2-0.2c0,0,0,0-0.1-0.1c-2.6-1.7-5.6-3-8.7-3.8c0,0,0,0-0.1-0.1c0,0,0,0-0.1,0c-0.1,0-0.1,0-0.2-0.1
						C-138.5,1146.8-141.1,1146.4-143.9,1146.3L-143.9,1146.3z M-143.9,1148.3c0.5,0,1,0.1,1.6,0.1c-0.4,0.5-0.7,1.1-0.7,1.7
						c0,1.7,1.4,3.1,3.1,3.1h1.9c0.4,0,0.9,0.4,0.9,0.9c0,0.4-0.4,0.9-0.9,0.9h-3.9c-1.6,0-2.9,1.4-2.9,3.1c0,1.6,1.3,2.9,2.9,2.9
						h22.5c0.4,0.6,0.9,1.3,1.2,1.9h-6.2c-1.6,0-2.9,1.3-2.9,2.9c0,1.6,1.3,2.9,2.9,2.9h3.9c0.4,0,0.9,0.3,0.9,1
						c0,0.4-0.5,0.9-0.9,0.9h-7.7c-1.7,0-3,1.3-3,2.9c0,1.7,1.3,3,3,3h14.4c0,0.6,0.1,1.3,0.1,1.9c0,5.7-1.6,10.9-4.3,15.4
						c0,0,0,0-0.1,0h-15.9c-1.7,0-3.1,1.3-3.1,2.9c0,1.7,1.4,3,3.1,3h3.8c0.7,0,1,0.5,1,0.9c0,0.4-0.3,0.9-1,0.9h-2.9
						c-1.6,0-2.9,1.4-2.9,3.1c0,1,0.4,1.9,1.2,2.4c-2.8,0.9-5.8,1.3-8.9,1.3c-2.9,0-5.7-0.4-8.4-1.2c1-0.5,1.7-1.4,1.7-2.6
						c0-1.7-1.4-3.1-3.1-3.1h-9.4c-0.7-0.6-1.4-1.2-2.1-1.8h7.6c1.6,0,2.9-1.3,2.9-3c0-1.6-1.3-2.9-2.9-2.9h-12.1c0,0,0,0-0.1,0
						c-0.4-0.6-0.7-1.3-1.1-1.9h22.8c1.7,0,3.1-1.3,3.1-2.9c0-1.6-1.4-2.9-3.1-2.9h-1.9c-0.4,0-0.9-0.3-0.9-1c0-0.4,0.4-0.9,0.9-0.9
						h9.7c1.6,0,2.9-1.3,2.9-2.9c0-1.7-1.3-3-2.9-3h-33.9c0-1.6,0.2-3.2,0.4-4.7h12.1c1.6,0,2.9-1.4,2.9-3.1c0-1.6-1.3-2.9-2.9-2.9
						h-1.9c-0.7,0-1-0.4-1-0.9c0-0.7,0.3-1.1,1-1.1h9.6c1.7,0,3.1-1.3,3.1-2.9c0-1.6-1.4-2.9-3.1-2.9h-13.9
						C-162.1,1152.9-153.5,1148.3-143.9,1148.3L-143.9,1148.3z M-140,1149.3h1.6h2c2.4,0.6,4.7,1.5,6.9,2.7c-0.6,0.5-1,1.3-1,2.1
						c0,1.6,1.3,2.9,2.9,2.9h4.7c0.6,0.6,1.2,1.3,1.8,1.9h-21c-0.4,0-0.9-0.4-0.9-0.9c0-0.7,0.4-1.1,0.9-1.1h3.9
						c1.6,0,2.9-1.3,2.9-2.9c0-1.6-1.3-2.9-2.9-2.9h-1.9c-0.7,0-1.1-0.4-1.1-1.1C-141,1149.8-140.6,1149.3-140,1149.3z
						 M-127.6,1153.3C-127.6,1153.3-127.5,1153.3-127.6,1153.3c0.9,0.5,1.7,1.1,2.5,1.7h-2.5c-0.4,0-0.9-0.4-0.9-0.9
						C-128.5,1153.7-128,1153.3-127.6,1153.3L-127.6,1153.3z M-168.9,1162h15.3c0.7,0,1.1,0.4,1.1,0.9c0,0.4-0.4,0.9-1.1,0.9h-9.6
						c-1.7,0-3,1.4-3,3.1c0,1.6,1.3,2.9,3,2.9h1.9c0.4,0,0.9,0.4,0.9,0.9c0,0.7-0.4,1.1-0.9,1.1H-173c0.4-1.7,0.9-3.3,1.5-4.9
						c0,0,0-0.1,0.1-0.1c0.3-0.8,0.7-1.6,1.1-2.4C-169.9,1163.5-169.4,1162.8-168.9,1162L-168.9,1162z M-132.3,1162.9
						c-1.6,0-2.9,1.3-2.9,2.9c0,1.6,1.3,2.9,2.9,2.9c1.6,0,2.9-1.3,2.9-2.9C-129.3,1164.2-130.7,1162.9-132.3,1162.9z
						 M-132.3,1164.9c0.4,0,0.9,0.4,0.9,0.9c0,0.4-0.5,0.9-0.9,0.9c-0.4,0-0.9-0.5-0.9-0.9C-133.1,1165.3-132.7,1164.9-132.3,1164.9
						z M-124.5,1164.9h7.4c1.5,3,2.6,6.2,3,9.6h-14.2c-0.7,0-1-0.3-1-1c0-0.4,0.3-0.9,1-0.9h7.7c1.6,0,2.9-1.3,2.9-2.9
						c0-1.7-1.3-3-2.9-3h-3.9c-0.4,0-0.9-0.5-0.9-0.9C-125.5,1165.3-125,1164.9-124.5,1164.9z M-173.8,1180.3h33.8
						c0.4,0,0.9,0.3,0.9,1c0,0.4-0.4,0.9-0.9,0.9h-9.7c-1.6,0-2.9,1.3-2.9,2.9c0,1.7,1.3,3,2.9,3h1.9c0.7,0,1.1,0.5,1.1,0.9
						c0,0.4-0.4,0.9-1.1,0.9h-23.7c-0.2-0.6-0.5-1.2-0.7-1.8h1.3c1.7,0,3.1-1.3,3.1-3c0-1.6-1.4-2.9-3.1-2.9h-2.7
						C-173.7,1181.6-173.8,1181-173.8,1180.3L-173.8,1180.3z M-132.3,1182.3c-1.6,0-2.9,1.3-2.9,2.9c0,1.7,1.3,3,2.9,3
						c1.6,0,2.9-1.3,2.9-3C-129.3,1183.5-130.7,1182.3-132.3,1182.3z M-173.3,1184.3h2.4c0.7,0,1.1,0.4,1.1,0.9c0,0.7-0.4,1-1.1,1
						h-1.9C-173,1185.5-173.2,1184.9-173.3,1184.3z M-132.3,1184.3c0.4,0,0.9,0.4,0.9,0.9c0,0.7-0.5,1-0.9,1c-0.4,0-0.9-0.3-0.9-1
						C-133.1,1184.7-132.7,1184.3-132.3,1184.3z M-140,1186.1c-1.7,0-3.1,1.3-3.1,2.9c0,1.6,1.4,2.9,3.1,2.9c1.6,0,2.9-1.3,2.9-2.9
						C-137.1,1187.5-138.4,1186.1-140,1186.1z M-140,1188.1c0.4,0,0.9,0.5,0.9,0.9c0,0.4-0.4,0.9-0.9,0.9c-0.7,0-1.1-0.4-1.1-0.9
						C-141,1188.6-140.6,1188.1-140,1188.1z M-168.3,1195.9h10.9c0.4,0,0.9,0.4,0.9,0.9c0,0.7-0.5,1-0.9,1h-9.4
						C-167.4,1197.1-167.8,1196.5-168.3,1195.9z M-134.1,1195.9h14.7c-2.9,4.1-6.9,7.4-11.6,9.6h-2.2c-0.4,0-0.9-0.4-0.9-0.9
						c0-0.7,0.4-1.1,0.9-1.1h2.9c1.7,0,3-1.3,3-2.9c0-1.6-1.3-2.9-3-2.9h-3.8c-0.7,0-1.1-0.3-1.1-1
						C-135.2,1196.3-134.8,1195.9-134.1,1195.9z M-160.2,1203.6h6.6c0.7,0,1.1,0.4,1.1,1.1c0,0.4-0.4,0.9-1.1,0.9h-3.1
						C-158,1204.9-159.1,1204.3-160.2,1203.6z"/>
				</g>
			</g>
		</g>
	</g>
</g>
</svg>
