<?xml version="1.0" encoding="utf-8"?>
<!-- Generator: Adobe Illustrator 24.0.2, SVG Export Plug-In . SVG Version: 6.00 Build 0)  -->
<svg version="1.1"
	 id="svg4475" inkscape:version="0.48.4 r9939" sodipodi:docname="1,mercury,planet,astrology,element,splar,system,nearest,to,sun.svg" xmlns:cc="http://creativecommons.org/ns#" xmlns:dc="http://purl.org/dc/elements/1.1/" xmlns:inkscape="http://www.inkscape.org/namespaces/inkscape" xmlns:rdf="http://www.w3.org/1999/02/22-rdf-syntax-ns#" xmlns:sodipodi="http://sodipodi.sourceforge.net/DTD/sodipodi-0.dtd" xmlns:svg="http://www.w3.org/2000/svg"
	 xmlns="http://www.w3.org/2000/svg" xmlns:xlink="http://www.w3.org/1999/xlink" x="0px" y="0px" viewBox="0 0 64 64"
	 style="enable-background:new 0 0 64 64;" xml:space="preserve">
<sodipodi:namedview  bordercolor="#666666" borderopacity="1.0" id="base" inkscape:bbox-nodes="true" inkscape:bbox-paths="true" inkscape:current-layer="g14600" inkscape:cx="-9.7363055" inkscape:cy="27.364056" inkscape:document-units="px" inkscape:pageopacity="0.0" inkscape:pageshadow="2" inkscape:snap-bbox="true" inkscape:snap-bbox-edge-midpoints="true" inkscape:snap-bbox-midpoints="true" inkscape:snap-global="true" inkscape:window-height="705" inkscape:window-maximized="1" inkscape:window-width="1366" inkscape:window-x="-8" inkscape:window-y="-8" inkscape:zoom="7.9195959" pagecolor="#ffffff" showgrid="true">
	<inkscape:grid  empspacing="5" enabled="true" id="grid4527" snapvisiblegridlinesonly="true" type="xygrid" visible="true">
		</inkscape:grid>
</sodipodi:namedview>
<g id="layer1" transform="translate(0,-1020.3622)" inkscape:groupmode="layer" inkscape:label="Layer 1">
	<g id="g10414" transform="translate(309.5948,-461.25192)">
		<g id="g15415" transform="translate(66.405195,515.25192)">
			<g id="g15417" transform="translate(-150,-49.999983)">
				<g id="g14600" transform="translate(-49.999995,-130.00002)">
					<path id="path10039" inkscape:connector-curvature="0" d="M-144.1,1146.4c-7.9,0-15.1,3-20.8,7.9c-0.1,0-0.1,0.1-0.2,0.1
						c-0.1,0.1-0.2,0.2-0.3,0.3c-6.6,5.9-10.8,14.3-10.8,23.8c0,17.7,14.4,31.9,31.9,31.9c2.4,0,4.7-0.3,6.9-0.8
						c0.4,0.1,0.9,0,1.1-0.3c13.8-3.6,24.1-16,24.1-30.9C-112,1160.7-126.4,1146.4-144.1,1146.4L-144.1,1146.4z M-144.1,1148.4
						c0.4,0,0.7,0,1.1,0.1c-0.1,0.3-0.1,0.6-0.1,0.9c0,1.6,1.3,2.9,2.9,2.9c0.4,0,0.9,0.3,0.9,1c0,0.4-0.4,0.9-0.9,0.9h-5.6
						c-1.7,0-3,1.3-3,2.9c0,1.7,1.3,3,3,3h7.7h7.6c0.7,0,1.1,0.4,1.1,0.9c0,0.4-0.4,0.9-1.1,0.9h-3.8c-1.6,0-2.9,1.4-2.9,3.1
						c0,1.6,1.3,2.9,2.9,2.9h8.4h3.2c0.4,0,0.9,0.4,0.9,0.9c0,0.7-0.4,1.1-0.9,1.1h-21.4c-1.7,0-3,1.3-3,2.9c0,1.6,1.3,2.9,3,2.9
						h8.6h3.2c0.4,0,0.9,0.4,0.9,1.1c0,0.4-0.5,0.9-0.9,0.9h-1.1h-1.1c-1.6,0-2.9,1.3-2.9,2.9c0,1.7,1.3,3.1,2.9,3.1h6
						c0.4,0,0.9,0.4,0.9,0.9c0,0.4-0.4,0.9-0.9,0.9h-13.7c-1.6,0-2.9,1.4-2.9,3.1c0,1.6,1.3,2.9,2.9,2.9h14.3h3.2
						c0.4,0,0.9,0.4,0.9,0.9c0,0.7-0.4,1.1-0.9,1.1h-3.2h-10.3c-1.6,0-2.9,1.3-2.9,2.9c0,1.6,1.3,2.9,2.9,2.9h5.7c0.7,0,1,0.4,1,1.1
						c0,0.4-0.3,0.9-1,0.9h-11.6c-1.6,0-2.9,1.3-2.9,2.9c0,1.7,1.3,3,2.9,3h2.4h3.4c0.4,0,0.8,0.4,0.8,0.9c0,0.1-0.1,0.1-0.1,0.2
						c-2.1,0.5-4.3,0.7-6.5,0.7c-3.9,0-7.6-0.7-11-2.1c1.1-0.4,1.8-1.6,1.8-2.8c0-1.6-1.3-2.9-2.9-2.9h-2.1c-0.7,0-1-0.4-1-0.9
						c0-0.7,0.3-1.1,1-1.1h3.9c1.6,0,2.9-1.3,2.9-2.9c0-1.6-1.3-2.9-2.9-2.9h-9.9h-1.8c-0.4,0-0.9-0.4-0.9-1.1
						c0-0.4,0.4-0.9,0.9-0.9h3.9c1.6,0,2.9-1.3,2.9-2.9c0-1.7-1.3-3.1-2.9-3.1h-3.3c-0.4,0-0.9-0.4-0.9-0.9c0-0.4,0.5-0.9,0.9-0.9
						h7.3c1.6,0,2.9-1.4,2.9-3.1c0-1.6-1.3-2.9-2.9-2.9h-2.6h-9.1c-0.4,0-0.9-0.4-0.9-0.9c0-0.7,0.5-1.1,0.9-1.1h4.3h4.8
						c1.7,0,3.1-1.3,3.1-2.9c0-1.6-1.4-2.9-3.1-2.9h-4.8c-0.4,0-0.9-0.4-0.9-1.1c0-0.4,0.4-0.9,0.9-0.9h6.1c1.6,0,2.9-1.3,2.9-2.9
						c0-1.7-1.3-3.1-2.9-3.1h-4.1c-0.4,0-0.9-0.4-0.9-0.9c0-0.4,0.4-0.9,0.9-0.9h0.7c1.6,0,2.9-1.3,2.9-3c0-1.3-0.9-2.4-2.1-2.8
						C-156.8,1150.6-150.7,1148.4-144.1,1148.4L-144.1,1148.4z M-140.7,1148.6c15,1.7,26.7,14.4,26.7,29.8
						c0,13.6-9.1,25.1-21.6,28.8c-0.2-1.4-1.2-2.6-2.7-2.6h-3.4h-2.4c-0.4,0-0.9-0.3-0.9-1c0-0.4,0.4-0.9,0.9-0.9h11.6
						c1.7,0,3-1.3,3-2.9c0-1.7-1.3-3.1-3-3.1h-5.7c-0.4,0-0.9-0.4-0.9-0.9c0-0.4,0.4-0.9,0.9-0.9h10.3h3.2c1.6,0,2.9-1.4,2.9-3.1
						c0-1.6-1.3-2.9-2.9-2.9h-3.2h-14.3c-0.4,0-0.9-0.4-0.9-0.9c0-0.7,0.4-1.1,0.9-1.1h13.7c1.6,0,2.9-1.3,2.9-2.9
						c0-1.6-1.3-2.9-2.9-2.9h-6c-0.4,0-0.9-0.4-0.9-1.1c0-0.4,0.4-0.9,0.9-0.9h1.1h1.1c1.6,0,2.9-1.3,2.9-2.9c0-1.7-1.3-3.1-2.9-3.1
						h-3.2h-8.6c-0.7,0-1-0.4-1-0.9c0-0.4,0.3-0.9,1-0.9h21.4c1.6,0,2.9-1.4,2.9-3.1c0-1.6-1.3-2.9-2.9-2.9h-3.2h-8.4
						c-0.4,0-0.9-0.4-0.9-0.9c0-0.7,0.4-1.1,0.9-1.1h3.8c1.7,0,3.1-1.3,3.1-2.9s-1.4-2.9-3.1-2.9h-7.6h-7.7c-0.7,0-1-0.3-1-1
						c0-0.4,0.3-0.9,1-0.9h5.6c1.6,0,2.9-1.3,2.9-2.9c0-1.7-1.3-3-2.9-3c-0.4,0-0.9-0.5-0.9-0.9
						C-141.1,1148.8-140.9,1148.6-140.7,1148.6z M-164.1,1156.2h1.4c0.4,0,0.9,0.5,0.9,0.9c0,0.7-0.5,1-0.9,1h-0.7
						c-1.6,0-2.9,1.3-2.9,2.9s1.3,2.9,2.9,2.9h4.1c0.4,0,0.9,0.4,0.9,1.1c0,0.4-0.4,0.9-0.9,0.9h-6.1c-1.6,0-2.9,1.3-2.9,2.9
						c0,1.7,1.3,3.1,2.9,3.1h4.8c0.7,0,1.1,0.4,1.1,0.9c0,0.4-0.4,0.9-1.1,0.9h-4.8h-4.3c-1.6,0-2.9,1.4-2.9,3.1
						c0,1.6,1.3,2.9,2.9,2.9h9.1h2.6c0.4,0,0.9,0.4,0.9,0.9c0,0.7-0.4,1.1-0.9,1.1h-7.3c-1.6,0-2.9,1.3-2.9,2.9
						c0,1.6,1.3,2.9,2.9,2.9h3.3c0.4,0,0.9,0.4,0.9,1.1c0,0.4-0.4,0.9-0.9,0.9h-3.9c-1.6,0-2.9,1.3-2.9,2.9c0,1.7,1.3,3.1,2.9,3.1
						h1.8h9.9c0.4,0,0.9,0.4,0.9,0.9c0,0.4-0.4,0.9-0.9,0.9h-3.9c-1.7,0-3,1.4-3,3.1c0,1.6,1.3,2.9,3,2.9h2.1c0.4,0,0.9,0.4,0.9,0.9
						c0,0.5-0.3,0.9-0.8,0.9h-2.9c0,0,0,0-0.1,0c-9-5.2-15-14.9-15-26C-174,1169.6-170.1,1161.7-164.1,1156.2L-164.1,1156.2z"/>
				</g>
			</g>
		</g>
	</g>
</g>
</svg>
