<?xml version="1.0" encoding="utf-8"?>
<!-- Generator: Adobe Illustrator 24.0.2, SVG Export Plug-In . SVG Version: 6.00 Build 0)  -->
<svg version="1.1"
	 id="svg4475" inkscape:version="0.48.4 r9939" sodipodi:docname="9 moon planet astrology solar system satelite natural.svg" xmlns:cc="http://creativecommons.org/ns#" xmlns:dc="http://purl.org/dc/elements/1.1/" xmlns:inkscape="http://www.inkscape.org/namespaces/inkscape" xmlns:rdf="http://www.w3.org/1999/02/22-rdf-syntax-ns#" xmlns:sodipodi="http://sodipodi.sourceforge.net/DTD/sodipodi-0.dtd" xmlns:svg="http://www.w3.org/2000/svg"
	 xmlns="http://www.w3.org/2000/svg" xmlns:xlink="http://www.w3.org/1999/xlink" x="0px" y="0px" viewBox="0 0 64 64"
	 style="enable-background:new 0 0 64 64;" xml:space="preserve">
<sodipodi:namedview  bordercolor="#666666" borderopacity="1.0" id="base" inkscape:bbox-nodes="true" inkscape:bbox-paths="true" inkscape:current-layer="g14600" inkscape:cx="5.3528482" inkscape:cy="27.364056" inkscape:document-units="px" inkscape:pageopacity="0.0" inkscape:pageshadow="2" inkscape:snap-bbox="true" inkscape:snap-bbox-edge-midpoints="true" inkscape:snap-bbox-midpoints="true" inkscape:snap-global="true" inkscape:window-height="705" inkscape:window-maximized="1" inkscape:window-width="1366" inkscape:window-x="-8" inkscape:window-y="-8" inkscape:zoom="7.9195959" pagecolor="#ffffff" showgrid="true">
	<inkscape:grid  empspacing="5" enabled="true" id="grid4527" snapvisiblegridlinesonly="true" type="xygrid" visible="true">
		</inkscape:grid>
</sodipodi:namedview>
<g id="layer1" transform="translate(0,-1020.3622)" inkscape:groupmode="layer" inkscape:label="Layer 1">
	<g id="g10414" transform="translate(309.5948,-461.25192)">
		<g id="g15415" transform="translate(66.405195,515.25192)">
			<g id="g15417" transform="translate(-150,-49.999983)">
				<g id="g14600" transform="translate(-49.999995,-130.00002)">
					<path id="path10053" d="M-143.9,1146.4c-17.7,0-32.1,14.3-32.1,31.9c0,17.7,14.4,31.9,32.1,31.9c17.5,0,31.9-14.2,31.9-31.9
						C-112,1160.7-126.4,1146.4-143.9,1146.4z M-143.9,1148.4c16.4,0,29.9,13.3,29.9,29.9c0,16.6-13.5,29.9-29.9,29.9
						c-16.6,0-30.1-13.3-30.1-29.9C-174,1161.7-160.5,1148.4-143.9,1148.4z M-150.8,1152.2c-2.1,0-3.9,1.7-3.9,3.9
						c0,2.1,1.7,3.9,3.9,3.9c2.1,0,3.9-1.8,3.9-3.9C-146.9,1153.9-148.6,1152.2-150.8,1152.2z M-131.9,1152.2
						c-0.1,0-0.2,0.1-0.3,0.2c-0.1,0.1-0.2,0.1-0.3,0.3c-0.1,0.1-0.2,0.1-0.3,0.1c-0.3,0.3-0.6,0.8-0.6,1.3c0,0.7,0.4,1.4,0.9,1.8
						c0,0,0.1,0.1,0.1,0.1c0,0,0,0,0.1,0c0.2,0.1,0.4,0.2,0.6,0.1c0,0,0.1,0,0.1,0c0.1,0,0.1-0.1,0.2-0.1c0.3,0,0.5-0.1,0.7-0.2
						c0.2-0.1,0.4-0.3,0.6-0.4c0.1-0.1,0.2-0.2,0.3-0.3c0-0.1,0.1-0.1,0.1-0.2c0.1-0.2,0.2-0.5,0.2-0.8c0-0.2-0.1-0.4-0.1-0.6
						c-0.1-0.2-0.2-0.4-0.4-0.5c-0.1-0.2-0.3-0.3-0.5-0.4c-0.2-0.1-0.4-0.2-0.6-0.3c0,0,0,0-0.1-0.1c0,0-0.1,0-0.1-0.1v0.1
						c-0.1,0-0.1-0.1-0.2-0.1h-0.1C-131.7,1152.2-131.8,1152.2-131.9,1152.2z M-150.8,1154.2c1.1,0,1.9,0.8,1.9,1.9
						c0,1.1-0.8,1.9-1.9,1.9c-1.1,0-1.9-0.9-1.9-1.9C-152.6,1155-151.8,1154.2-150.8,1154.2z M-165.3,1162.8c-1.1,0-2.1,1-2.1,2.1
						c0,1.1,1,1.8,2.1,1.8c1.1,0,2-0.7,2-1.8C-163.3,1163.7-164.2,1162.8-165.3,1162.8z M-124.6,1163.8c-0.6,0-1,0.4-1,1
						c0,0.4,0.4,0.9,1,0.9c0.6,0,1-0.4,1-0.9C-123.6,1164.2-124,1163.8-124.6,1163.8z M-130.4,1165.7c-1.6,0-2.9,1.3-2.9,2.9
						c0,1.7,1.3,3,2.9,3c1.6,0,2.9-1.3,2.9-3C-127.6,1167-128.8,1165.7-130.4,1165.7z M-153.6,1167.6c-1.6,0-2.9,1.3-2.9,3
						c0,1.6,1.3,2.9,2.9,2.9c1.6,0,2.9-1.3,2.9-2.9C-150.8,1168.9-152,1167.6-153.6,1167.6z M-130.4,1167.7c0.4,0,0.9,0.4,0.9,0.9
						c0,0.7-0.4,1-0.9,1c-0.4,0-0.9-0.3-0.9-1C-131.3,1168.1-130.9,1167.7-130.4,1167.7z M-153.6,1169.6c0.4,0,0.9,0.3,0.9,1
						c0,0.4-0.4,0.9-0.9,0.9c-0.4,0-0.9-0.5-0.9-0.9C-154.6,1169.9-154.1,1169.6-153.6,1169.6z M-169.2,1171.5
						c-1.6,0-2.9,1.3-2.9,2.9c0,1.7,1.3,3,2.9,3c1.7,0,3-1.3,3-3C-166.2,1172.8-167.5,1171.5-169.2,1171.5z M-143.9,1173.4
						c-2.7,0-4.9,2.2-4.9,4.9s2.2,4.9,4.9,4.9c2.6,0,4.8-2.2,4.8-4.9S-141.3,1173.4-143.9,1173.4z M-118.8,1173.4c-1.1,0-2,0.9-2,2
						c0,1.1,0.9,2,2,2c1.1,0,2-0.9,2-2C-116.8,1174.3-117.7,1173.4-118.8,1173.4z M-169.2,1173.5c0.7,0,1,0.4,1,0.9c0,0.7-0.3,1-1,1
						c-0.4,0-0.9-0.3-0.9-1C-170.1,1173.9-169.6,1173.5-169.2,1173.5z M-143.9,1175.4c1.5,0,2.8,1.3,2.8,2.9s-1.4,2.9-2.8,2.9
						c-1.6,0-2.9-1.2-2.9-2.9S-145.6,1175.4-143.9,1175.4z M-123.6,1177.3c-2.1,0-3.9,1.7-3.9,3.9c0,2.1,1.7,3.9,3.9,3.9
						c2.1,0,3.9-1.8,3.9-3.9C-119.7,1179.1-121.5,1177.3-123.6,1177.3z M-123.6,1179.3c1.1,0,1.9,0.8,1.9,1.9c0,1.1-0.9,1.9-1.9,1.9
						c-1.1,0-1.9-0.9-1.9-1.9C-125.5,1180.2-124.7,1179.3-123.6,1179.3z M-165.3,1188.9c-1.6,0-2.9,1.3-2.9,2.9c0,1.7,1.3,3,2.9,3
						c1.6,0,2.9-1.3,2.9-3C-162.4,1190.2-163.7,1188.9-165.3,1188.9z M-128.6,1190.8c-1.6,0-2.9,1.3-2.9,3c0,1.6,1.3,2.9,2.9,2.9
						c1.7,0,3.1-1.3,3.1-2.9C-125.5,1192.2-126.9,1190.8-128.6,1190.8z M-165.3,1190.9c0.4,0,0.9,0.5,0.9,0.9c0,0.7-0.4,1-0.9,1
						c-0.4,0-0.9-0.3-0.9-1C-166.2,1191.4-165.7,1190.9-165.3,1190.9z M-119.8,1191.8c-0.4,0-0.9,0.4-0.9,1c0,0.6,0.4,1.1,0.9,1.1
						c0.6,0,1-0.5,1-1.1C-118.8,1192.2-119.2,1191.8-119.8,1191.8z M-128.6,1192.8c0.7,0,1.1,0.3,1.1,1c0,0.4-0.4,0.9-1.1,0.9
						c-0.4,0-0.9-0.4-0.9-0.9C-129.4,1193.2-129,1192.8-128.6,1192.8z M-144.9,1194.7c-2.1,0-3.9,1.8-3.9,3.9s1.8,3.9,3.9,3.9
						c2.1,0,3.9-1.7,3.9-3.9S-142.8,1194.7-144.9,1194.7z M-144.9,1196.7c1.1,0,1.9,0.9,1.9,1.9c0,1.1-0.8,1.9-1.9,1.9
						c-1.1,0-1.9-0.8-1.9-1.9C-146.9,1197.6-146,1196.7-144.9,1196.7z M-139.1,1203.5c-0.6,0-1,0.4-1,1c0,0.6,0.4,1,1,1
						c0.6,0,1-0.4,1-1C-138.1,1203.9-138.5,1203.5-139.1,1203.5z"/>
				</g>
			</g>
		</g>
	</g>
</g>
</svg>
