<?xml version="1.0" encoding="utf-8"?>
<!-- Generator: Adobe Illustrator 24.0.2, SVG Export Plug-In . SVG Version: 6.00 Build 0)  -->
<svg version="1.1"
	 id="svg4475" inkscape:version="0.48.4 r9939" sodipodi:docname="3 9 moon planet astrology solar system satelite natural half.svg" xmlns:cc="http://creativecommons.org/ns#" xmlns:dc="http://purl.org/dc/elements/1.1/" xmlns:inkscape="http://www.inkscape.org/namespaces/inkscape" xmlns:rdf="http://www.w3.org/1999/02/22-rdf-syntax-ns#" xmlns:sodipodi="http://sodipodi.sourceforge.net/DTD/sodipodi-0.dtd" xmlns:svg="http://www.w3.org/2000/svg"
	 xmlns="http://www.w3.org/2000/svg" xmlns:xlink="http://www.w3.org/1999/xlink" x="0px" y="0px" viewBox="0 0 58.8 64"
	 style="enable-background:new 0 0 58.8 64;" xml:space="preserve">
<sodipodi:namedview  bordercolor="#666666" borderopacity="1.0" id="base" inkscape:bbox-nodes="true" inkscape:bbox-paths="true" inkscape:current-layer="g14600" inkscape:cx="5.3528482" inkscape:cy="27.364056" inkscape:document-units="px" inkscape:pageopacity="0.0" inkscape:pageshadow="2" inkscape:snap-bbox="true" inkscape:snap-bbox-edge-midpoints="true" inkscape:snap-bbox-midpoints="true" inkscape:snap-global="true" inkscape:window-height="705" inkscape:window-maximized="1" inkscape:window-width="1366" inkscape:window-x="-8" inkscape:window-y="-8" inkscape:zoom="7.9195959" pagecolor="#ffffff" showgrid="true">
	<inkscape:grid  empspacing="5" enabled="true" id="grid4527" snapvisiblegridlinesonly="true" type="xygrid" visible="true">
		</inkscape:grid>
</sodipodi:namedview>
<g id="layer1" transform="translate(0,-1020.3622)" inkscape:groupmode="layer" inkscape:label="Layer 1">
	<g id="g10414" transform="translate(309.5948,-461.25192)">
		<g id="g15415" transform="translate(66.405195,515.25192)">
			<g id="g15417" transform="translate(-150,-49.999983)">
				<g id="g14600" transform="translate(-49.999995,-130.00002)">
					<path id="path10131" d="M-155,1146.4C-155,1146.4-155.1,1146.4-155,1146.4c-0.2,0.1-0.3,0.2-0.4,0.3
						c-12.4,5.2-20.6,17.1-20.6,30.4c0,18.3,14.9,33.2,33.3,33.2c9.7,0,18.9-4.2,25.3-11.7c0.3-0.4,0.3-1.1-0.1-1.4
						c-0.2-0.2-0.5-0.2-0.7-0.2c-1,0.1-2.2,0.1-3.2,0.1c-19.6,0-35.4-15.6-35.4-35c0-4.8,1-9.8,3.1-14.2c0,0,0-0.1,0.1-0.1
						c0-0.1,0.1-0.2,0.1-0.4c0-0.6-0.4-1-0.9-1C-154.8,1146.3-154.9,1146.3-155,1146.4z M-156.4,1149.5c-1.5,4.1-2.4,8.4-2.4,12.6
						c0,6.2,1.5,12,4.2,17.1c-0.2,0-0.4-0.1-0.6-0.1c-2.5,0-4.7,2.1-4.7,4.6c0,2.5,2.2,4.5,4.7,4.5c2.1,0,3.7-1.4,4.2-3.3
						c6.8,8.7,17.5,14.2,29.5,14.2c0.2,0,0.5,0,0.7,0c-5.9,5.8-13.7,9.2-21.9,9.2c-17.3,0-31.3-14-31.3-31.2
						C-174,1165.3-167.1,1154.8-156.4,1149.5z M-165,1161.1c-1.1,0-1.9,0.9-1.9,2c0,1.1,0.8,2.1,1.9,2.1c1.1,0,2.1-1,2.1-2.1
						C-162.9,1162-163.9,1161.1-165,1161.1z M-168.9,1170.1c-1.7,0-3.1,1.4-3.1,3.1c0,1.6,1.4,2.9,3.1,2.9c1.6,0,3-1.3,3-2.9
						C-165.9,1171.5-167.3,1170.1-168.9,1170.1z M-168.9,1172.1c0.5,0,1,0.4,1,1.1c0,0.5-0.5,0.9-1,0.9c-0.7,0-1.1-0.5-1.1-0.9
						C-170.1,1172.6-169.7,1172.1-168.9,1172.1z M-155.3,1181.1c1.4,0,2.4,1.2,2.4,2.6c0,1.4-1,2.5-2.4,2.5c-1.5,0-2.7-1.1-2.7-2.5
						C-157.9,1182.4-156.7,1181.1-155.3,1181.1z M-165,1188.2c-1.6,0-2.9,1.4-2.9,3.1c0,1.6,1.3,2.9,2.9,2.9c1.7,0,3.1-1.3,3.1-2.9
						C-161.9,1189.6-163.3,1188.2-165,1188.2z M-165,1190.2c0.7,0,1.1,0.4,1.1,1.1c0,0.5-0.4,0.9-1.1,0.9c-0.5,0-0.9-0.5-0.9-0.9
						C-165.9,1190.6-165.5,1190.2-165,1190.2z M-143.8,1194.2c-2.2,0-4.1,1.8-4.1,4c0,2.2,1.9,4.1,4.1,4.1c2.2,0,4-1.9,4-4.1
						C-139.8,1196-141.6,1194.2-143.8,1194.2z M-143.8,1196.2c1.1,0,2,0.9,2,2c0,1.1-0.9,2.1-2,2.1c-1.1,0-2.1-1-2.1-2.1
						C-145.8,1197.1-144.9,1196.2-143.8,1196.2z M-137.7,1203.4c-0.5,0-0.9,0.4-0.9,0.9c0,0.6,0.5,1.1,0.9,1.1
						c0.6,0,1.1-0.5,1.1-1.1C-136.6,1203.8-137.1,1203.4-137.7,1203.4z"/>
				</g>
			</g>
		</g>
	</g>
</g>
</svg>
