<?xml version="1.0" encoding="utf-8"?>
<!-- Generator: Adobe Illustrator 24.0.2, SVG Export Plug-In . SVG Version: 6.00 Build 0)  -->
<svg version="1.1"
	 id="svg4475" inkscape:version="0.48.4 r9939" sodipodi:docname="7 neptune planet astrology solar system 1.svg" xmlns:cc="http://creativecommons.org/ns#" xmlns:dc="http://purl.org/dc/elements/1.1/" xmlns:inkscape="http://www.inkscape.org/namespaces/inkscape" xmlns:rdf="http://www.w3.org/1999/02/22-rdf-syntax-ns#" xmlns:sodipodi="http://sodipodi.sourceforge.net/DTD/sodipodi-0.dtd" xmlns:svg="http://www.w3.org/2000/svg"
	 xmlns="http://www.w3.org/2000/svg" xmlns:xlink="http://www.w3.org/1999/xlink" x="0px" y="0px" viewBox="0 0 64 64"
	 style="enable-background:new 0 0 64 64;" xml:space="preserve">
<sodipodi:namedview  bordercolor="#666666" borderopacity="1.0" id="base" inkscape:bbox-nodes="true" inkscape:bbox-paths="true" inkscape:current-layer="g14600" inkscape:cx="-9.7363055" inkscape:cy="27.364056" inkscape:document-units="px" inkscape:pageopacity="0.0" inkscape:pageshadow="2" inkscape:snap-bbox="true" inkscape:snap-bbox-edge-midpoints="true" inkscape:snap-bbox-midpoints="true" inkscape:snap-global="true" inkscape:window-height="705" inkscape:window-maximized="1" inkscape:window-width="1366" inkscape:window-x="-8" inkscape:window-y="-8" inkscape:zoom="7.9195959" pagecolor="#ffffff" showgrid="true">
	<inkscape:grid  empspacing="5" enabled="true" id="grid4527" snapvisiblegridlinesonly="true" type="xygrid" visible="true">
		</inkscape:grid>
</sodipodi:namedview>
<g id="layer1" transform="translate(0,-1020.3622)" inkscape:groupmode="layer" inkscape:label="Layer 1">
	<g id="g10414" transform="translate(309.5948,-461.25192)">
		<g id="g15415" transform="translate(66.405195,515.25192)">
			<g id="g15417" transform="translate(-150,-49.999983)">
				<g id="g14600" transform="translate(-49.999995,-130.00002)">
					<path id="path10320" inkscape:connector-curvature="0" d="M-144.1,1146.4c-0.2,0-0.4,0-0.6,0.1c-17.3,0.3-31.4,14.4-31.4,31.9
						c0,17.7,14.4,31.9,31.9,31.9c0.5,0,0.9,0,1.4-0.1c0,0,0.1,0,0.1,0c0.2,0.1,0.5,0.1,0.7,0c0,0,0,0,0.1,0
						c16.6-1.2,29.8-15,29.8-31.9C-112,1160.7-126.4,1146.4-144.1,1146.4C-144,1146.4-144,1146.4-144.1,1146.4z M-144.1,1148.4
						c0.1,0,0.2,0,0.3,0c3.4,0,6.7,0.7,9.8,1.8c-0.1,0-0.2-0.1-0.4-0.1c-1.6,0-2.9,1.4-2.9,3.1c0,1.6,1.3,2.9,2.9,2.9
						s2.9-1.3,2.9-2.9c0-1.2-0.7-2.2-1.6-2.7c11.1,4.4,19.1,15.1,19.1,27.8c0,15-11.1,27.4-25.5,29.6c0-0.2,0.1-0.4,0.1-0.6
						c0-1.6-1.3-2.9-2.9-2.9h-3.2h-1.3c-0.7,0-1.1-0.4-1.1-0.9c0-0.7,0.4-1.1,1.1-1.1h14.4c1.7,0,3-1.3,3-2.9c0-1.6-1.3-2.9-3-2.9
						h-11.6c-0.4,0-0.9-0.4-0.9-1.1c0-0.4,0.4-0.9,0.9-0.9h2.8h3.2c1.6,0,2.9-1.3,2.9-2.9c0-1.7-1.3-3.1-2.9-3.1h-3.2h-12.3
						c-0.7,0-1.1-0.4-1.1-0.9c0-0.4,0.4-0.9,1.1-0.9h22.9c1.6,0,2.9-1.3,2.9-3c0-1.6-1.3-2.9-2.9-2.9h-15.4c-0.4,0-0.9-0.4-0.9-0.9
						c0-0.7,0.4-1,0.9-1h1.2h3.2c1.6,0,2.9-1.3,2.9-2.9s-1.3-2.9-2.9-2.9h-3.2h-8.7c-0.7,0-1.1-0.3-1.1-1c0-0.4,0.4-0.9,1.1-0.9
						h19.3c1.7,0,2.9-1.4,2.9-2.9c0-0.8-0.3-1.6-0.8-2.1s-1.3-0.9-2.1-0.9h-3.2h-6.5c-0.4,0-0.9-0.5-0.9-0.9c0-0.4,0.4-0.9,0.9-0.9
						h1.4c1.6,0,2.9-1.3,2.9-3c0-1.6-1.3-2.9-2.9-2.9h-3.2h-3.1c-0.4,0-0.9-0.5-0.9-0.9c0-0.7,0.4-1,0.9-1h6.8
						c1.6,0,2.9-1.3,2.9-2.9s-1.3-2.9-2.9-2.9h-2c-0.4,0-0.9-0.3-0.9-1C-144.9,1148.8-144.5,1148.4-144.1,1148.4L-144.1,1148.4z
						 M-147.1,1148.6c0.1,0,0.2,0,0.3,0c-0.1,0.2-0.1,0.4-0.1,0.7c0,1.7,1.3,3,2.9,3h2c0.4,0,0.9,0.5,0.9,0.9c0,0.4-0.5,0.9-0.9,0.9
						h-6.8c-1.6,0-2.9,1.3-2.9,3c0,1.6,1.3,2.9,2.9,2.9h3.1h3.2c0.4,0,0.9,0.4,0.9,0.9c0,0.7-0.4,1-0.9,1h-1.4
						c-1.6,0-2.9,1.3-2.9,2.9c0,1.6,1.3,2.9,2.9,2.9h6.5h3.2c0.3,0,0.5,0.1,0.7,0.3c0.1,0.2,0.3,0.4,0.3,0.8c0,0.5-0.3,0.9-0.9,0.9
						h-19.3c-1.7,0-3.1,1.3-3.1,2.9c0,1.7,1.4,3,3.1,3h8.7h3.2c0.4,0,0.9,0.4,0.9,0.9c0,0.4-0.4,0.9-0.9,0.9h-3.2h-1.2
						c-1.6,0-2.9,1.3-2.9,3c0,1.6,1.3,2.9,2.9,2.9h15.4c0.4,0,0.9,0.5,0.9,0.9c0,0.7-0.4,1-0.9,1h-22.9c-1.7,0-3.1,1.3-3.1,2.9
						c0,1.6,1.4,2.9,3.1,2.9h12.3h3.2c0.4,0,0.9,0.4,0.9,1.1c0,0.4-0.4,0.9-0.9,0.9h-3.2h-2.8c-1.6,0-2.9,1.3-2.9,2.9
						c0,1.7,1.3,3.1,2.9,3.1h11.6c0.7,0,1,0.4,1,0.9c0,0.4-0.3,0.9-1,0.9h-14.4c-1.7,0-3.1,1.4-3.1,3.1c0,1.6,1.4,2.9,3.1,2.9h1.3
						h3.2c0.4,0,0.9,0.4,0.9,0.9c0,0.4-0.1,0.7-0.4,0.9c0,0,0,0-0.1,0c-0.7,0.1-1.4,0.1-2.2,0.1c-3.8,0-7.4-0.7-10.8-2
						c-11.2-4.3-19.2-15.2-19.2-27.9C-174,1162.8-162.2,1150.1-147.1,1148.6L-147.1,1148.6z M-154.8,1206.3c0.4,0.2,0.8,0.2,1.2,0.2
						c1.6,0,2.9-1.3,2.9-3c0-1.6-1.3-2.9-2.9-2.9c-1.7,0-3.1,1.3-3.1,2.9C-156.7,1204.7-155.9,1205.8-154.8,1206.3L-154.8,1206.3z
						 M-134.4,1152.1c0.4,0,0.9,0.4,0.9,1.1c0,0.4-0.5,0.9-0.9,0.9c-0.4,0-0.9-0.4-0.9-0.9C-135.2,1152.5-134.8,1152.1-134.4,1152.1
						z M-151.7,1161.8c-1.6,0-2.9,1.3-2.9,3c0,1.6,1.3,2.9,2.9,2.9s2.9-1.3,2.9-2.9C-148.9,1163.1-150.2,1161.8-151.7,1161.8z
						 M-151.7,1163.8c0.4,0,0.9,0.3,0.9,1c0,0.4-0.4,0.9-0.9,0.9c-0.4,0-0.9-0.5-0.9-0.9C-152.6,1164.1-152.2,1163.8-151.7,1163.8z
						 M-134.4,1173.4c-1.6,0-2.9,1.3-2.9,3c0,1.6,1.3,2.9,2.9,2.9s2.9-1.3,2.9-2.9C-131.4,1174.7-132.8,1173.4-134.4,1173.4z
						 M-134.4,1175.4c0.4,0,0.9,0.3,0.9,1c0,0.4-0.5,0.9-0.9,0.9c-0.4,0-0.9-0.5-0.9-0.9C-135.2,1175.7-134.8,1175.4-134.4,1175.4z
						 M-161.5,1185c-1.6,0-2.9,1.3-2.9,3c0,1.6,1.3,2.9,2.9,2.9c1.7,0,3.1-1.3,3.1-2.9C-158.4,1186.4-159.8,1185-161.5,1185z
						 M-161.5,1187c0.7,0,1.1,0.3,1.1,1c0,0.4-0.4,0.9-1.1,0.9c-0.4,0-0.9-0.4-0.9-0.9C-162.4,1187.4-161.9,1187-161.5,1187z
						 M-130.4,1188.9c-1.7,0-3,1.3-3,2.9c0,1.7,1.3,3,3,3c1.6,0,2.9-1.3,2.9-3C-127.6,1190.2-128.8,1188.9-130.4,1188.9z
						 M-130.4,1190.9c0.4,0,0.9,0.5,0.9,0.9c0,0.7-0.4,1-0.9,1c-0.7,0-1-0.3-1-1C-131.4,1191.4-131.1,1190.9-130.4,1190.9z
						 M-153.6,1202.5c0.4,0,0.9,0.5,0.9,0.9c0,0.7-0.4,1-0.9,1c-0.7,0-1.1-0.3-1.1-1C-154.7,1203-154.3,1202.5-153.6,1202.5z"/>
				</g>
			</g>
		</g>
	</g>
</g>
</svg>
