<?xml version="1.0" encoding="utf-8"?>
<!-- Generator: Adobe Illustrator 24.0.2, SVG Export Plug-In . SVG Version: 6.00 Build 0)  -->
<svg version="1.1"
	 id="svg4475" inkscape:version="0.48.4 r9939" sodipodi:docname="12 planet astrology satellite galaxy small astronomy.svg" xmlns:cc="http://creativecommons.org/ns#" xmlns:dc="http://purl.org/dc/elements/1.1/" xmlns:inkscape="http://www.inkscape.org/namespaces/inkscape" xmlns:rdf="http://www.w3.org/1999/02/22-rdf-syntax-ns#" xmlns:sodipodi="http://sodipodi.sourceforge.net/DTD/sodipodi-0.dtd" xmlns:svg="http://www.w3.org/2000/svg"
	 xmlns="http://www.w3.org/2000/svg" xmlns:xlink="http://www.w3.org/1999/xlink" x="0px" y="0px" viewBox="0 0 64 64"
	 style="enable-background:new 0 0 64 64;" xml:space="preserve">
<sodipodi:namedview  bordercolor="#666666" borderopacity="1.0" id="base" inkscape:bbox-nodes="true" inkscape:bbox-paths="true" inkscape:current-layer="g14600" inkscape:cx="6.5192247" inkscape:cy="0.020589196" inkscape:document-units="px" inkscape:pageopacity="0.0" inkscape:pageshadow="2" inkscape:snap-bbox="true" inkscape:snap-bbox-edge-midpoints="true" inkscape:snap-bbox-midpoints="true" inkscape:snap-global="true" inkscape:window-height="705" inkscape:window-maximized="1" inkscape:window-width="1366" inkscape:window-x="-8" inkscape:window-y="-8" inkscape:zoom="7.9195959" pagecolor="#ffffff" showgrid="true">
	<inkscape:grid  empspacing="5" enabled="true" id="grid4527" snapvisiblegridlinesonly="true" type="xygrid" visible="true">
		</inkscape:grid>
</sodipodi:namedview>
<g id="layer1" transform="translate(0,-1020.3622)" inkscape:groupmode="layer" inkscape:label="Layer 1">
	<g id="g10414" transform="translate(309.5948,-461.25192)">
		<g id="g15415" transform="translate(66.405195,515.25192)">
			<g id="g15417" transform="translate(-150,-49.999983)">
				<g id="g14600" transform="translate(-49.999995,-130.00002)">
					<path id="circle11644" d="M-151.4,1146.5c-4.1,0-7.5,3.4-7.5,7.5c0,4.1,3.3,7.5,7.5,7.5s7.5-3.4,7.5-7.5
						C-143.9,1149.8-147.3,1146.5-151.4,1146.5z M-151.4,1148.6c1.7,0,3.2,0.9,4.2,2.1h-1c-0.1,0-0.2,0-0.3,0
						c-0.6,0.1-1,0.6-0.9,1.2c0.1,0.6,0.6,1,1.2,0.9c0,0,0,0,0,0h2c0.1,0.3,0.1,0.7,0.1,1.1c0,0.3-0.1,0.7-0.1,1.1h-0.9
						c-0.1,0-0.2,0-0.3,0c-0.6,0.1-1.1,0.6-1,1.2c0.1,0.6,0.6,1.1,1.2,1c-1,1.2-2.4,2.1-4.1,2.1c-0.5,0-1-0.1-1.5-0.2
						c0.5-0.3,0.6-1,0.2-1.5c-0.2-0.3-0.6-0.5-0.9-0.4h-2c0,0-0.1,0-0.1,0c-0.5-0.6-0.8-1.3-0.9-2.1h0.9c0.6,0,1.1-0.5,1.1-1
						c0-0.6-0.5-1.1-1-1.1c0,0,0,0,0,0h-0.9C-156.1,1150.4-154,1148.6-151.4,1148.6z M-152.5,1150.7c-0.6,0-1.1,0.5-1.1,1.1
						c0,0.6,0.5,1.1,1.1,1.1s1.1-0.5,1.1-1.1C-151.4,1151.2-151.9,1150.7-152.5,1150.7z M-150.3,1155c-0.6,0-1.1,0.5-1.1,1.1
						c0,0.6,0.5,1.1,1.1,1.1s1.1-0.5,1.1-1.1C-149.3,1155.5-149.7,1155-150.3,1155z M-157,1167.2c-10.1,0-18.4,8.2-18.4,18.4
						c0,10.1,8.2,18.4,18.4,18.4s18.4-8.2,18.4-18.4C-138.6,1175.5-146.9,1167.2-157,1167.2z M-122.6,1167.8
						c-5.9,0-10.6,4.8-10.6,10.6s4.8,10.6,10.6,10.6c5.9,0,10.6-4.8,10.6-10.6S-116.8,1167.8-122.6,1167.8z M-157,1169.4
						c9,0,16.2,7.3,16.2,16.2c0,9-7.3,16.2-16.2,16.2c-9,0-16.2-7.3-16.2-16.2C-173.2,1176.6-166,1169.4-157,1169.4z M-122.6,1169.9
						c4.7,0,8.5,3.8,8.5,8.5s-3.8,8.5-8.5,8.5c-2.2,0-4.2-0.8-5.7-2.2c1.4-0.3,2.5-1.6,2.5-3.1c0-1.8-1.4-3.2-3.2-3.2
						c-0.8,0-1.5,0.3-2.1,0.8c0-0.3-0.1-0.5-0.1-0.8C-131.2,1173.7-127.4,1169.9-122.6,1169.9z M-125.8,1172c-0.6,0-1.1,0.5-1.1,1.1
						c0,0.6,0.5,1.1,1.1,1.1c0.6,0,1.1-0.5,1.1-1.1C-124.8,1172.5-125.3,1172-125.8,1172z M-160.3,1172.2c-0.5,0.1-0.8,0.6-0.7,1.1
						c0,0.6,0.5,1.1,1.1,1.1c0.2,0,0.3,0.1,0.3,0.3c0,0.2-0.1,0.3-0.3,0.3c-0.6,0-1.1,0.5-1.1,1s0.5,1.1,1,1.1c0,0,0,0,0,0
						c1.3,0,2.5-1.1,2.5-2.5c0-1.3-1.1-2.5-2.5-2.5C-160.1,1172.1-160.2,1172.1-160.3,1172.2z M-150.6,1173.1
						c-0.5,0-0.9,0.2-1.3,0.4c-1.5,0.9-2.1,2.8-1.2,4.3c0.9,1.5,2.8,2.1,4.3,1.2c0.6-0.1,0.9-0.7,0.8-1.3c-0.1-0.6-0.7-0.9-1.3-0.8
						c-0.2,0-0.4,0.1-0.5,0.3c-0.5,0.3-1.2,0.1-1.5-0.5c-0.3-0.5-0.1-1.1,0.4-1.4c0.3-0.2,0.6-0.2,0.9-0.1c0.5,0.2,1.2,0,1.4-0.6
						s0-1.2-0.6-1.4c0,0-0.1,0-0.1,0C-149.6,1173.1-150.1,1173.1-150.6,1173.1z M-120.3,1174.2c-0.5,0-0.9,0.2-1.3,0.4
						c-1.5,0.9-2.1,2.8-1.2,4.3s2.8,2.1,4.3,1.2c0.6-0.1,0.9-0.7,0.8-1.3s-0.7-0.9-1.3-0.8c-0.2,0-0.4,0.1-0.5,0.3
						c-0.5,0.3-1.2,0.1-1.5-0.5c-0.3-0.5-0.1-1.1,0.4-1.4c0.3-0.2,0.6-0.2,0.9-0.1c0.5,0.2,1.2,0,1.4-0.6s0-1.2-0.6-1.4
						c0,0-0.1,0-0.1,0C-119.3,1174.2-119.8,1174.1-120.3,1174.2z M-166.3,1178.4c-0.6,0-1.1,0.5-1.1,1.1c0,0.6,0.5,1.1,1.1,1.1
						s1.1-0.5,1.1-1.1C-165.2,1178.9-165.7,1178.4-166.3,1178.4z M-129,1180.5c0.6,0,1.1,0.5,1.1,1.1c0,0.6-0.5,1.1-1.1,1.1
						c-0.6,0-1.1-0.5-1.1-1.1C-130.1,1181-129.6,1180.5-129,1180.5z M-157.9,1182.1c-2.3,0-4.3,1.9-4.3,4.3c0,2.3,1.9,4.3,4.3,4.3
						s4.3-1.9,4.3-4.3C-153.7,1184.1-155.6,1182.1-157.9,1182.1z M-121.6,1182.7c-0.6,0-1.1,0.5-1.1,1.1c0,0.6,0.5,1.1,1.1,1.1
						c0.6,0,1.1-0.5,1.1-1.1C-120.5,1183.2-121,1182.7-121.6,1182.7z M-148.2,1182.8c-1.8,0-3.2,1.4-3.2,3.2s1.4,3.2,3.2,3.2
						c1.8,0,3.2-1.4,3.2-3.2S-146.5,1182.8-148.2,1182.8z M-157.9,1184.3c1.2,0,2.1,0.9,2.1,2.1c0,1.2-0.9,2.1-2.1,2.1
						c-1.2,0-2.1-0.9-2.1-2.1C-160.1,1185.2-159.1,1184.3-157.9,1184.3z M-148.2,1184.9c0.6,0,1.1,0.5,1.1,1.1s-0.5,1.1-1.1,1.1
						c-0.6,0-1.1-0.5-1.1-1.1S-148.8,1184.9-148.2,1184.9z M-166.3,1187.5c-1.8,0-3.2,1.4-3.2,3.2c0,1.8,1.4,3.2,3.2,3.2
						s3.2-1.4,3.2-3.2C-163.1,1188.9-164.6,1187.5-166.3,1187.5z M-166.3,1189.6c0.6,0,1.1,0.5,1.1,1.1s-0.5,1.1-1.1,1.1
						c-0.6,0-1.1-0.5-1.1-1.1S-166.9,1189.6-166.3,1189.6z M-149.3,1191.2c-0.6,0-1.1,0.5-1.1,1.1c0,0.6,0.5,1.1,1.1,1.1
						s1.1-0.5,1.1-1.1C-148.2,1191.7-148.7,1191.2-149.3,1191.2z M-129,1193.3c-4.1,0-7.5,3-8.3,6.9c-0.1,0.2-0.1,0.5-0.1,0.8
						c0,0.3-0.1,0.6-0.1,0.9c0,1.3,0.3,2.5,0.8,3.6c0.1,0.2,0.1,0.3,0.3,0.4c1.4,2.7,4.2,4.5,7.5,4.5c4.7,0,8.5-3.8,8.5-8.5
						S-124.3,1193.3-129,1193.3z M-156.1,1193.7c-1.5,0-2.8,1.2-2.8,2.7c0,1.5,1.3,2.8,2.8,2.8c0.6,0,1.1-0.5,1.1-1.1
						s-0.5-1.1-1.1-1.1l0,0c-0.4,0-0.7-0.3-0.7-0.7c0-0.4,0.3-0.6,0.7-0.6c0.2,0,0.3,0,0.5,0.1c0.4,0.4,1.1,0.4,1.5,0
						c0.2-0.2,0.3-0.6,0.3-0.9c0-0.2-0.1-0.4-0.3-0.5C-154.6,1194-155.3,1193.7-156.1,1193.7z M-129,1195.5c1.9,0,3.6,0.8,4.7,2.1
						h-5.8c-0.1,0-0.2,0-0.3,0c-0.6,0.1-1,0.6-0.9,1.2c0.1,0.6,0.6,1,1.2,0.9c0,0,0,0,0,0h7.1c0.2,0.7,0.4,1.4,0.4,2.1h-3.2
						c-0.1,0-0.2,0-0.3,0c-0.6,0.1-1,0.6-0.9,1.2c0.1,0.6,0.6,1,1.2,0.9c0,0,0,0,0,0h2.9c-0.9,2.5-3.3,4.3-6.1,4.3
						c-1.9,0-3.6-0.8-4.7-2.1h3.7c0.6,0,1.1-0.5,1.1-1s-0.5-1.1-1-1.1c0,0,0,0,0,0h-4.9c-0.2-0.7-0.4-1.4-0.4-2.1h1.1
						c0.6,0,1.1-0.5,1.1-1s-0.5-1.1-1-1.1c0,0,0,0,0,0h-0.7C-134.1,1197.2-131.8,1195.5-129,1195.5z"/>
				</g>
			</g>
		</g>
	</g>
</g>
</svg>
