<?xml version="1.0" encoding="utf-8"?>
<!-- Generator: Adobe Illustrator 24.0.2, SVG Export Plug-In . SVG Version: 6.00 Build 0)  -->
<svg version="1.1"
	 id="svg4475" inkscape:version="0.48.4 r9939" sodipodi:docname="20 planet space sun uranus mars satellite sky universe galaxy.svg" xmlns:cc="http://creativecommons.org/ns#" xmlns:dc="http://purl.org/dc/elements/1.1/" xmlns:inkscape="http://www.inkscape.org/namespaces/inkscape" xmlns:rdf="http://www.w3.org/1999/02/22-rdf-syntax-ns#" xmlns:sodipodi="http://sodipodi.sourceforge.net/DTD/sodipodi-0.dtd" xmlns:svg="http://www.w3.org/2000/svg"
	 xmlns="http://www.w3.org/2000/svg" xmlns:xlink="http://www.w3.org/1999/xlink" x="0px" y="0px" viewBox="0 0 64 64"
	 style="enable-background:new 0 0 64 64;" xml:space="preserve">
<sodipodi:namedview  bordercolor="#666666" borderopacity="1.0" id="base" inkscape:bbox-nodes="true" inkscape:bbox-paths="true" inkscape:current-layer="g14600" inkscape:cx="-48.440416" inkscape:cy="16.706759" inkscape:document-units="px" inkscape:pageopacity="0.0" inkscape:pageshadow="2" inkscape:snap-bbox="true" inkscape:snap-bbox-edge-midpoints="true" inkscape:snap-bbox-midpoints="true" inkscape:snap-global="true" inkscape:window-height="705" inkscape:window-maximized="1" inkscape:window-width="1366" inkscape:window-x="-8" inkscape:window-y="-8" inkscape:zoom="5.6" pagecolor="#ffffff" showgrid="true">
	<inkscape:grid  empspacing="5" enabled="true" id="grid4527" snapvisiblegridlinesonly="true" type="xygrid" visible="true">
		</inkscape:grid>
</sodipodi:namedview>
<g id="layer1" transform="translate(0,-1020.3622)" inkscape:groupmode="layer" inkscape:label="Layer 1">
	<g id="g10414" transform="translate(309.5948,-461.25192)">
		<g id="g15415" transform="translate(66.405195,515.25192)">
			<g id="g15417" transform="translate(-150,-49.999983)">
				<g id="g14600" transform="translate(-49.999995,-130.00002)">
					<path id="path10762" d="M-167.4,1146.4c-0.5,0.1-0.9,0.6-0.9,1.1v1h-1.3c-0.6,0-1.1,0.5-1.1,1s0.5,1.1,1,1.1c0,0,0,0,0,0h1.3
						v1.1c0,0.6,0.5,1.1,1,1.1s1.1-0.5,1.1-1c0,0,0,0,0,0v-1.1h1c0.6,0,1.1-0.5,1.1-1s-0.5-1.1-1-1.1c0,0,0,0,0,0h-1v-1
						c0-0.6-0.4-1.1-1-1.1c0,0-0.1,0-0.1,0C-167.3,1146.4-167.3,1146.4-167.4,1146.4z M-155.3,1149.7c-5.9,0-10.8,4.8-10.8,10.8
						c0,5.9,4.9,10.8,10.8,10.8s10.8-4.9,10.8-10.8C-144.5,1154.5-149.4,1149.7-155.3,1149.7z M-155.3,1151.8c2.1,0,4,0.8,5.5,2.1
						h-2.3c-0.1,0-0.1,0-0.2,0c-0.6,0.1-1,0.6-1,1.2c0.1,0.6,0.6,1,1.2,1h4.2c0.8,1.3,1.3,2.8,1.3,4.5c0,0.7-0.2,1.5-0.3,2.2h-2.9
						c-0.1,0-0.1,0-0.2,0c-0.6,0.1-1,0.6-1,1.2c0.1,0.6,0.6,1,1.2,1h2c-1.5,2.6-4.3,4.4-7.5,4.4c-0.6,0-1.2-0.1-1.8-0.2
						c0.6-0.1,1-0.7,0.8-1.3s-0.7-1-1.3-0.8l0,0h-3.3c0,0-0.1,0-0.1,0c0,0-0.1,0-0.1,0.1c-1.8-1.6-2.9-3.9-2.9-6.5
						c0,0,0.1,0,0.1-0.1h4.2c0.6,0,1.1-0.5,1.1-1s-0.5-1.1-1-1.1c0,0,0,0,0,0h-4C-162.7,1154.6-159.4,1151.8-155.3,1151.8z
						 M-117.8,1155c-0.5,0.1-0.8,0.6-0.7,1.1v1.1h-1.1c-0.1,0-0.2,0-0.3,0c-0.6,0.1-1,0.6-0.9,1.2c0.1,0.6,0.6,1,1.2,0.9h1.1v1.2
						c0,0.6,0.5,1.1,1,1.1c0.6,0,1.1-0.5,1.1-1c0,0,0,0,0,0v-1.2h1.2c0.6,0,1.1-0.5,1.1-1c0-0.6-0.5-1.1-1-1.1c0,0,0,0,0,0h-1.2
						v-1.1c0-0.6-0.5-1.1-1-1.1c-0.1,0-0.1,0-0.2,0C-117.7,1155-117.8,1155-117.8,1155z M-156.7,1158.2c-0.6,0-1.1,0.5-1.1,1.1
						s0.5,1.1,1.1,1.1c0.6,0,1.1-0.5,1.1-1.1l-0.1-0.3C-155.9,1158.5-156.3,1158.2-156.7,1158.2z M-156.8,1162.7
						c-0.6,0.1-1,0.6-0.9,1.2c0.1,0.6,0.6,1,1.2,0.9l0,0h3.3c0.6,0,1.1-0.5,1.1-1s-0.5-1.1-1-1.1c0,0,0,0,0,0h-3.3
						c-0.1,0-0.1,0-0.2,0C-156.7,1162.7-156.8,1162.7-156.8,1162.7z M-141.4,1163.6c-0.5,0.1-0.8,0.6-0.8,1.1v1.2h-1.3
						c-0.1,0-0.2,0-0.3,0c-0.6,0.1-1,0.6-0.9,1.2s0.6,1,1.2,0.9h1.3v1c0,0.6,0.5,1.1,1,1.1c0.6,0,1.1-0.5,1.1-1c0,0,0,0,0,0v-1h1
						c0.6,0,1.1-0.5,1.1-1c0-0.6-0.5-1.1-1-1.1c0,0,0,0,0,0h-1v-1.2c0-0.6-0.4-1.1-1-1.1c-0.1,0-0.1,0-0.2,0
						C-141.3,1163.6-141.4,1163.6-141.4,1163.6z M-127.2,1164.8c-4.2,0-7.6,3.4-7.6,7.5c0,4.2,3.4,7.6,7.6,7.6
						c4.2,0,7.5-3.4,7.5-7.6C-119.7,1168.2-123,1164.8-127.2,1164.8z M-127.2,1166.9c1.2,0,2.2,0.4,3.1,1.1h-3.1c0,0-0.1,0-0.1,0
						c-0.6,0-1,0.5-1,1.1s0.5,1,1.1,1h4.9c0.3,0.7,0.5,1.4,0.5,2.2c0,1.2-0.4,2.4-1.1,3.3h-3.1c-0.1,0-0.1,0-0.2,0
						c-0.6,0-1.1,0.4-1.1,1c0,0.5,0.2,0.9,0.7,1.1c-0.2,0-0.3,0.1-0.5,0.1c-2.6,0-4.8-1.9-5.3-4.4h3.2c0.6,0,1.1-0.5,1.1-1
						s-0.5-1.1-1-1.1c0,0,0,0,0,0h-3.2C-132,1168.8-129.8,1166.9-127.2,1166.9z M-168.6,1168c-0.5,0.1-0.8,0.6-0.8,1.1v1.1h-1.3
						c-0.1,0-0.1,0-0.2,0c-0.6,0.1-1,0.6-1,1.2c0.1,0.6,0.6,1,1.2,1h1.3v1.2c0,0.6,0.5,1.1,1,1.1s1.1-0.5,1.1-1c0,0,0,0,0,0v-1.2h1
						c0.6,0,1.1-0.5,1.1-1s-0.5-1.1-1-1.1c0,0,0,0,0,0h-1v-1.1c0-0.6-0.5-1.1-1.1-1.1c0,0-0.1,0-0.1,0
						C-168.5,1168-168.5,1168-168.6,1168z M-124.8,1170.9c-0.6,0-1.1,0.5-1.1,1.1c0,0.6,0.5,1.1,1.1,1.1s1.1-0.5,1.1-1.1l-0.1-0.3
						C-123.9,1171.3-124.3,1170.9-124.8,1170.9z M-157.5,1173.4c-10,0-18.2,8.1-18.4,18c-0.1,0.3-0.1,0.6,0,0.9
						c0.2,10,8.4,18,18.4,18c10,0,18.3-8.3,18.3-18.4C-139.2,1181.7-147.5,1173.4-157.5,1173.4z M-157.5,1175.5c3,0,5.7,0.8,8.1,2.3
						h-6.1c-0.1,0-0.2,0-0.3,0c-0.6,0.1-1,0.6-0.9,1.2s0.6,1,1.2,0.9h8.9c0,0,0.1,0,0.1,0c1.9,1.8,3.4,4,4.3,6.5h-17.5
						c0,0-0.1,0-0.1,0c-0.6,0-1,0.5-1,1.1c0,0.6,0.5,1,1.1,1h18.1c0.2,1.1,0.3,2.2,0.3,3.3c0,1.1-0.1,2.3-0.3,3.3h-7.2
						c-0.1,0-0.1,0-0.2,0c-0.6,0.1-1,0.6-1,1.2c0.1,0.6,0.6,1,1.2,1h6.6c-0.9,2.5-2.4,4.7-4.3,6.5h-8.8c-0.1,0-0.2,0-0.3,0
						c-0.6,0.1-1,0.6-0.9,1.2c0.1,0.6,0.6,1,1.2,0.9c0,0,0,0,0,0h6c-2.4,1.4-5.2,2.2-8.1,2.2c-8.7,0-15.7-6.7-16.2-15.2h11.8
						c0.6,0,1.1-0.5,1.1-1s-0.5-1.1-1-1.1c0,0,0,0,0,0h-11.8c0.2-2.3,0.8-4.5,1.8-6.5h7.8c0.6,0,1.1-0.5,1.1-1s-0.5-1.1-1-1.1
						c0,0,0,0,0,0h-6.5C-167.6,1178.2-162.9,1175.5-157.5,1175.5z M-160.2,1182.2c-0.6,0.1-1,0.7-0.8,1.3s0.7,1,1.3,0.8h0.1
						c0.6,0,1.1-0.5,1.1-1s-0.5-1.1-1-1.1c0,0,0,0,0,0h-0.1c-0.1,0-0.2,0-0.3,0C-160.1,1182.2-160.2,1182.2-160.2,1182.2z
						 M-132.8,1185.4c-0.5,0.1-0.8,0.6-0.8,1.1v1h-1.1c0,0,0,0-0.1,0c-0.6,0-1,0.5-1,1.1c0,0.6,0.5,1.1,1.1,1h1.1v1.1
						c0,0.6,0.5,1.1,1,1.1s1.1-0.5,1.1-1c0,0,0,0,0,0v-1.1h1.1c0.6,0,1.1-0.5,1.1-1s-0.5-1.1-1-1.1c0,0,0,0,0,0h-1.1v-1
						c0-0.6-0.4-1.1-1-1.1c0,0,0,0-0.1,0c0,0-0.1,0-0.1,0C-132.8,1185.4-132.8,1185.4-132.8,1185.4z M-166.5,1186.4
						c-0.6,0.1-1,0.6-0.9,1.2s0.6,1,1.2,0.9h2.3c0.6,0,1.1-0.5,1.1-1s-0.5-1.1-1-1.1c0,0,0,0,0,0h-2.3c0,0,0,0-0.1,0
						C-166.4,1186.4-166.5,1186.4-166.5,1186.4z M-115.5,1186.4c-0.5,0.1-0.8,0.6-0.7,1.1v1.2h-1.2c-0.6,0-1.1,0.5-1.1,1
						s0.5,1.1,1,1.1c0,0,0,0,0,0h1.2v1.1c0,0.6,0.5,1.1,1,1.1c0.6,0,1.1-0.5,1.1-1c0,0,0,0,0,0v-1.1h1.1c0.6,0,1.1-0.5,1.1-1
						s-0.5-1.1-1-1.1c0,0,0,0,0,0h-1.1v-1.2c0-0.6-0.5-1.1-1-1.1c-0.1,0-0.1,0-0.2,0C-115.5,1186.4-115.5,1186.4-115.5,1186.4z
						 M-157.7,1190.8c-0.6,0.1-1,0.6-0.9,1.2s0.6,1,1.2,0.9h3.6c0.6,0,1.1-0.5,1.1-1s-0.5-1.1-1-1.1c0,0,0,0,0,0h-3.6c0,0,0,0-0.1,0
						C-157.6,1190.8-157.7,1190.8-157.7,1190.8z M-153.2,1195.1c-0.5,0-1,0.5-1,1.2c0,0.5,0.5,0.9,1,0.9c0.7,0,1.1-0.4,1.1-0.9
						C-152.1,1195.6-152.6,1195.1-153.2,1195.1z M-166.7,1199.4c-0.6,0.1-1,0.7-0.9,1.3s0.7,1,1.3,0.9h6.7c0.6,0,1.1-0.5,1.1-1
						s-0.5-1.1-1-1.1c0,0,0,0,0,0h-6.7c-0.1,0-0.2,0-0.3,0C-166.6,1199.4-166.6,1199.4-166.7,1199.4z M-137.2,1202.6
						c-0.5,0.1-0.8,0.6-0.8,1.1v1.3h-1.1c-0.1,0-0.2,0-0.3,0c-0.6,0.1-1,0.6-0.9,1.2s0.6,1,1.2,0.9h1.1v1c0,0.6,0.5,1.1,1,1.1
						s1.1-0.5,1.1-1c0,0,0,0,0,0v-1h1.2c0.6,0,1.1-0.5,1.1-1c0-0.6-0.5-1.1-1-1.1c0,0,0,0,0,0h-1.2v-1.3c0-0.6-0.5-1.1-1.1-1.1
						c0,0-0.1,0-0.1,0C-137.2,1202.6-137.2,1202.6-137.2,1202.6z M-159.7,1203.7c-0.5,0-1,0.5-1,1.1c0,0.7,0.5,1.1,1,1.1
						c0.7,0,1.1-0.5,1.1-1.1C-158.6,1204.2-159.1,1203.7-159.7,1203.7z"/>
				</g>
			</g>
		</g>
	</g>
</g>
</svg>
