<?xml version="1.0" encoding="utf-8"?>
<!-- Generator: Adobe Illustrator 24.0.2, SVG Export Plug-In . SVG Version: 6.00 Build 0)  -->
<svg version="1.1"
	 id="svg4475" inkscape:version="0.48.4 r9939" sodipodi:docname="13 planet comat space astrology sky burn galaxy satellite meteor.svg" xmlns:cc="http://creativecommons.org/ns#" xmlns:dc="http://purl.org/dc/elements/1.1/" xmlns:inkscape="http://www.inkscape.org/namespaces/inkscape" xmlns:rdf="http://www.w3.org/1999/02/22-rdf-syntax-ns#" xmlns:sodipodi="http://sodipodi.sourceforge.net/DTD/sodipodi-0.dtd" xmlns:svg="http://www.w3.org/2000/svg"
	 xmlns="http://www.w3.org/2000/svg" xmlns:xlink="http://www.w3.org/1999/xlink" x="0px" y="0px" viewBox="0 0 64 64"
	 style="enable-background:new 0 0 64 64;" xml:space="preserve">
<sodipodi:namedview  bordercolor="#666666" borderopacity="1.0" id="base" inkscape:bbox-nodes="true" inkscape:bbox-paths="true" inkscape:current-layer="g14600" inkscape:cx="-3.8249202" inkscape:cy="7.0498547" inkscape:document-units="px" inkscape:pageopacity="0.0" inkscape:pageshadow="2" inkscape:snap-bbox="true" inkscape:snap-bbox-edge-midpoints="true" inkscape:snap-bbox-midpoints="true" inkscape:snap-global="true" inkscape:window-height="705" inkscape:window-maximized="1" inkscape:window-width="1366" inkscape:window-x="-8" inkscape:window-y="-8" inkscape:zoom="7.9195959" pagecolor="#ffffff" showgrid="true">
	<inkscape:grid  empspacing="5" enabled="true" id="grid4527" snapvisiblegridlinesonly="true" type="xygrid" visible="true">
		</inkscape:grid>
</sodipodi:namedview>
<g id="layer1" transform="translate(0,-1020.3622)" inkscape:groupmode="layer" inkscape:label="Layer 1">
	<g id="g10414" transform="translate(309.5948,-461.25192)">
		<g id="g15415" transform="translate(66.405195,515.25192)">
			<g id="g15417" transform="translate(-150,-49.999983)">
				<g id="g14600" transform="translate(-49.999995,-130.00002)">
					<path id="path10466" d="M-131.1,1147.2c-0.3,0-0.5,0.1-0.7,0.3l-3.2,3.2l-0.8,0.7l-3.5,3.5l-16.2,16.2l-16.2,16.2
						c-5.4,5.4-5.9,13.7-0.9,18.7c5,5,13.4,4.6,18.7-0.7l16.2-16.2l16.2-16.2l5-5l0.1-0.1l0.6-0.6c0.5-0.5,0.5-1.2,0-1.7
						c-0.5-0.5-1.2-0.5-1.7,0l-1.7,1.6c-0.5,0.5-1.2,0.5-1.6,0.1c-0.5-0.5-0.5-1.2,0-1.7l2.9-2.9c0.5-0.5,0.5-1.2,0-1.7
						c-0.4-0.4-1.1-0.4-1.6,0.1l-1.2,1.2c-0.5,0.5-1.2,0.5-1.7,0c-0.5-0.5-0.5-1.2,0-1.7l3.2-3.2c0.5-0.5,0.5-1.2,0.1-1.6
						c-0.5-0.5-1.2-0.5-1.7,0l-3.2,3.2c-0.4,0.4-1.1,0.4-1.6-0.1c-0.4-0.4-0.4-1.1,0-1.5l1.7-1.7c0.4-0.4,0.4-1.1-0.1-1.6
						c-0.5-0.5-1.2-0.5-1.6-0.1l-3.3,3.3c-0.5,0.5-1.2,0.4-1.6,0.1c-0.5-0.5-0.5-1.2,0-1.7l4.9-4.9c0.5-0.5,0.5-1.2,0-1.7
						c-0.4-0.4-1.1-0.3-1.6,0.1l-3.2,3.2c-0.5,0.5-1.2,0.5-1.7,0c-0.5-0.5-0.5-1.2,0-1.7l1.6-1.6c0.4-0.4,0.4-1.1,0-1.4
						C-130.5,1147.4-130.8,1147.2-131.1,1147.2z M-134.4,1153.7c0.3,0,0.6,0.2,0.9,0.4c0.5,0.5,0.5,1.2,0.1,1.6l-5.7,5.7
						c-0.5,0.5-0.5,1.2-0.1,1.6c0.5,0.5,1.2,0.5,1.7,0l0.9-0.9c0.4-0.4,1.1-0.3,1.6,0.1c0.2,0.2,0.5,0.7,0.2,1.2
						c0,0-0.1,0.1-0.2,0.2l-3.3,3.3c-0.5,0.5-0.5,1.2,0,1.7c0.5,0.5,1.2,0.5,1.7,0l6.5-6.6c0.4-0.4,0.9-0.6,1.4-0.4
						c0.1,0.1,0.1,0.2,0.2,0.3c0.4,0.4,0.4,0.9,0.3,1.2c0,0.2-0.2,0.3-0.3,0.4l-1.6,1.6c-0.5,0.5-0.5,1.2,0,1.7
						c0.4,0.4,1.1,0.4,1.6-0.1l3.2-3.2c0.4-0.4,1.1-0.3,1.6,0.1c0.4,0.4,0.5,0.7,0.2,1.2c-0.1,0.1,0,0.2-0.1,0.4l-6.5,6.5
						c-0.5,0.5-0.4,1.2-0.1,1.6c0.5,0.5,1.2,0.5,1.7,0l1.7-1.7c0.4-0.4,1.1-0.3,1.6,0.1c0.4,0.4,0.4,1.1,0,1.4l-0.9,0.9l-0.1,0.1
						l-13.1,13l-16.2,16.2c-4.5,4.5-11.5,4.9-15.5,0.9c-4-4-3.6-11,0.9-15.5l16.2-16.2l13-13l5.7-5.7
						C-134.9,1153.8-134.7,1153.7-134.4,1153.7z M-132.7,1158.6c0.3,0,0.6,0.1,0.9,0.4c0.4,0.4,0.3,1.1-0.1,1.6
						c-0.4,0.4-1.1,0.4-1.4,0c-0.5-0.5-0.5-1.2-0.1-1.6C-133.3,1158.7-133,1158.6-132.7,1158.6z M-113.2,1161.7
						c-0.3,0-0.6,0.1-0.9,0.4c-0.5,0.5-0.5,1.2,0,1.7c0.5,0.5,1.2,0.5,1.7,0c0.5-0.5,0.5-1.2,0-1.7
						C-112.6,1161.8-112.9,1161.7-113.2,1161.7z M-123,1168.3c0.3,0,0.6,0.1,0.9,0.4c0.4,0.4,0.4,1.1-0.1,1.6
						c-0.4,0.4-1.1,0.4-1.5,0c-0.5-0.5-0.4-1.2-0.1-1.6C-123.5,1168.5-123.3,1168.3-123,1168.3z M-148.9,1171.6
						c-0.3,0-0.6,0.2-0.9,0.4l-3.2,3.2c-0.5,0.5-0.4,1.2-0.1,1.6c0.5,0.5,1.2,0.5,1.7,0l3.2-3.2c0.5-0.5,0.5-1.2,0-1.7
						C-148.4,1171.7-148.6,1171.6-148.9,1171.6z M-144,1173.2c-0.3,0-0.5,0.1-0.7,0.3c-0.5,0.5-0.5,1.2-0.1,1.7
						c0.5,0.5,1.2,0.5,1.7,0c0.4-0.4,0.4-1.1-0.1-1.6C-143.5,1173.4-143.7,1173.2-144,1173.2z M-139.1,1174.8
						c-0.3,0-0.6,0.1-0.9,0.4l-1.6,1.6c-0.5,0.5-0.5,1.2,0,1.7c0.4,0.4,1.1,0.3,1.6-0.1l1.6-1.6c0.5-0.5,0.5-1.2,0.1-1.6
						C-138.5,1174.9-138.8,1174.8-139.1,1174.8z M-148.3,1177l-0.6,0.6l-4.4,4.4l-4.2,4.2c-0.3,0.3-0.4,0.2-0.6,0.2
						c-0.2,0-0.5-0.1-0.7-0.4c-0.2-0.2-0.4-0.6-0.4-0.8c0-0.2,0-0.4,0.3-0.6l1.4-1.4l0.6-0.6l-1.7-1.6l-0.6,0.6l-1.5,1.5l-3.4,3.2
						c0,0,0,0-0.1,0l-5,5c-3.2,3.2-3.3,8.4-0.1,11.5c3.1,3.1,8.3,3.1,11.5-0.1l9.3-9.3l2.7-2.7c0.4-0.5,0.4-1.2-0.1-1.6
						c-0.4-0.4-1-0.4-1.4,0l-2.7,2.7c-1,1-1.5,0.7-1.9,0.4c-0.3-0.4-0.6-1,0.4-1.9l3.3-3.3l1.9-1.9c0.4-0.5,0.3-1.2-0.2-1.6
						c-0.4-0.3-1-0.3-1.4,0l-1.9,1.9c-0.7,0.7-2.3-1-1.7-1.7l4.4-4.4l0.6-0.6L-148.3,1177z M-155.4,1178c-0.3,0-0.5,0.2-0.8,0.4
						c-0.5,0.5-0.5,1.2-0.1,1.6c0.5,0.5,1.2,0.5,1.7,0c0.5-0.5,0.5-1.2,0-1.7C-154.8,1178.1-155.1,1178-155.4,1178z M-144,1179.7
						c-0.3,0-0.6,0.1-0.9,0.4c-0.5,0.5-0.5,1.2,0,1.7c0.4,0.4,1.1,0.4,1.6-0.1c0.5-0.5,0.5-1.2,0.1-1.6
						C-143.4,1179.8-143.7,1179.7-144,1179.7z M-140.7,1182.9c-0.3,0-0.6,0.1-0.9,0.4l-3.3,3.3c-0.4,0.4-0.4,1.1,0,1.5
						c0.5,0.5,1.2,0.4,1.6,0.1l3.3-3.2c0.5-0.5,0.5-1.2,0-1.7C-140.2,1183-140.4,1182.9-140.7,1182.9z M-153.5,1185.4
						c0.4,0.7,0.9,1.3,1.7,1.7l-1.5,1.5c-1.6,1.6-1.6,3.8-0.4,5.1c0.3,0.3,0.8,0.3,1.1,0.4l-6.9,6.9c-2.4,2.4-5.9,2.3-8.2,0.1
						c-2.2-2.2-2.3-5.9,0.1-8.3l5-5l1.4-1.4c0.2,0.4,0.3,0.8,0.6,1.1c0.6,0.6,1.3,0.9,2.2,1c0.9,0.1,1.8-0.2,2.5-0.9L-153.5,1185.4z
						 M-162.8,1191.6c-1.2,0-2.3,0.5-3.2,1.4c-1.8,1.8-1.8,4.7,0,6.5c1.8,1.8,4.7,1.8,6.5,0c1.8-1.8,1.8-4.7,0-6.5
						C-160.4,1192.1-161.6,1191.6-162.8,1191.6z M-162.8,1193.9c0.6,0,1.2,0.2,1.7,0.6c0.9,0.9,0.9,2.3,0,3.2
						c-0.9,0.9-2.4,0.9-3.3,0c-0.9-0.9-0.9-2.3,0-3.2C-164,1194.1-163.4,1193.9-162.8,1193.9z"/>
				</g>
			</g>
		</g>
	</g>
</g>
</svg>
