<?xml version="1.0" encoding="utf-8"?>
<!-- Generator: Adobe Illustrator 24.0.2, SVG Export Plug-In . SVG Version: 6.00 Build 0)  -->
<svg version="1.1"
	 id="svg4475" inkscape:version="0.48.4 r9939" sodipodi:docname="8 pluto planet astrology smallest solar system.svg" xmlns:cc="http://creativecommons.org/ns#" xmlns:dc="http://purl.org/dc/elements/1.1/" xmlns:inkscape="http://www.inkscape.org/namespaces/inkscape" xmlns:rdf="http://www.w3.org/1999/02/22-rdf-syntax-ns#" xmlns:sodipodi="http://sodipodi.sourceforge.net/DTD/sodipodi-0.dtd" xmlns:svg="http://www.w3.org/2000/svg"
	 xmlns="http://www.w3.org/2000/svg" xmlns:xlink="http://www.w3.org/1999/xlink" x="0px" y="0px" viewBox="0 0 64 64"
	 style="enable-background:new 0 0 64 64;" xml:space="preserve">
<sodipodi:namedview  bordercolor="#666666" borderopacity="1.0" id="base" inkscape:bbox-nodes="true" inkscape:bbox-paths="true" inkscape:current-layer="g14600" inkscape:cx="5.3528482" inkscape:cy="27.364056" inkscape:document-units="px" inkscape:pageopacity="0.0" inkscape:pageshadow="2" inkscape:snap-bbox="true" inkscape:snap-bbox-edge-midpoints="true" inkscape:snap-bbox-midpoints="true" inkscape:snap-global="true" inkscape:window-height="705" inkscape:window-maximized="1" inkscape:window-width="1366" inkscape:window-x="-8" inkscape:window-y="-8" inkscape:zoom="7.9195959" pagecolor="#ffffff" showgrid="true">
	<inkscape:grid  empspacing="5" enabled="true" id="grid4527" snapvisiblegridlinesonly="true" type="xygrid" visible="true">
		</inkscape:grid>
</sodipodi:namedview>
<g id="layer1" transform="translate(0,-1020.3622)" inkscape:groupmode="layer" inkscape:label="Layer 1">
	<g id="g10414" transform="translate(309.5948,-461.25192)">
		<g id="g15415" transform="translate(66.405195,515.25192)">
			<g id="g15417" transform="translate(-150,-49.999983)">
				<g id="g14600" transform="translate(-49.999995,-130.00002)">
					<path id="path10047" d="M-144.4,1146.4c-1.3,0-2.6,0.2-3.9,0.4c-1.9,0.2-3.8,0.5-5.7,1.1c-0.2,0.1-0.3,0.2-0.4,0.3
						c-12.5,4.3-21.6,16.1-21.6,30.1c0,17.7,14.4,32,32,32c3.3,0,6.5-0.5,9.5-1.4c2-0.6,3.9-1.4,5.7-2.4c0,0,0,0,0.1-0.1
						c0,0,0,0,0.1,0c0,0,0.1,0,0.1-0.1c0.1,0,0.2-0.1,0.2-0.2c9.7-5.5,16.3-15.9,16.3-27.8c0-1.1-0.1-2.2-0.2-3.2
						c-1.3-12.9-10.3-23.5-22.3-27.2c0,0,0-0.1-0.1-0.1c-3-0.9-6.2-1.4-9.5-1.4c-0.1,0-0.1,0-0.2,0
						C-144.3,1146.4-144.3,1146.4-144.4,1146.4z M-144.1,1148.4c1,0,2,0.1,3.1,0.2c0,0,0,0,0.1,0c1,0.1,2,0.2,2.9,0.4c0,0,0,0,0.1,0
						c0.6,0.1,1.2,0.3,1.7,0.5c0.1,1.5,1.4,2.6,2.9,2.6h1.9c0.7,0,1.1,0.4,1.1,1.1c0,0.4-0.4,0.9-1.1,0.9h-1.9h-1.9
						c-1.7,0-3.1,1.3-3.1,2.9c0,1.7,1.4,3.1,3.1,3.1h1.9h5.8c0.4,0,0.9,0.4,0.9,0.9c0,0.4-0.5,0.9-0.9,0.9h-11.3
						c-0.8,0-1.6,0.4-2.1,0.9c-0.5,0.6-0.8,1.3-0.8,2.1c0,1.5,1.3,2.9,2.9,2.9h5.8c0.4,0,0.9,0.5,0.9,0.9c0,0.7-0.4,1-0.9,1h-1.9
						c-1.7,0-3.1,1.3-3.1,2.9c0,1.6,1.4,2.9,3.1,2.9h3.7c0.4,0,0.9,0.3,0.9,1c0,0.4-0.4,0.9-0.9,0.9h-5.5h-4.6
						c-1.6,0-2.9,1.3-2.9,2.9c0,1.7,1.3,3,2.9,3h4.6h3.6c0.4,0,0.9,0.5,0.9,0.9c0,0.4-0.4,0.9-0.9,0.9h-3.9c-1.6,0-2.9,1.4-2.9,3.1
						c0,1.6,1.3,2.9,2.9,2.9h3.9c0.4,0,0.9,0.4,0.9,0.9c0,0.7-0.4,1.1-0.9,1.1h-6.1c-1.6,0-2.9,1.3-2.9,2.9s1.3,2.9,2.9,2.9h5.8h3.9
						c0.7,0,1.1,0.4,1.1,1.1c0,0.4-0.4,0.9-1.1,0.9h-3.9c-1.6,0-2.9,1.3-2.9,2.9c0,1.5,1,2.7,2.3,3c-2.4,0.8-4.8,1.4-7.4,1.6
						c0.1-0.2,0.2-0.4,0.2-0.7c0-1.6-1.3-2.9-3-2.9h-7.7c-0.4,0-0.9-0.4-0.9-1.1c0-0.4,0.4-0.9,0.9-0.9h3.9c1.7,0,3.1-1.3,3.1-2.9
						c0-1.7-1.4-3.1-3.1-3.1h-3.9h-5.8c-0.4,0-0.9-0.4-0.9-0.9c0-0.4,0.4-0.9,0.9-0.9h6.1c1.6,0,2.9-1.4,2.9-3.1
						c0-1.6-1.3-2.9-2.9-2.9h-3.9c-0.4,0-0.9-0.4-0.9-0.9c0-0.7,0.4-1.1,0.9-1.1h3.9c1.6,0,2.9-1.3,2.9-2.9c0-1.6-1.3-2.9-2.9-2.9
						h-3.6h-4.5c-0.3,0-0.5-0.1-0.6-0.2c-0.1-0.2-0.3-0.4-0.3-0.7c0-0.5,0.3-0.9,0.9-0.9h4.5h5.5c1.6,0,2.9-1.3,2.9-2.9
						c0-1.7-1.3-3-2.9-3h-3.9c-0.4,0-0.9-0.5-0.9-0.9c0-0.4,0.5-0.9,0.9-0.9h2c1.6,0,2.9-1.3,2.9-3c0-1.6-1.3-2.9-2.9-2.9h-5.8
						c-0.7,0-1.1-0.4-1.1-0.9c0-0.7,0.4-1.1,1.1-1.1h11.4c1.6,0,2.9-1.3,2.9-2.9c0-1.6-1.3-2.9-2.9-2.9h-5.9h-1.9
						c-0.7,0-1-0.4-1-1.1c0-0.4,0.3-0.9,1-0.9h1.9h1.9c1.7,0,3-1.3,3-2.9c0-1.7-1.3-3.1-3-3.1h-1.9c-0.3,0-0.3-0.3-0.5-0.5
						C-149.6,1148.8-146.8,1148.4-144.1,1148.4z M-154.4,1150.3c0.4,1.1,1.4,1.8,2.6,1.8h1.9c0.7,0,1,0.4,1,1.1c0,0.4-0.3,0.9-1,0.9
						h-1.9h-1.9c-1.7,0-3,1.3-3,2.9c0,1.7,1.3,3.1,3,3.1h1.9h5.9c0.4,0,0.9,0.4,0.9,0.9c0,0.4-0.4,0.9-0.9,0.9h-11.4
						c-1.7,0-3.1,1.4-3.1,3.1c0,1.6,1.4,2.9,3.1,2.9h5.8c0.4,0,0.9,0.5,0.9,0.9c0,0.7-0.4,1-0.9,1h-2c-1.6,0-2.9,1.3-2.9,2.9
						s1.3,2.9,2.9,2.9h3.9c0.4,0,0.9,0.3,0.9,1c0,0.4-0.5,0.9-0.9,0.9h-5.5h-4.5c-1.7,0-2.9,1.4-2.9,2.9c0,0.8,0.3,1.6,0.8,2.1
						s1.3,0.9,2.1,0.9h4.5h3.6c0.4,0,0.9,0.5,0.9,0.9c0,0.4-0.4,0.9-0.9,0.9h-3.9c-1.6,0-2.9,1.4-2.9,3.1c0,1.6,1.3,2.9,2.9,2.9h3.9
						c0.4,0,0.9,0.4,0.9,0.9c0,0.7-0.4,1.1-0.9,1.1h-6.1c-1.6,0-2.9,1.3-2.9,2.9s1.3,2.9,2.9,2.9h5.8h3.9c0.7,0,1.1,0.4,1.1,1.1
						c0,0.4-0.4,0.9-1.1,0.9h-3.9c-1.6,0-2.9,1.3-2.9,2.9c0,1.7,1.3,3.1,2.9,3.1h7.7c0.7,0,1,0.4,1,0.9c0,0.4-0.3,0.9-1,0.9
						c-16.5,0-30-13.3-30-30C-174,1165.4-165.8,1154.5-154.4,1150.3z M-128.5,1152.7c0.4,0.2,0.8,0.5,1.2,0.7c0,0,0,0,0.1,0
						c6.4,4.3,11,11,12.6,18.8c0.2,1,0.4,2,0.5,3c0.1,1,0.1,2,0.1,3.1c0,2-0.2,3.9-0.6,5.7c0,0.1,0,0.2-0.1,0.3c0,0.1,0,0.2-0.1,0.3
						c-0.4,1.8-1,3.7-1.7,5.4c-0.3,0.6-0.6,1.3-0.9,1.9c0,0,0,0.1-0.1,0.1c-2.7,5.3-7.1,9.6-12.3,12.4h-3.7c-0.4,0-0.9-0.4-0.9-1.1
						c0-0.4,0.4-0.9,0.9-0.9h3.9c1.7,0,3.1-1.3,3.1-2.9c0-1.7-1.4-3.1-3.1-3.1h-3.9h-5.8c-0.4,0-0.9-0.4-0.9-0.9
						c0-0.4,0.4-0.9,0.9-0.9h6.1c1.6,0,2.9-1.4,2.9-3.1c0-1.6-1.3-2.9-2.9-2.9h-3.9c-0.4,0-0.9-0.4-0.9-0.9c0-0.7,0.4-1.1,0.9-1.1
						h3.9c1.6,0,2.9-1.3,2.9-2.9c0-1.6-1.3-2.9-2.9-2.9h-3.6h-4.6c-0.4,0-0.9-0.3-0.9-1c0-0.4,0.4-0.9,0.9-0.9h4.6h5.5
						c1.6,0,2.9-1.3,2.9-2.9c0-1.7-1.3-3-2.9-3h-3.7c-0.7,0-1.1-0.5-1.1-0.9c0-0.4,0.4-0.9,1.1-0.9h1.9c1.6,0,2.9-1.3,2.9-3
						c0-1.6-1.3-2.9-2.9-2.9h-5.8c-0.7,0-0.9-0.3-0.9-0.9c0-0.4,0.1-0.7,0.2-0.8c0.1-0.2,0.4-0.2,0.7-0.2h11.3
						c1.6,0,2.9-1.3,2.9-2.9c0-1.6-1.3-2.9-2.9-2.9h-5.8h-1.9c-0.7,0-1.1-0.4-1.1-1.1c0-0.4,0.4-0.9,1.1-0.9h1.9h1.9
						c1.7,0,3.1-1.3,3.1-2.9C-128.4,1153-128.5,1152.9-128.5,1152.7z"/>
				</g>
			</g>
		</g>
	</g>
</g>
</svg>
