<?xml version="1.0" encoding="utf-8"?>
<!-- Generator: Adobe Illustrator 24.0.2, SVG Export Plug-In . SVG Version: 6.00 Build 0)  -->
<svg version="1.1"
	 id="svg4475" inkscape:version="0.48.4 r9939" sodipodi:docname="18 radio satellite electric wave communication space spaceship telescope tracker.svg" xmlns:cc="http://creativecommons.org/ns#" xmlns:dc="http://purl.org/dc/elements/1.1/" xmlns:inkscape="http://www.inkscape.org/namespaces/inkscape" xmlns:rdf="http://www.w3.org/1999/02/22-rdf-syntax-ns#" xmlns:sodipodi="http://sodipodi.sourceforge.net/DTD/sodipodi-0.dtd" xmlns:svg="http://www.w3.org/2000/svg"
	 xmlns="http://www.w3.org/2000/svg" xmlns:xlink="http://www.w3.org/1999/xlink" x="0px" y="0px" viewBox="0 0 50.1 64"
	 style="enable-background:new 0 0 50.1 64;" xml:space="preserve">
<sodipodi:namedview  bordercolor="#666666" borderopacity="1.0" id="base" inkscape:bbox-nodes="true" inkscape:bbox-paths="true" inkscape:current-layer="g14600" inkscape:cx="6.5192247" inkscape:cy="5.071352" inkscape:document-units="px" inkscape:pageopacity="0.0" inkscape:pageshadow="2" inkscape:snap-bbox="true" inkscape:snap-bbox-edge-midpoints="true" inkscape:snap-bbox-midpoints="true" inkscape:snap-global="true" inkscape:window-height="705" inkscape:window-maximized="1" inkscape:window-width="1366" inkscape:window-x="-8" inkscape:window-y="-8" inkscape:zoom="7.9195959" pagecolor="#ffffff" showgrid="true">
	<inkscape:grid  empspacing="5" enabled="true" id="grid4527" snapvisiblegridlinesonly="true" type="xygrid" visible="true">
		</inkscape:grid>
</sodipodi:namedview>
<g id="layer1" transform="translate(0,-1020.3622)" inkscape:groupmode="layer" inkscape:label="Layer 1">
	<g id="g10414" transform="translate(309.5948,-461.25192)">
		<g id="g15415" transform="translate(66.405195,515.25192)">
			<g id="g15417" transform="translate(-150,-49.999983)">
				<g id="g14600" transform="translate(-49.999995,-130.00002)">
					<path id="path11038" d="M-145.2,1146.4c-0.6,0.1-0.9,0.6-0.8,1.2c0.1,0.6,0.6,0.9,1.2,0.8c0,0,0,0,0,0c9.5,0,17,7.3,17,16.4
						c0,0.6,0.4,1,1,1c0.6,0,1-0.4,1-1c0,0,0,0,0,0c0-10.2-8.5-18.4-19-18.4C-145,1146.4-145.1,1146.4-145.2,1146.4z M-160.9,1149.4
						c-0.1,0.1-0.3,0.1-0.4,0.3c-5.6,5.5-7.9,13.7-5.8,21.2c1.1,4.1,3.4,7.6,6.4,10.4c-0.8,1.9-0.4,4.1,1,5.6v8.1
						c-0.1,0-0.1,0-0.2,0.1c0,0-0.1,0-0.1,0.1c-1.8,1.1-3,3.1-3.2,5.2h-7.8c0,0,0,0-0.1,0c-0.2,0-0.5,0.1-0.6,0.3l-4,3.9
						c-0.2,0.2-0.3,0.5-0.3,0.7v4.1c0,0.6,0.4,1,1,1h4c0.6,0,1-0.4,1-1v-0.7l2.6-2.4h21.5l2.6,2.4v0.7c0,0.6,0.4,1,1,1h4.1
						c0.6,0,1-0.4,1-1v-4.1c0-0.3-0.1-0.6-0.3-0.7l-4.1-3.9c-0.2-0.2-0.4-0.3-0.7-0.3h-7.8c-0.2-2.1-1.4-4.1-3.2-5.2c0,0,0,0-0.1,0
						c-0.1,0-0.2-0.1-0.2-0.1v-7.3c0.6-0.3,1.1-0.8,1.6-1.4c0.3,0.1,0.6,0.2,0.9,0.3c7.9,2,16.1-0.2,21.9-5.8c0.4-0.4,0.4-1,0-1.4
						c0,0,0,0,0,0l-12-11.7c0.6-1,0.7-2.2,0.4-3.3c-0.4-1.6-1.8-2.7-3.4-3.1c-0.7-0.2-1.4-0.2-2.1-0.1c-0.4,0.1-0.8,0.2-1.2,0.4
						l-12.4-11.9C-160.1,1149.4-160.5,1149.3-160.9,1149.4z M-160.4,1151.9l11.6,11.2l0.1,0.1c0,0,0,0,0,0.1
						c0.1,0.4,0.4,0.8,0.9,0.8l2,1.9l2.2,2.2c0,0,0,0.1,0.1,0.1c0.1,0.3,0.3,0.5,0.6,0.6c0,0,0.1,0,0.1,0.1l11.3,11.1
						c-5.2,4.6-12.3,6.5-19.1,4.7c-7-1.9-12.6-7.3-14.5-14.3C-166.9,1163.8-165,1156.8-160.4,1151.9z M-145,1151.9
						c-0.6,0-1,0.5-0.9,1.1s0.5,1,1.1,0.9c6.2,0,11.3,4.8,11.3,10.9c0,0.6,0.4,1,1,1c0.6,0,1-0.4,1-1c0,0,0,0,0,0
						c0-7.2-6-12.9-13.3-12.9C-144.9,1151.9-145,1151.9-145,1151.9z M-144.9,1157.4c-0.6,0-1,0.5-1,1s0.5,1,1,1
						c3.2,0,5.4,2.4,5.4,5.3c0,0.6,0.4,1,1,1s1-0.4,1-1c0,0,0,0,0,0C-137.4,1160.8-140.7,1157.4-144.9,1157.4
						C-144.9,1157.4-144.9,1157.4-144.9,1157.4z M-145.9,1163.1c0.4,0,0.8,0,1.3,0.1c0.9,0.2,1.7,0.9,1.9,1.7c0.1,0.6,0.2,1,0.1,1.4
						l-1.8-1.7L-145.9,1163.1z M-159.1,1182.7c1.5,1.2,3.2,2.1,5,2.9c-0.9,0.8-2.3,1-3.6,0.3C-158.8,1185.2-159.3,1184-159.1,1182.7
						z M-157.7,1188.1c0.7,0.2,1.4,0.3,2.1,0.2v6.1c-0.3,0-0.7-0.1-1-0.1c-0.4,0-0.8,0.1-1.1,0.1V1188.1z M-156.6,1196.3
						c0.8,0,1.6,0.2,2.3,0.6c1.2,0.8,2,2.1,2.2,3.5h-9.1c0.2-1.4,0.9-2.7,2.2-3.5C-158.2,1196.5-157.4,1196.3-156.6,1196.3z
						 M-170.6,1202.4h27.9l3.6,3.3v2.7h-2.1v-0.1c0-0.3-0.1-0.6-0.3-0.8l-3.2-3c-0.2-0.2-0.4-0.3-0.7-0.3h-22.2
						c-0.3,0-0.5,0.1-0.7,0.3l-3.2,3c-0.2,0.2-0.3,0.5-0.3,0.8v0.1h-2v-2.7L-170.6,1202.4z"/>
				</g>
			</g>
		</g>
	</g>
</g>
</svg>
