<?xml version="1.0" encoding="utf-8"?>
<!-- Generator: Adobe Illustrator 24.0.2, SVG Export Plug-In . SVG Version: 6.00 Build 0)  -->
<svg version="1.1"
	 id="svg4475" inkscape:version="0.48.4 r9939" sodipodi:docname="1 satellite space track galaxy spaceship astrology planet.svg" xmlns:cc="http://creativecommons.org/ns#" xmlns:dc="http://purl.org/dc/elements/1.1/" xmlns:inkscape="http://www.inkscape.org/namespaces/inkscape" xmlns:rdf="http://www.w3.org/1999/02/22-rdf-syntax-ns#" xmlns:sodipodi="http://sodipodi.sourceforge.net/DTD/sodipodi-0.dtd" xmlns:svg="http://www.w3.org/2000/svg"
	 xmlns="http://www.w3.org/2000/svg" xmlns:xlink="http://www.w3.org/1999/xlink" x="0px" y="0px" viewBox="0 0 64 61.9"
	 style="enable-background:new 0 0 64 61.9;" xml:space="preserve">
<sodipodi:namedview  bordercolor="#666666" borderopacity="1.0" id="base" inkscape:bbox-nodes="true" inkscape:bbox-paths="true" inkscape:current-layer="g14600" inkscape:cx="7.5949772" inkscape:cy="21.540593" inkscape:document-units="px" inkscape:pageopacity="0.0" inkscape:pageshadow="2" inkscape:snap-bbox="true" inkscape:snap-bbox-edge-midpoints="true" inkscape:snap-bbox-midpoints="true" inkscape:snap-global="true" inkscape:window-height="705" inkscape:window-maximized="1" inkscape:window-width="1366" inkscape:window-x="-8" inkscape:window-y="-8" inkscape:zoom="11.2" pagecolor="#ffffff" showgrid="true">
	<inkscape:grid  empspacing="5" enabled="true" id="grid4527" snapvisiblegridlinesonly="true" type="xygrid" visible="true">
		</inkscape:grid>
</sodipodi:namedview>
<g id="layer1" transform="translate(0,-1020.3622)" inkscape:groupmode="layer" inkscape:label="Layer 1">
	<g id="g10414" transform="translate(309.5948,-461.25192)">
		<g id="g15415" transform="translate(66.405195,515.25192)">
			<g id="g15417" transform="translate(-150,-49.999983)">
				<g id="g14600" transform="translate(-49.999995,-130.00002)">
					<path id="rect8861" inkscape:connector-curvature="0" d="M-147.5,1146.4c-0.5,0.1-0.8,0.6-0.7,1.1v6.4c0,0.6,0.5,1.1,1.1,1.1
						h2.1v2.1h-4.3c-0.1,0-0.2,0-0.3,0c-0.5,0.1-0.8,0.6-0.7,1.1v17.1h-2.1v-4.3c0-0.6-0.5-1.1-1.1-1.1h-21.3c-0.1,0-0.2,0-0.3,0
						c-0.5,0.1-0.8,0.6-0.7,1.1v4.3v2.1v4.3c0,0.6,0.5,1.1,1.1,1.1h21.3c0.6,0,1.1-0.5,1.1-1.1v-4.3h2.1v8.5c0,0.6,0.5,1.1,1.1,1.1
						h4.3v4.4c-3.6,0.5-6.5,3.2-7.3,6.7c0,0.2,0,0.4-0.1,0.6h-6.7c-0.5-3-3.1-5.3-6.3-5.3c-0.6,0-1.1,0.5-1.1,1.1v5.3v5.3
						c0,0.1,0,0.1,0,0.2c0.1,0.5,0.5,0.9,1.1,0.9c3.2,0,5.8-2.3,6.3-5.3h6.7c0.5,4.2,4.1,7.5,8.4,7.5c4.3,0,7.9-3.3,8.4-7.5h6.7
						c0.5,3,3.1,5.3,6.3,5.3c0.5,0,1-0.4,1.1-0.9c0-0.1,0-0.1,0-0.2v-5.3v-5.3c0-0.6-0.5-1.1-1.1-1.1c-3.2,0-5.7,2.3-6.3,5.3h-6.7
						c-0.5-3.8-3.5-6.9-7.3-7.3v-4.4h4.3c0.6,0,1.1-0.5,1.1-1.1v-8.5h2.1v4.3c0,0.6,0.5,1.1,1.1,1.1h21.3c0.6,0,1.1-0.5,1.1-1.1
						v-10.7c0-0.6-0.5-1.1-1.1-1.1h-21.3c-0.1,0-0.2,0-0.3,0c-0.5,0.1-0.8,0.6-0.7,1.1v4.3h-1.1h-1.1v-17.1c0-0.6-0.5-1.1-1.1-1.1
						h-4.3v-2.1h2.1c0.6,0,1.1-0.5,1.1-1.1v-6.4c0-0.6-0.5-1.1-1.1-1.1h-6.4C-147.3,1146.4-147.4,1146.4-147.5,1146.4L-147.5,1146.4
						z M-146.1,1148.5h4.3v4.3h-4.3V1148.5z M-148.3,1159.2h8.5v12.8h-8.5V1159.2z M-173.9,1172h2.1v3.2h-2.1V1172z M-169.6,1172
						h2.1v3.2h-2.1V1172z M-165.3,1172h2.1v3.2h-2.1V1172z M-161.1,1172h2.1v3.2h-2.1V1172z M-156.8,1172h2.1v3.2h-2.1V1172z
						 M-133.3,1172h2.1v3.2h-2.1V1172z M-129.1,1172h2.1v3.2h-2.1V1172z M-124.8,1172h2.1v3.2h-2.1V1172z M-120.5,1172h2.1v3.2h-2.1
						V1172z M-116.3,1172h2.1v3.2h-2.1V1172z M-148.3,1174.1h8.5v10.7h-8.5V1174.1z M-173.9,1177.3h2.1v3.2h-2.1V1177.3z
						 M-169.6,1177.3h2.1v3.2h-2.1V1177.3z M-165.3,1177.3h2.1v3.2h-2.1V1177.3z M-161.1,1177.3h2.1v3.2h-2.1V1177.3z
						 M-156.8,1177.3h2.1v3.2h-2.1V1177.3z M-133.3,1177.3h2.1v3.2h-2.1V1177.3z M-129.1,1177.3h2.1v3.2h-2.1V1177.3z
						 M-124.8,1177.3h2.1v3.2h-2.1V1177.3z M-120.5,1177.3h2.1v3.2h-2.1V1177.3z M-116.3,1177.3h2.1v3.2h-2.1V1177.3z M-144,1193.3
						c3.5,0,6.4,2.9,6.4,6.4c0,3.5-2.9,6.4-6.4,6.4s-6.4-2.9-6.4-6.4c0-0.4,0-0.8,0.1-1.3C-149.7,1195.5-147.1,1193.3-144,1193.3z
						 M-164.3,1195.8c1.8,0.5,3.2,1.9,3.2,3.9c0,1.9-1.4,3.3-3.2,3.8v-3.8V1195.8z M-123.7,1195.8v3.9v3.8c-1.8-0.5-3.2-1.9-3.2-3.8
						C-126.9,1197.8-125.5,1196.4-123.7,1195.8z"/>
				</g>
			</g>
		</g>
	</g>
</g>
</svg>
