<?xml version="1.0" encoding="utf-8"?>
<!-- Generator: Adobe Illustrator 24.0.2, SVG Export Plug-In . SVG Version: 6.00 Build 0)  -->
<svg version="1.1"
	 id="svg4475" inkscape:version="0.48.4 r9939" sodipodi:docname="29 saturn solar system planet ring galaxy universe astrology.svg" xmlns:cc="http://creativecommons.org/ns#" xmlns:dc="http://purl.org/dc/elements/1.1/" xmlns:inkscape="http://www.inkscape.org/namespaces/inkscape" xmlns:rdf="http://www.w3.org/1999/02/22-rdf-syntax-ns#" xmlns:sodipodi="http://sodipodi.sourceforge.net/DTD/sodipodi-0.dtd" xmlns:svg="http://www.w3.org/2000/svg"
	 xmlns="http://www.w3.org/2000/svg" xmlns:xlink="http://www.w3.org/1999/xlink" x="0px" y="0px" viewBox="0 0 64 52.8"
	 style="enable-background:new 0 0 64 52.8;" xml:space="preserve">
<sodipodi:namedview  bordercolor="#666666" borderopacity="1.0" id="base" inkscape:bbox-nodes="true" inkscape:bbox-paths="true" inkscape:current-layer="g14600" inkscape:cx="5.3528482" inkscape:cy="27.364056" inkscape:document-units="px" inkscape:pageopacity="0.0" inkscape:pageshadow="2" inkscape:snap-bbox="true" inkscape:snap-bbox-edge-midpoints="true" inkscape:snap-bbox-midpoints="true" inkscape:snap-global="true" inkscape:window-height="705" inkscape:window-maximized="1" inkscape:window-width="1366" inkscape:window-x="-8" inkscape:window-y="-8" inkscape:zoom="7.9195959" pagecolor="#ffffff" showgrid="true">
	<inkscape:grid  empspacing="5" enabled="true" id="grid4527" snapvisiblegridlinesonly="true" type="xygrid" visible="true">
		</inkscape:grid>
</sodipodi:namedview>
<g id="layer1" transform="translate(0,-1020.3622)" inkscape:groupmode="layer" inkscape:label="Layer 1">
	<g id="g10414" transform="translate(309.5948,-461.25192)">
		<g id="g15415" transform="translate(66.405195,515.25192)">
			<g id="g15417" transform="translate(-150,-49.999983)">
				<g id="g14600" transform="translate(-49.999995,-130.00002)">
					<path id="path9997" d="M-144.1,1146.4c-7.2,0-13.6,3-18.3,7.8c0,0,0,0,0,0.1c0,0-0.1,0-0.1,0.1c-0.1,0.1-0.2,0.1-0.3,0.3
						c-0.3,0.3-0.6,0.7-0.9,1.1c-0.1,0.1-0.3,0.3-0.4,0.4c-0.1,0.1-0.2,0.3-0.3,0.4c-0.1,0.1-0.1,0.2-0.2,0.3
						c-0.2,0.3-0.4,0.5-0.6,0.8c-0.1,0.2-0.2,0.4-0.4,0.6c-0.1,0.2-0.3,0.4-0.4,0.6c-0.1,0.1-0.1,0.2-0.1,0.4
						c-2.4,3.9-3.8,8.5-3.9,13.4c0,0,0,0.1,0,0.1c0,0,0,0.1,0,0.1c0,1.3,0.1,2.7,0.3,4c0,0,0,0,0,0.1c0,0.1,0,0.2,0.1,0.3
						c0.2,1.1,0.4,2.1,0.7,3.1c-2.4,2.2-4.4,3.9-5.7,5.6c-0.7,0.9-1.2,1.8-1.3,2.8c-0.1,1,0.1,2,0.6,2.9c0,0,0,0,0,0.1
						c0.9,1.7,2.6,2.7,4.9,3c2.3,0.3,5.2-0.2,8.7-1.4c0.3-0.1,0.6-0.2,0.8-0.3c4.6,3.9,10.4,6.4,16.8,6.4
						c13.7,0,24.8-10.8,25.9-24.4c0,0,0,0,0-0.1c0.1-0.7,0.1-1.4,0.1-2.1c0-2.1-0.3-4-0.7-5.9c2.3-2.2,4.3-4.5,5.5-6.6
						c0.7-1.2,1.1-2.4,1.3-3.5c0.1-1-0.1-2-0.8-2.8l0.1-0.1c0,0-0.1,0-0.1-0.1c-0.8-1.1-2.4-1.6-4.4-1.5c0,0,0,0-0.1,0
						c0,0,0,0-0.1-0.1h-0.3c0,0,0,0-0.1,0c-2.1,0.1-4.9,0.9-8.1,1.9C-130.5,1149.4-137,1146.4-144.1,1146.4z M-144.1,1148.4
						c7.4,0,13.9,3.4,18.3,8.7c0.1,0.2,0.3,0.4,0.4,0.6c0,0.1,0.1,0.1,0.1,0.2c1,1.3,1.9,2.7,2.6,4.2h-11.9c-1.7,0-2.9,1.4-2.9,2.9
						c0,1.5,1.2,2.9,2.9,2.9h3.6h2.3c-2.5,1.9-5.3,3.9-8.4,5.9h-3.3c-2.6,0-4.8,2.2-4.8,4.8v0.1c-6.8,3.9-13.4,7-18.2,8.6
						c-1.1-1.5-2-3-2.7-4.8c0-0.1,0-0.2-0.1-0.3c-0.2-0.5-0.4-1-0.6-1.6c-0.3-1-0.6-2-0.8-3.1h10c1.6,0,2.9-1.4,2.9-2.9
						c0-1.7-1.3-3.1-2.9-3.1h-10.4c0-0.4,0-0.9,0.1-1.3h10.4c0.6,0,1-0.4,1-1c0-0.6-0.4-1-1-1c0,0,0,0,0,0h-10.1
						c0.5-3,1.6-5.8,3.1-8.3h16.6c1.6,0,2.9-1.4,2.9-2.9c0-1.7-1.3-3-2.9-3h-11.6C-155.3,1150.6-150,1148.4-144.1,1148.4z
						 M-140.2,1154.1c-1.6,0-2.9,1.3-2.9,3c0,1.6,1.3,2.9,2.9,2.9c1.6,0,2.9-1.4,2.9-2.9C-137.4,1155.5-138.6,1154.1-140.2,1154.1z
						 M-117.6,1154.2C-117.6,1154.2-117.6,1154.2-117.6,1154.2c2.1-0.1,2.8,0.3,3.1,0.8c0,0,0.1,0.1,0.1,0.1
						c0.3,0.3,0.5,0.7,0.4,1.4c-0.1,0.7-0.5,1.7-1.1,2.8c-1.2,2.1-3.4,4.6-6,7c0,0,0,0,0,0.1c-2.5,2.4-5.7,5-9.3,7.6
						c-0.1,0.1-0.2,0.1-0.3,0.3c-3.1,2.2-6.5,4.4-10,6.5c-0.5,0.3-0.9,0.5-1.4,0.8c-0.1,0.1-0.2,0.1-0.3,0.3
						c-5.7,3.4-11.5,6.2-16.5,8.3c0,0-0.1,0-0.1,0.1c0,0,0,0-0.1,0c-0.1,0-0.1,0.1-0.2,0.1c-1.1,0.4-2.2,0.8-3.3,1.2
						c-3.4,1.1-5.9,1.5-7.8,1.3c-1.8-0.2-2.8-0.9-3.4-1.9c0,0,0,0-0.1-0.1c-0.4-0.6-0.5-1.1-0.4-1.6c0.1-0.5,0.4-1.1,0.9-1.9
						c0.9-1.2,2.7-3,4.8-4.8c0.1,0.2,0.2,0.3,0.3,0.5c-0.9,1.5-1.6,2.7-1.6,4c0,0,0,0,0,0.1c0,0.7,0.2,1.5,0.6,1.9
						c0.5,0.5,1.1,0.7,1.7,0.9c1.2,0.3,2.7,0.3,3.9-0.1c0,0,0,0,0.1-0.1c5.1-1.7,12-4.9,19.3-9.1c0.4,0,0.7-0.2,0.9-0.6
						c0.8-0.5,1.7-0.9,2.5-1.4c1.5-0.9,2.8-1.7,4.3-2.6c0.4,0,0.8-0.2,0.9-0.6c6.2-4,11.7-8.1,15.1-11.5c0,0,0,0,0.1-0.1
						c2-2.2,2.7-4.6,1.9-6.4c-0.5-0.9-1.5-1.4-2.6-1.6c-0.9-0.1-1.9,0.1-3,0.4c0,0-0.1-0.1-0.1-0.1
						C-121.7,1155-119.1,1154.3-117.6,1154.2z M-161.6,1156.1h13.8c0.4,0,0.9,0.3,0.9,1c0,0.5-0.4,0.9-0.9,0.9h-15.3
						C-162.6,1157.4-162.2,1156.8-161.6,1156.1z M-140.2,1156.1c0.4,0,0.9,0.3,0.9,1c0,0.5-0.4,0.9-0.9,0.9c-0.4,0-0.9-0.5-0.9-0.9
						C-141.1,1156.4-140.7,1156.1-140.2,1156.1z M-122.7,1157.6c0.5-0.1,0.9-0.1,1.3,0c0.7,0.1,1,0.3,1.1,0.4c0,0,0,0.1,0,0.1
						c0.2,0.5,0.1,1.5-0.6,2.8c-0.6-1.1-1.3-2.2-2-3.3C-122.8,1157.6-122.7,1157.6-122.7,1157.6z M-134.5,1164h10.6
						c-0.7,0.6-1.4,1.2-2.1,1.8h-1.1h-3.8h-3.6c-0.6,0-0.9-0.4-0.9-0.9C-135.4,1164.3-135.1,1164-134.5,1164z M-153.6,1168.3
						c-0.6,0-1,0.4-1,1c0,0.6,0.4,1,1,1c0.4,0,0.9-0.4,0.9-1C-152.7,1168.7-153.2,1168.3-153.6,1168.3z M-120.5,1168.4
						c0.3,1.4,0.4,2.8,0.4,4.3c0,0.4,0,0.7-0.1,1.1h-4.4h-2.3C-124.5,1171.9-122.4,1170.1-120.5,1168.4z M-167.9,1173.6h10.4
						c0.4,0,0.9,0.4,0.9,1.1c0,0.5-0.4,0.9-0.9,0.9h-10.3C-167.8,1175-167.9,1174.3-167.9,1173.6z M-140.4,1175.7h0.1
						c-0.5,0.3-1,0.6-1.5,0.9c-0.3,0.2-0.7,0.4-1,0.6C-142.2,1176.3-141.3,1175.7-140.4,1175.7z M-129.5,1175.7h4.9h4.1
						c-0.2,1.9-0.7,3.9-1.4,5.8h-16.3C-135.1,1179.6-132.2,1177.7-129.5,1175.7z M-141.4,1183.4c0.4,0.1,0.8,0.1,1,0.1h17.8
						c-0.4,0.8-0.9,1.6-1.4,2.4h-12.4c0,0,0,0-0.1,0c-0.6,0-1,0.5-1,1s0.5,1,1,1h11.1c-4.4,5.7-11.2,9.3-18.8,9.3
						c-3,0-5.8-0.5-8.4-1.6h7.6c0.6,0,1-0.4,1-1s-0.4-1-1-1c0,0,0,0,0,0h-11.5c0,0,0,0-0.1,0c-0.8-0.5-1.5-1.1-2.3-1.6
						c0.1,0,0.1,0,0.2-0.1c0,0,0,0,0.1-0.1c0,0,0,0,0.1,0h11.5c0.6,0,1-0.4,1-1s-0.4-1-1-1c0,0,0,0,0,0h-6.8
						C-149.8,1188-145.6,1185.9-141.4,1183.4z M-167.1,1184.9c0.5,1,1,1.9,1.6,2.8c-0.5,0-1,0-1.4-0.1c-0.4-0.1-0.6-0.2-0.7-0.3
						c-0.1-0.1-0.1-0.2-0.1-0.5c0,0,0,0,0-0.1C-167.7,1186.4-167.4,1185.7-167.1,1184.9z M-140.2,1185.8c-0.6,0-1,0.5-1,1.1
						c0,0.6,0.4,1,1,1c0.6,0,1-0.4,1-1C-139.2,1186.3-139.7,1185.8-140.2,1185.8z M-142.1,1193.8c-0.6,0-1,0.4-1,0.9
						c0,0.6,0.4,1,1,1c0.4,0,0.9-0.4,0.9-1C-141.2,1194.2-141.7,1193.8-142.1,1193.8z"/>
				</g>
			</g>
		</g>
	</g>
</g>
</svg>
