<?xml version="1.0" encoding="utf-8"?>
<!-- Generator: Adobe Illustrator 24.0.2, SVG Export Plug-In . SVG Version: 6.00 Build 0)  -->
<svg version="1.1"
	 id="svg4475" inkscape:version="0.48.4 r9939" sodipodi:docname="11 sky telescope optical radio astronomy mirror glass lense spectrum tracker.svg" xmlns:cc="http://creativecommons.org/ns#" xmlns:dc="http://purl.org/dc/elements/1.1/" xmlns:inkscape="http://www.inkscape.org/namespaces/inkscape" xmlns:rdf="http://www.w3.org/1999/02/22-rdf-syntax-ns#" xmlns:sodipodi="http://sodipodi.sourceforge.net/DTD/sodipodi-0.dtd" xmlns:svg="http://www.w3.org/2000/svg"
	 xmlns="http://www.w3.org/2000/svg" xmlns:xlink="http://www.w3.org/1999/xlink" x="0px" y="0px" viewBox="0 0 61.5 64"
	 style="enable-background:new 0 0 61.5 64;" xml:space="preserve">
<sodipodi:namedview  bordercolor="#666666" borderopacity="1.0" id="base" inkscape:bbox-nodes="true" inkscape:bbox-paths="true" inkscape:current-layer="g14600" inkscape:cx="6.5416683" inkscape:cy="0.040713905" inkscape:document-units="px" inkscape:pageopacity="0.0" inkscape:pageshadow="2" inkscape:snap-bbox="true" inkscape:snap-bbox-edge-midpoints="true" inkscape:snap-bbox-midpoints="true" inkscape:snap-global="true" inkscape:window-height="705" inkscape:window-maximized="1" inkscape:window-width="1366" inkscape:window-x="-8" inkscape:window-y="-8" inkscape:zoom="7.9195959" pagecolor="#ffffff" showgrid="true">
	<inkscape:grid  empspacing="5" enabled="true" id="grid4527" snapvisiblegridlinesonly="true" type="xygrid" visible="true">
		</inkscape:grid>
</sodipodi:namedview>
<g id="layer1" transform="translate(0,-1020.3622)" inkscape:groupmode="layer" inkscape:label="Layer 1">
	<g id="g10414" transform="translate(309.5948,-461.25192)">
		<g id="g15415" transform="translate(66.405195,515.25192)">
			<g id="g15417" transform="translate(-150,-49.999983)">
				<g id="g14600" transform="translate(-49.999995,-130.00002)">
					<path id="path11440" d="M-120.2,1146.4c-0.6,0.2-0.9,0.8-0.8,1.4l-22.9,6.1c-0.6,0.2-1,0.8-0.8,1.5c0,0,0,0,0,0l0.3,1.1
						l-19.4,5.2c-0.6,0.1-1,0.8-0.9,1.4l0.3,1.1l-9.2,2.5l-0.1-0.6c-0.1-0.4-0.7-0.5-1.3-0.4c-0.6,0.2-1.1,0.6-1,1l2.1,7.9
						c0.1,0.4,0.7,0.5,1.3,0.4c0.6-0.2,1.1-0.6,1-1l-0.1-0.4l9.2-2.5l0.3,1.2c0.2,0.6,0.8,1,1.5,0.8c0,0,0,0,0,0l8.6-2.3v1.7h-1.2
						c-0.1,0-0.2,0-0.3,0c-0.5,0.1-0.9,0.6-0.9,1.2v4.7c0,0.6,0.4,1,0.9,1.2c0.1,0,0.2,0,0.3,0h0.6l-11.4,19.7
						c-2.7,0-4.7,2.3-4.7,5.1c0,0.6,0.4,1.1,1,1.2c0.1,0,0.1,0,0.2,0h3.5h3.5c0.7,0,1.2-0.5,1.2-1.2c0-1.8-1-3.5-2.4-4.4l11.8-20.5
						h0.1v24.6c-2.1,0.5-3.7,2.6-3.7,4.9c0,0.6,0.4,1.1,1,1.2c0.1,0,0.1,0,0.2,0h3.5h3.5c0.7,0,1.2-0.5,1.2-1.2
						c0-2.3-1.4-4.2-3.4-4.8v-24.7h0.1l11.7,20.3c-1.5,0.9-2.6,2.6-2.6,4.5c0,0.6,0.4,1.1,1,1.2c0.1,0,0.1,0,0.2,0h3.5h3.5
						c0.7,0,1.2-0.5,1.2-1.2c0-2.6-1.9-4.8-4.4-5l-11.4-19.8h0.7c0.1,0,0.2,0,0.3,0c0.5-0.1,0.9-0.6,0.9-1.2v-4.7c0-0.1,0-0.1,0-0.2
						c-0.1-0.5-0.4-0.8-0.9-1c-0.1,0-0.2,0-0.3,0h-1.2v-3.5l3.8-1l0.3,1.1c0.2,0.6,0.8,1,1.4,0.8l22.9-6.1c0.2,0.7,0.8,1,1.4,0.9
						c0.6-0.2,1-0.8,0.8-1.6l-0.3-1c0,0,0,0,0-0.1l-3.6-13.7c0-0.1-0.1-0.2-0.1-0.3l-0.1-0.6
						C-118.9,1146.7-119.6,1146.2-120.2,1146.4z M-120.4,1150.1l2.1,8l0.9,3.5l-21.6,5.8l-0.4-1.2c-0.2-0.6-0.8-1-1.4-0.8l-10.3,2.7
						c-0.1,0-0.1,0-0.1,0.1l-8.9,2.4l-0.3-1.2c-0.2-0.6-0.8-1-1.4-0.8l-10.3,2.8l-0.3-1.2l-0.3-1.1l10.3-2.8c0.6-0.1,1-0.8,0.9-1.4
						c0,0,0,0,0-0.1l-0.4-1.1l19.4-5.2c0.6-0.2,1-0.8,0.8-1.5c0,0,0,0,0,0l-0.3-1.1L-120.4,1150.1z M-147.5,1169.6v3h-2.4v-2.3
						L-147.5,1169.6z M-152.2,1174.9h7.1v2.4h-7.1V1174.9z M-164.2,1201.7c0.9,0,1.6,0.6,2,1.6h-2h-1.9
						C-165.7,1202.4-165,1201.7-164.2,1201.7z M-133.4,1201.7c0.9,0,1.6,0.6,2,1.6h-2h-1.9C-135,1202.4-134.3,1201.7-133.4,1201.7z
						 M-148.8,1206.4c0.9,0,1.6,0.6,2,1.6h-2h-1.9C-150.3,1207.1-149.7,1206.4-148.8,1206.4z"/>
				</g>
			</g>
		</g>
	</g>
</g>
</svg>
