<?xml version="1.0" encoding="utf-8"?>
<!-- Generator: Adobe Illustrator 24.0.2, SVG Export Plug-In . SVG Version: 6.00 Build 0)  -->
<svg version="1.1"
	 id="svg4475" inkscape:version="0.48.4 r9939" sodipodi:docname="16 space spacesuit universe sky helmet solar.svg" xmlns:cc="http://creativecommons.org/ns#" xmlns:dc="http://purl.org/dc/elements/1.1/" xmlns:inkscape="http://www.inkscape.org/namespaces/inkscape" xmlns:rdf="http://www.w3.org/1999/02/22-rdf-syntax-ns#" xmlns:sodipodi="http://sodipodi.sourceforge.net/DTD/sodipodi-0.dtd" xmlns:svg="http://www.w3.org/2000/svg"
	 xmlns="http://www.w3.org/2000/svg" xmlns:xlink="http://www.w3.org/1999/xlink" x="0px" y="0px" viewBox="0 0 64 60.2"
	 style="enable-background:new 0 0 64 60.2;" xml:space="preserve">
<sodipodi:namedview  bordercolor="#666666" borderopacity="1.0" id="base" inkscape:bbox-nodes="true" inkscape:bbox-paths="true" inkscape:current-layer="g14600" inkscape:cx="5.3528482" inkscape:cy="7.1610049" inkscape:document-units="px" inkscape:pageopacity="0.0" inkscape:pageshadow="2" inkscape:snap-bbox="true" inkscape:snap-bbox-edge-midpoints="true" inkscape:snap-bbox-midpoints="true" inkscape:snap-global="true" inkscape:window-height="705" inkscape:window-maximized="1" inkscape:window-width="1366" inkscape:window-x="-8" inkscape:window-y="-8" inkscape:zoom="7.9195959" pagecolor="#ffffff" showgrid="true">
	<inkscape:grid  empspacing="5" enabled="true" id="grid4527" snapvisiblegridlinesonly="true" type="xygrid" visible="true">
		</inkscape:grid>
</sodipodi:namedview>
<g id="layer1" transform="translate(0,-1020.3622)" inkscape:groupmode="layer" inkscape:label="Layer 1">
	<g id="g10414" transform="translate(309.5948,-461.25192)">
		<g id="g15415" transform="translate(66.405195,515.25192)">
			<g id="g15417" transform="translate(-150,-49.999983)">
				<g id="g14600" transform="translate(-49.999995,-130.00002)">
					<path id="path11106-6" d="M-144.1,1146.4c-4.4,0-8.9,1.2-12.8,3.4c-7.6,4.4-12.3,12.2-12.8,20.9c0,0,0,0.1,0,0.1
						c0,0.1,0,0.1-0.1,0.2v1.1v0.2h-1.1c-1.7,0-3.1,1.4-3.1,3.1v1.1h-0.1c-1.1,0-1.9,1-1.9,2.1v2.1c0,1.1,0.8,2.2,1.9,2.2h0.1v1.1
						c0,1.8,1.4,3.3,3.1,3.3h1.1v1.9c0,0.1,0,0.2,0,0.3v3.8v0.4c0,0.4,0.2,0.8,0.6,0.9c1.9,0.8,3.8,1.6,5.8,2.2v6.3
						c0,0.5,0.3,0.9,0.8,1c11.8,3.5,25.2,3.5,37,0c0.4-0.1,0.7-0.5,0.7-1v-6.3c2-0.6,3.9-1.3,5.8-2.1c0.4-0.2,0.6-0.5,0.6-0.9v-0.4
						v-3.9c0-0.1,0-0.1,0-0.2c0-0.6,0-1.3,0-1.9h1.3c1.7,0,3.1-1.5,3.1-3.3v-1.1h0.1c1.1,0,1.9-1,1.9-2.2v-2.1
						c0-1.1-0.8-2.1-1.9-2.1h-0.1v-1.1c0-1.7-1.4-3.1-3.1-3.1h-1.3v-0.1c0-0.6,0-1.3-0.1-1.8c0-0.1,0-0.2,0-0.3c0-0.2,0-0.5-0.1-0.8
						c0-0.1,0-0.1-0.1-0.2c0-0.1,0-0.1-0.1-0.2c-1-8-5.6-15.1-12.6-19.3c0,0,0,0-0.1,0C-135.2,1147.5-139.6,1146.4-144.1,1146.4z
						 M-145.1,1148.4v11.9c0,1.5,2.1,1.5,2.1,0v-11.9c3.7,0.2,7.4,1.1,10.8,3.1c0.9,0.5,1.8,1.2,2.6,1.8c-1.6,1.9-2.6,4.4-2.6,7.1
						c0,0.5,0.5,1,0.9,1c0.6,0,1.1-0.5,1.1-1c0-2,0.8-4.1,2.1-5.6c3.8,3.6,6.4,8.3,7.2,13.4c-7-2-14.8-3-22.6-3.1
						c-8.3-0.1-16.6,0.9-24,3.1c0,0,0,0-0.1,0c0.9-5.2,3.4-9.9,7.3-13.4c1.4,1.6,2.2,3.6,2.2,5.7c0,0.5,0.5,1,1,1
						c0.6,0,1.1-0.5,1.1-1c0-2.6-1-5.1-2.7-7c0.9-0.7,1.7-1.3,2.7-1.9C-152.6,1149.6-148.9,1148.6-145.1,1148.4z M-143.4,1167
						c7.9,0.1,15.8,1.2,22.8,3.3c0.1,0.7,0.1,1.7,0.1,2.6v15.4c-14.6,4.4-32.9,4.3-47.3,0v-16.2c0-0.6,0-1.2,0.1-1.8
						c0.1,0,0.1,0,0.2-0.1c0.1,0,0.3-0.1,0.4-0.1c0,0,0.1-0.1,0.2-0.1C-159.7,1168-151.5,1167-143.4,1167z M-170.8,1174.3h1.1v10.9
						h-1.1c-0.5,0-1.1-0.5-1.1-1.3v-2.1c0-0.6-0.4-1-1-1h-1c0,0-0.1-0.1-0.1-0.2v-2.1c0-0.1,0.1-0.1,0.1-0.1h1c0.6,0,1-0.4,1-1v-2.1
						C-171.9,1174.8-171.4,1174.3-170.8,1174.3z M-118.4,1174.3h1.2c0.5,0,1.1,0.5,1.1,1.1v2.1c0,0.6,0.4,1,1,1h1c0,0,0.1,0,0.1,0.1
						v2.1c0,0.1-0.1,0.2-0.1,0.2h-1c-0.6,0-1,0.4-1,1v2.1c0,0.8-0.6,1.3-1.1,1.3h-1.3v-1.1C-118.4,1180.7-118.3,1177.3-118.4,1174.3
						z M-167.8,1190.4c14.5,4.2,32.6,4.2,47.3,0v2.5c-14.5,6-32.9,6-47.3,0V1190.4z M-161.3,1197.3c11,3,23.4,3,34.4,0v4.9
						c-11,3.1-23.5,3-34.4-0.1V1197.3z"/>
				</g>
			</g>
		</g>
	</g>
</g>
</svg>
