<?xml version="1.0" encoding="utf-8"?>
<!-- Generator: Adobe Illustrator 24.0.2, SVG Export Plug-In . SVG Version: 6.00 Build 0)  -->
<svg version="1.1"
	 id="svg4475" inkscape:version="0.48.4 r9939" sodipodi:docname="24 22 star pattern galaxy u niverse shape space astrology line straight.svg" xmlns:cc="http://creativecommons.org/ns#" xmlns:dc="http://purl.org/dc/elements/1.1/" xmlns:inkscape="http://www.inkscape.org/namespaces/inkscape" xmlns:rdf="http://www.w3.org/1999/02/22-rdf-syntax-ns#" xmlns:sodipodi="http://sodipodi.sourceforge.net/DTD/sodipodi-0.dtd" xmlns:svg="http://www.w3.org/2000/svg"
	 xmlns="http://www.w3.org/2000/svg" xmlns:xlink="http://www.w3.org/1999/xlink" x="0px" y="0px" viewBox="0 0 64 63"
	 style="enable-background:new 0 0 64 63;" xml:space="preserve">
<sodipodi:namedview  bordercolor="#666666" borderopacity="1.0" id="base" inkscape:bbox-nodes="true" inkscape:bbox-paths="true" inkscape:current-layer="g14600" inkscape:cx="5.3528482" inkscape:cy="7.1610049" inkscape:document-units="px" inkscape:pageopacity="0.0" inkscape:pageshadow="2" inkscape:snap-bbox="true" inkscape:snap-bbox-edge-midpoints="true" inkscape:snap-bbox-midpoints="true" inkscape:snap-global="true" inkscape:window-height="705" inkscape:window-maximized="1" inkscape:window-width="1366" inkscape:window-x="-8" inkscape:window-y="-8" inkscape:zoom="7.9195959" pagecolor="#ffffff" showgrid="true">
	<inkscape:grid  empspacing="5" enabled="true" id="grid4527" snapvisiblegridlinesonly="true" type="xygrid" visible="true">
		</inkscape:grid>
</sodipodi:namedview>
<g id="layer1" transform="translate(0,-1020.3622)" inkscape:groupmode="layer" inkscape:label="Layer 1">
	<g id="g10414" transform="translate(309.5948,-461.25192)">
		<g id="g15415" transform="translate(66.405195,515.25192)">
			<g id="g15417" transform="translate(-150,-49.999983)">
				<g id="g14600" transform="translate(-49.999995,-130.00002)">
					<path id="path13198" d="M-170.6,1146.4c-0.4,0-0.8,0.2-0.9,0.6l-1.1,2.3l-2.4,0.3c-0.6,0.1-1,0.6-1,1.2c0,0.2,0.1,0.5,0.3,0.6
						l1.8,1.8l-0.5,2.6c-0.1,0.6,0.3,1.1,0.9,1.2c0.2,0,0.5,0,0.7-0.1l2.1-1.2l2.1,1.2c0.4,0.3,1,0.2,1.3-0.2l3.5,3.5l-0.6,0.1
						c-0.6,0.1-1,0.6-1,1.2c0,0.2,0.1,0.5,0.3,0.6l1.8,1.8l-0.5,2.6c-0.1,0.6,0.3,1.1,0.9,1.2c0.2,0,0.5,0,0.7-0.1l2.1-1.2l2.1,1.2
						c0.4,0.3,1,0.2,1.3-0.2l3.5,3.5l-0.6,0.1c-0.6,0.1-1,0.6-1,1.2c0,0.2,0.1,0.5,0.3,0.6l1.8,1.8l-0.5,2.6
						c-0.1,0.6,0.3,1.1,0.9,1.2c0.2,0,0.5,0,0.7-0.1l2.1-1.2l2.1,1.2c0.4,0.3,1,0.2,1.3-0.2l22.4,22.4l-0.3,0.1
						c-0.6,0.1-1,0.6-0.9,1.2c0,0.2,0.1,0.4,0.3,0.6l2.3,2.3l-0.6,3.3c-0.1,0.6,0.2,1.1,0.8,1.3c0.3,0.1,0.5,0,0.8-0.1l2.7-1.5
						l2.8,1.6c0.5,0.3,1.2,0.1,1.5-0.4c0.1-0.2,0.2-0.5,0.1-0.8l-0.5-3.3l2.3-2.3c0.4-0.4,0.4-1.1,0-1.5c-0.2-0.2-0.4-0.3-0.6-0.3
						l-3.1-0.5l-1.4-3c-0.2-0.5-0.7-0.7-1.2-0.6c-0.3,0.1-0.6,0.3-0.7,0.6l-1.4,2.9h-0.1l-24.9-24.9l-0.2-0.2l-0.1-0.3l1.8-1.8
						c0.4-0.4,0.4-1.1,0-1.5c-0.2-0.2-0.4-0.3-0.6-0.3l-2.4-0.4l-1.1-2.3c-0.2-0.4-0.6-0.7-1-0.7c-0.4,0-0.8,0.2-0.9,0.6l-0.7,1.7
						l-5.7-5.7l-0.1-0.3l1.8-1.8c0.4-0.4,0.4-1.1,0-1.5c-0.2-0.2-0.4-0.3-0.6-0.3l-2.4-0.4l-1.1-2.3c-0.2-0.4-0.6-0.7-1-0.7
						c-0.4,0-0.8,0.2-0.9,0.6l-0.7,1.7l-5.1-5.1l-0.6-0.6l-0.1-0.3l1.8-1.8c0.4-0.4,0.4-1.1,0-1.5c-0.2-0.2-0.4-0.3-0.6-0.3
						l-2.4-0.4l-1.1-2.3C-169.8,1146.6-170.2,1146.4-170.6,1146.4z M-170.6,1150l0.4,0.8c0.2,0.3,0.4,0.5,0.8,0.6l0.9,0.1l-0.7,0.7
						c-0.2,0.2-0.4,0.5-0.3,0.9l0.1,0.9l-0.7-0.4c-0.3-0.2-0.7-0.2-1.1,0l-0.7,0.4l0.1-0.9c0.1-0.3,0-0.7-0.3-0.9l-0.7-0.7l0.9-0.1
						c0.3-0.1,0.6-0.3,0.8-0.6L-170.6,1150z M-160,1160.6l0.4,0.8c0.2,0.3,0.4,0.5,0.8,0.6l0.9,0.1l-0.7,0.7
						c-0.2,0.2-0.4,0.5-0.3,0.9l0.1,0.9l-0.7-0.4c-0.3-0.2-0.7-0.2-1.1,0l-0.7,0.4l0.1-0.9c0.1-0.3,0-0.7-0.3-0.9l-0.7-0.7l0.9-0.1
						c0.3-0.1,0.6-0.3,0.8-0.6L-160,1160.6z M-149.3,1171.3l0.4,0.8c0.2,0.3,0.4,0.5,0.8,0.6l0.9,0.1l-0.7,0.7
						c-0.2,0.2-0.4,0.5-0.3,0.9l0.1,0.9l-0.7-0.4c-0.3-0.2-0.7-0.2-1.1,0l-0.7,0.4l0.1-0.9c0.1-0.3,0-0.7-0.3-0.9l-0.7-0.7l0.9-0.1
						c0.3-0.1,0.6-0.3,0.8-0.6L-149.3,1171.3z M-118.4,1200.1l0.7,1.4c0.2,0.3,0.4,0.5,0.8,0.6l1.7,0.3l-1.2,1.3
						c-0.3,0.2-0.4,0.6-0.3,0.9l0.3,1.7l-1.4-0.8c-0.3-0.2-0.7-0.2-1,0l-1.3,0.7l0.3-1.7c0-0.3-0.1-0.7-0.3-0.9l-1.2-1.2l1.7-0.3
						c0.3-0.1,0.6-0.3,0.8-0.6L-118.4,1200.1z"/>
				</g>
			</g>
		</g>
	</g>
</g>
</svg>
