<?xml version="1.0" encoding="utf-8"?>
<!-- Generator: Adobe Illustrator 24.0.2, SVG Export Plug-In . SVG Version: 6.00 Build 0)  -->
<svg version="1.1"
	 id="svg4475" inkscape:version="0.48.4 r9939" sodipodi:docname="22 star pattern galaxy u niverse shape space astrology saptrishi.svg" xmlns:cc="http://creativecommons.org/ns#" xmlns:dc="http://purl.org/dc/elements/1.1/" xmlns:inkscape="http://www.inkscape.org/namespaces/inkscape" xmlns:rdf="http://www.w3.org/1999/02/22-rdf-syntax-ns#" xmlns:sodipodi="http://sodipodi.sourceforge.net/DTD/sodipodi-0.dtd" xmlns:svg="http://www.w3.org/2000/svg"
	 xmlns="http://www.w3.org/2000/svg" xmlns:xlink="http://www.w3.org/1999/xlink" x="0px" y="0px" viewBox="0 0 64 28.1"
	 style="enable-background:new 0 0 64 28.1;" xml:space="preserve">
<sodipodi:namedview  bordercolor="#666666" borderopacity="1.0" id="base" inkscape:bbox-nodes="true" inkscape:bbox-paths="true" inkscape:current-layer="g14600" inkscape:cx="5.3528482" inkscape:cy="-2.9405206" inkscape:document-units="px" inkscape:pageopacity="0.0" inkscape:pageshadow="2" inkscape:snap-bbox="true" inkscape:snap-bbox-edge-midpoints="true" inkscape:snap-bbox-midpoints="true" inkscape:snap-global="true" inkscape:window-height="705" inkscape:window-maximized="1" inkscape:window-width="1366" inkscape:window-x="-8" inkscape:window-y="-8" inkscape:zoom="7.9195959" pagecolor="#ffffff" showgrid="true">
	<inkscape:grid  empspacing="5" enabled="true" id="grid4527" snapvisiblegridlinesonly="true" type="xygrid" visible="true">
		</inkscape:grid>
</sodipodi:namedview>
<g id="layer1" transform="translate(0,-1020.3622)" inkscape:groupmode="layer" inkscape:label="Layer 1">
	<g id="g10414" transform="translate(309.5948,-461.25192)">
		<g id="g15415" transform="translate(66.405195,515.25192)">
			<g id="g15417" transform="translate(-150,-49.999983)">
				<g id="g14600" transform="translate(-49.999995,-130.00002)">
					<path id="path13093" d="M-123.8,1146.4c-0.1,0-0.1,0-0.2,0.1c-0.3,0.1-0.5,0.3-0.6,0.5l-1,2l-2.2,0.2c-0.5,0.1-0.9,0.6-0.8,1.1
						c0,0.2,0.2,0.5,0.3,0.6l1.2,1.2l-11.6,7.6l-1.1-0.2l-0.9-2c-0.2-0.4-0.7-0.6-1.2-0.5c-0.3,0.1-0.5,0.3-0.6,0.5l-0.9,1.9
						l-2.2,0.3c-0.5,0.1-0.9,0.6-0.8,1.1c0,0.2,0.1,0.4,0.3,0.5l0.2,0.2h-1.2l0.1-0.1c0.4-0.4,0.5-1,0.1-1.4
						c-0.2-0.2-0.4-0.3-0.6-0.3l-2.2-0.3l-0.9-2c-0.2-0.4-0.7-0.6-1.2-0.5c-0.3,0.1-0.5,0.3-0.6,0.5l-1,1.9l-2.1,0.3
						c-0.4,0-0.7,0.3-0.9,0.7c-0.1-0.3-0.4-0.6-0.7-0.6l-2.2-0.3l-0.9-2c-0.2-0.4-0.7-0.6-1.2-0.5c-0.3,0.1-0.5,0.3-0.6,0.5l-1,1.9
						l-2.1,0.3c-0.5,0.1-0.9,0.6-0.8,1.1c0,0.2,0.1,0.4,0.3,0.5l1.5,1.6v0.1l-4.8,4.1l-0.9-1.9c-0.2-0.4-0.7-0.6-1.2-0.5
						c-0.3,0.1-0.5,0.3-0.6,0.5l-1,1.9l-2.1,0.3c-0.5,0.1-0.9,0.6-0.8,1.1c0,0.2,0.1,0.4,0.3,0.5l1.5,1.6l-0.3,2.1
						c-0.1,0.5,0.3,1.1,0.9,1.1c0.2,0,0.4,0,0.5-0.1l2-1l1.9,1.1c0.5,0.3,1.1,0.1,1.4-0.3c0.1-0.2,0.2-0.5,0.1-0.7l-0.4-2.2l1.6-1.5
						c0.4-0.4,0.4-1,0-1.4c-0.1-0.1-0.2-0.2-0.3-0.2l2.2-1.9c0.3,0.4,0.8,0.6,1.2,0.4l2-1l1.9,1.1c0.5,0.3,1.1,0.1,1.4-0.3
						c0.1-0.2,0.2-0.5,0.1-0.7l-0.2-1.6h3.4l-0.2,1.5c-0.1,0.5,0.3,1.1,0.9,1.1c0.2,0,0.4,0,0.5-0.1l2-1l1.9,1.1
						c0.5,0.3,1.1,0.1,1.4-0.3c0.1-0.2,0.2-0.5,0.1-0.7l-0.2-1.6h3.8l-0.2,1.5c-0.1,0.5,0.3,1.1,0.9,1.1c0.2,0,0.4,0,0.5-0.1l2-1
						l1.9,1.1c0.5,0.3,1.1,0.1,1.4-0.4c0.1-0.1,0.1-0.3,0.1-0.4l4.9,2.7c-0.1,0.4,0,0.8,0.3,1l1.5,1.6l-0.3,2.1
						c-0.1,0.5,0.3,1.1,0.9,1.1c0.2,0,0.4,0,0.5-0.1l2-1l1.9,1.1c0.5,0.3,1.1,0.1,1.4-0.3c0.1-0.2,0.2-0.5,0.1-0.7l-0.4-2.2l1.6-1.5
						c0.3-0.3,0.4-0.9,0.1-1.2c0,0,0,0,0-0.1l3.5-2.4c0.1,0.5,0.6,0.9,1.2,0.8c0.1,0,0.2,0,0.3-0.1l2-1l1.9,1.1
						c0.5,0.3,1.1,0.1,1.4-0.3c0.1-0.2,0.2-0.5,0.1-0.7l-0.4-2.1l1.6-1.5c0.4-0.4,0.5-1,0.1-1.4c-0.2-0.2-0.4-0.3-0.6-0.3l-2.2-0.3
						l-0.9-2c-0.2-0.4-0.7-0.6-1.2-0.5c-0.3,0.1-0.5,0.3-0.6,0.5l-0.8,1.6l-1.9-3.9c0.1-0.2,0.1-0.4,0.1-0.6l-0.3-2.2l1.6-1.5
						c0.4-0.4,0.5-1,0.1-1.4c-0.2-0.2-0.4-0.3-0.7-0.3l-2.1-0.3l-0.9-2C-123,1146.5-123.4,1146.3-123.8,1146.4z M-123.8,1149.7
						l0.3,0.6c0.2,0.3,0.4,0.5,0.7,0.5l0.6,0.1l-0.5,0.5c-0.2,0.2-0.4,0.5-0.3,0.9l0.1,0.6l-0.6-0.3c-0.3-0.2-0.6-0.2-0.9,0
						l-0.6,0.3l0.1-0.7c0.1-0.3,0-0.6-0.2-0.9l-0.5-0.4l0.7-0.1c0.3,0,0.6-0.2,0.7-0.5L-123.8,1149.7z M-127.2,1154.5v0.1
						c-0.1,0.5,0.3,1.1,0.8,1.2c0.2,0,0.4,0,0.6-0.1l1.9-1.1l0.9,0.5l2.4,4.7l-0.4,0.1c-0.5,0.1-0.9,0.6-0.8,1.1
						c0,0.2,0.1,0.4,0.3,0.5l1.4,1.4l-6.2,4.4l-0.3-0.1l-0.9-2c-0.2-0.4-0.7-0.6-1.2-0.5c-0.3,0.1-0.5,0.3-0.6,0.5l-1,1.9l-0.6,0.1
						l-7.6-4.3l1.5-1.4c0.2-0.2,0.3-0.5,0.3-0.7L-127.2,1154.5z M-161.5,1160.3l0.3,0.6c0.2,0.3,0.4,0.5,0.7,0.5l0.6,0.1l-0.4,0.4
						c-0.3,0.2-0.4,0.6-0.3,0.9l0.1,0.6l-0.6-0.3c-0.3-0.2-0.6-0.2-0.9,0l-0.6,0.3l0.1-0.7c0-0.3-0.1-0.7-0.3-0.9l-0.5-0.5l0.7-0.1
						c0.3-0.1,0.6-0.3,0.7-0.6L-161.5,1160.3z M-151.8,1160.3l0.3,0.6c0.2,0.3,0.4,0.5,0.7,0.5l0.6,0.1l-0.4,0.4
						c-0.3,0.2-0.4,0.6-0.3,0.9l0.1,0.6l-0.6-0.3c-0.3-0.2-0.6-0.2-0.9,0l-0.6,0.3l0.1-0.7c0-0.3-0.1-0.7-0.3-0.9l-0.5-0.5l0.7-0.1
						c0.3-0.1,0.6-0.3,0.7-0.6L-151.8,1160.3z M-141.7,1160.3l0.3,0.6c0.2,0.3,0.4,0.5,0.7,0.5l0.7,0.1l-0.5,0.4
						c-0.3,0.2-0.4,0.6-0.3,0.9l0.1,0.6l-0.6-0.3c-0.3-0.2-0.6-0.2-0.9,0l-0.6,0.3l0.1-0.7c0-0.3-0.1-0.7-0.3-0.9l-0.5-0.5l0.7-0.1
						c0.3-0.1,0.6-0.3,0.7-0.6L-141.7,1160.3z M-116.9,1160.4l0.3,0.6c0.2,0.3,0.4,0.5,0.7,0.5l0.6,0.1l-0.4,0.4
						c-0.3,0.2-0.4,0.6-0.3,0.9l0.1,0.6l-0.6-0.3c-0.3-0.2-0.6-0.2-0.9,0l-0.6,0.3l0.1-0.7c0-0.3-0.1-0.7-0.3-0.9l-0.5-0.5l0.7-0.1
						c0.3-0.1,0.6-0.3,0.7-0.6L-116.9,1160.4z M-156.6,1161.1c0.1,0.1,0.1,0.3,0.2,0.4l0.2,0.2h-0.8l0.1-0.1
						C-156.7,1161.5-156.6,1161.3-156.6,1161.1z M-171.1,1168.1l0.3,0.6c0.1,0.3,0.4,0.5,0.7,0.6l0.6,0.1l-0.4,0.4
						c-0.2,0.2-0.4,0.5-0.3,0.9l0.1,0.6l-0.6-0.2c-0.3-0.2-0.6-0.2-0.9,0l-0.6,0.3l0.1-0.7c0-0.3-0.1-0.7-0.3-0.9l-0.5-0.5l0.7-0.1
						c0.3-0.1,0.6-0.3,0.7-0.6L-171.1,1168.1z M-128.5,1168.1l0.3,0.6c0.1,0.3,0.4,0.5,0.7,0.6l0.6,0.1l-0.4,0.4
						c-0.2,0.2-0.4,0.5-0.3,0.9l0.1,0.6l-0.6-0.2c-0.3-0.2-0.6-0.2-0.9,0l-0.6,0.3l0.1-0.7c0-0.3-0.1-0.7-0.3-0.9l-0.5-0.5l0.7-0.1
						c0.3-0.1,0.6-0.3,0.7-0.6L-128.5,1168.1z"/>
				</g>
			</g>
		</g>
	</g>
</g>
</svg>
