<?xml version="1.0" encoding="utf-8"?>
<!-- Generator: Adobe Illustrator 24.0.2, SVG Export Plug-In . SVG Version: 6.00 Build 0)  -->
<svg version="1.1"
	 id="svg4475" inkscape:version="0.48.4 r9939" sodipodi:docname="23 22 star pattern galaxy u niverse shape space astrology bow arrow.svg" xmlns:cc="http://creativecommons.org/ns#" xmlns:dc="http://purl.org/dc/elements/1.1/" xmlns:inkscape="http://www.inkscape.org/namespaces/inkscape" xmlns:rdf="http://www.w3.org/1999/02/22-rdf-syntax-ns#" xmlns:sodipodi="http://sodipodi.sourceforge.net/DTD/sodipodi-0.dtd" xmlns:svg="http://www.w3.org/2000/svg"
	 xmlns="http://www.w3.org/2000/svg" xmlns:xlink="http://www.w3.org/1999/xlink" x="0px" y="0px" viewBox="0 0 64 61.7"
	 style="enable-background:new 0 0 64 61.7;" xml:space="preserve">
<sodipodi:namedview  bordercolor="#666666" borderopacity="1.0" id="base" inkscape:bbox-nodes="true" inkscape:bbox-paths="true" inkscape:current-layer="g14600" inkscape:cx="5.3528482" inkscape:cy="2.1102422" inkscape:document-units="px" inkscape:pageopacity="0.0" inkscape:pageshadow="2" inkscape:snap-bbox="true" inkscape:snap-bbox-edge-midpoints="true" inkscape:snap-bbox-midpoints="true" inkscape:snap-global="true" inkscape:window-height="705" inkscape:window-maximized="1" inkscape:window-width="1366" inkscape:window-x="-8" inkscape:window-y="-8" inkscape:zoom="7.9195959" pagecolor="#ffffff" showgrid="true">
	<inkscape:grid  empspacing="5" enabled="true" id="grid4527" snapvisiblegridlinesonly="true" type="xygrid" visible="true">
		</inkscape:grid>
</sodipodi:namedview>
<g id="layer1" transform="translate(0,-1020.3622)" inkscape:groupmode="layer" inkscape:label="Layer 1">
	<g id="g10414" transform="translate(309.5948,-461.25192)">
		<g id="g15415" transform="translate(66.405195,515.25192)">
			<g id="g15417" transform="translate(-150,-49.999983)">
				<g id="g14600" transform="translate(-49.999995,-130.00002)">
					<path id="path13123" d="M-153.8,1146.4c-0.3,0.1-0.5,0.4-0.7,0.7l-1.3,2.6l-2.7,0.4c-0.6,0-1.1,0.6-1.1,1.3
						c0,0.3,0.1,0.6,0.3,0.8l1.9,2l-0.4,2.8c-0.1,0.7,0.3,1.3,1,1.4c0.3,0,0.5,0,0.8-0.1l2.4-1.3l2.4,1.3c0.4,0.2,1,0.1,1.3-0.2
						l2.4,1.9c-0.4,0.5-0.3,1.2,0.1,1.6l1.9,2l-0.4,2.8c-0.1,0.7,0.3,1.3,1,1.4c0.3,0,0.5,0,0.8-0.1l1.3-0.7v5.4l-1,2.1l-2.7,0.4
						c-0.6,0.1-1,0.6-1,1.2h-15.2l0.5-0.5c0.4-0.5,0.4-1.3-0.1-1.7c-0.1-0.1-0.3-0.2-0.5-0.3l-3.5-0.6l-1.6-3.3
						c-0.2-0.5-0.7-0.8-1.3-0.7c-0.3,0.1-0.6,0.3-0.8,0.6l-1.6,3.3l-3.5,0.5c-0.6,0.1-1.1,0.7-1,1.4c0,0.3,0.2,0.5,0.3,0.7l2.5,2.6
						l-0.7,3.7c-0.1,0.7,0.4,1.3,1,1.3c0.2,0,0.5,0,0.7-0.1l3.1-1.6l3.1,1.7c0.6,0.3,1.3,0.1,1.6-0.5c0.1-0.2,0.2-0.5,0.1-0.8
						l-0.5-3.3h18.8l0.5,0.5l-0.4,2.8c-0.1,0.7,0.3,1.3,1,1.4c0.3,0,0.5,0,0.8-0.1l1.3-0.7v5.4l-1,2.1l-2.7,0.4
						c-0.6,0-1.1,0.6-1.1,1.3c0,0.3,0.1,0.6,0.3,0.8l1.9,2l-0.1,1l-5.1,4.2l-0.7-0.1l-1.2-2.5c-0.2-0.5-0.7-0.8-1.2-0.7
						c-0.4,0.1-0.7,0.3-0.8,0.7l-1.3,2.6l-2.7,0.4c-0.6,0-1.1,0.6-1.1,1.3c0,0.3,0.1,0.6,0.3,0.8l1.9,2l-0.4,2.8
						c-0.1,0.7,0.3,1.3,1,1.4c0.3,0,0.5,0,0.8-0.1l2.4-1.3l2.4,1.3c0.6,0.3,1.3,0,1.5-0.6c0.1-0.2,0.1-0.4,0.1-0.7l-0.4-2.8l2-2
						c0.4-0.4,0.4-1.1,0.1-1.6l2.4-2c0.4,0.3,0.9,0.3,1.3,0.1l2.4-1.3l2.4,1.3c0.6,0.3,1.3,0,1.5-0.6c0.1-0.2,0.1-0.4,0.1-0.7
						l-0.4-2.8l2-2c0.5-0.5,0.5-1.2,0-1.7c-0.2-0.2-0.4-0.3-0.7-0.4l-2.7-0.4l-1-2.2v-5.3l1.2,0.7c0.6,0.3,1.3,0,1.5-0.6
						c0.1-0.2,0.1-0.4,0.1-0.7l-0.4-2.8l0.6-0.6h15.3l0.5,0.5l-0.4,2.8c-0.1,0.7,0.3,1.3,1,1.4c0.3,0,0.5,0,0.8-0.1l2.4-1.3l2.4,1.3
						c0.6,0.3,1.3,0,1.5-0.6c0.1-0.2,0.1-0.4,0.1-0.7l-0.4-2.8l2-2c0.5-0.5,0.5-1.2,0-1.7c-0.2-0.2-0.4-0.3-0.7-0.4l-2.7-0.4
						l-1.2-2.5c-0.2-0.5-0.7-0.8-1.2-0.7c-0.4,0.1-0.7,0.3-0.8,0.7l-1.3,2.6l-2.7,0.4c-0.6,0.1-1,0.6-1,1.2h-11.9c0-0.6-0.4-1-1-1.1
						l-2.7-0.4l-1-2.2v-5.3l1.2,0.7c0.6,0.3,1.3,0,1.5-0.6c0.1-0.2,0.1-0.4,0.1-0.7l-0.4-2.8l2-2c0.5-0.5,0.5-1.2,0-1.7
						c-0.2-0.2-0.4-0.3-0.7-0.4l-2.7-0.4l-1.2-2.5c-0.2-0.5-0.7-0.8-1.2-0.7c-0.4,0.1-0.7,0.3-0.8,0.7l-1.3,2.6l-0.7,0.1l-5.3-4.2
						l-0.1-0.8l2-2c0.5-0.5,0.5-1.2,0-1.7c-0.2-0.2-0.4-0.3-0.7-0.4l-2.7-0.4l-1.2-2.5c-0.2-0.5-0.7-0.8-1.2-0.7
						C-153.7,1146.4-153.7,1146.4-153.8,1146.4z M-153.5,1150.4l0.4,0.9c0.2,0.3,0.5,0.6,0.8,0.7l1,0.1l-0.7,0.7
						c-0.3,0.3-0.4,0.7-0.4,1.1l0.1,1l-0.8-0.4c-0.3-0.2-0.8-0.3-1.1-0.1l-0.9,0.5l0.2-1c0-0.4-0.1-0.8-0.4-1l-0.7-0.7l1-0.1
						c0.4-0.1,0.7-0.3,0.9-0.7L-153.5,1150.4z M-141.6,1159.9l0.4,0.9c0.2,0.3,0.5,0.6,0.8,0.7l1,0.1l-0.7,0.7
						c-0.3,0.3-0.4,0.7-0.4,1.1l0.1,1l-0.8-0.4c-0.3-0.2-0.8-0.3-1.1-0.1l-0.9,0.5l0.2-1c0-0.4-0.1-0.8-0.4-1l-0.7-0.7l1-0.1
						c0.4-0.1,0.7-0.3,0.9-0.7L-141.6,1159.9z M-168.9,1172.9l0.7,1.7c0.2,0.4,0.5,0.6,0.9,0.7l1.8,0.2l-1.3,1.3
						c-0.2,0.3-0.4,0.7-0.3,1l0.3,1.9l-1.6-0.8c-0.3-0.2-0.8-0.2-1.1,0l-1.6,0.8l0.4-1.9c0-0.4-0.1-0.8-0.4-1l-1.3-1.3l1.8-0.2
						c0.4-0.1,0.7-0.3,0.9-0.7L-168.9,1172.9z M-141.6,1175.3l0.4,0.9c0.2,0.3,0.5,0.6,0.8,0.7l1,0.1v0.1l-0.7,0.7
						c-0.3,0.3-0.4,0.7-0.4,1.1l0.1,1l-0.8-0.4c-0.3-0.2-0.8-0.3-1.1-0.1l-0.9,0.5l0.2-1c0-0.4-0.1-0.8-0.4-1l-0.7-0.7l1-0.1
						c0.4-0.1,0.7-0.3,0.9-0.7L-141.6,1175.3z M-117.9,1175.3l0.4,0.9c0.2,0.3,0.5,0.6,0.8,0.7l1,0.1l-0.7,0.7
						c-0.3,0.3-0.4,0.7-0.4,1.1l0.1,1l-0.8-0.4c-0.3-0.2-0.8-0.3-1.1-0.1l-0.9,0.5l0.2-1c0-0.4-0.1-0.8-0.4-1l-0.7-0.7l1-0.1
						c0.4-0.1,0.7-0.3,0.9-0.7L-117.9,1175.3z M-141.6,1190.7l0.4,0.9c0.2,0.3,0.5,0.6,0.8,0.7l1,0.1l-0.7,0.7
						c-0.3,0.3-0.4,0.7-0.4,1.1l0.1,1l-0.8-0.4c-0.3-0.2-0.8-0.3-1.1-0.1l-0.9,0.5l0.2-1c0-0.4-0.1-0.8-0.4-1l-0.7-0.7l1-0.1
						c0.4-0.1,0.7-0.3,0.9-0.7L-141.6,1190.7z M-153.5,1200.2l0.4,0.9c0.2,0.3,0.5,0.6,0.8,0.7l1,0.1l-0.7,0.7
						c-0.3,0.3-0.4,0.7-0.4,1.1l0.1,1l-0.8-0.4c-0.3-0.2-0.8-0.3-1.1-0.1l-0.9,0.5l0.2-1c0-0.4-0.1-0.8-0.4-1l-0.7-0.7l1-0.1
						c0.4-0.1,0.7-0.3,0.9-0.7L-153.5,1200.2z"/>
				</g>
			</g>
		</g>
	</g>
</g>
</svg>
