<?xml version="1.0" encoding="utf-8"?>
<!-- Generator: Adobe Illustrator 24.0.2, SVG Export Plug-In . SVG Version: 6.00 Build 0)  -->
<svg version="1.1"
	 id="svg4475" inkscape:version="0.48.4 r9939" sodipodi:docname="2 sun planet astrology star galxy solar system darkhole.svg" xmlns:cc="http://creativecommons.org/ns#" xmlns:dc="http://purl.org/dc/elements/1.1/" xmlns:inkscape="http://www.inkscape.org/namespaces/inkscape" xmlns:rdf="http://www.w3.org/1999/02/22-rdf-syntax-ns#" xmlns:sodipodi="http://sodipodi.sourceforge.net/DTD/sodipodi-0.dtd" xmlns:svg="http://www.w3.org/2000/svg"
	 xmlns="http://www.w3.org/2000/svg" xmlns:xlink="http://www.w3.org/1999/xlink" x="0px" y="0px" viewBox="0 0 64 64"
	 style="enable-background:new 0 0 64 64;" xml:space="preserve">
<sodipodi:namedview  bordercolor="#666666" borderopacity="1.0" id="base" inkscape:bbox-nodes="true" inkscape:bbox-paths="true" inkscape:current-layer="g14600" inkscape:cx="5.3528482" inkscape:cy="16.969027" inkscape:document-units="px" inkscape:pageopacity="0.0" inkscape:pageshadow="2" inkscape:snap-bbox="true" inkscape:snap-bbox-edge-midpoints="true" inkscape:snap-bbox-midpoints="true" inkscape:snap-global="true" inkscape:window-height="705" inkscape:window-maximized="1" inkscape:window-width="1366" inkscape:window-x="-8" inkscape:window-y="-8" inkscape:zoom="7.9195959" pagecolor="#ffffff" showgrid="true">
	<inkscape:grid  empspacing="5" enabled="true" id="grid4527" snapvisiblegridlinesonly="true" type="xygrid" visible="true">
		</inkscape:grid>
</sodipodi:namedview>
<g id="layer1" transform="translate(0,-1020.3622)" inkscape:groupmode="layer" inkscape:label="Layer 1">
	<g id="g10414" transform="translate(309.5948,-461.25192)">
		<g id="g15415" transform="translate(66.405195,515.25192)">
			<g id="g15417" transform="translate(-150,-49.999983)">
				<g id="g14600" transform="translate(-49.999995,-130.00002)">
					<path id="path9993" d="M-144.1,1146.4c-1.1,0-2.2,0.1-3.2,0.2c-0.3,0-0.5,0.1-0.7,0.1c-0.6,0.1-1.3,0.2-1.9,0.3
						c-0.4,0.1-0.7,0.1-1.1,0.2c-0.5,0.1-1,0.2-1.4,0.4c-0.5,0.1-1,0.3-1.5,0.4c0,0,0,0-0.1,0c-0.8,0.3-1.6,0.6-2.3,0.9
						c0,0-0.1,0-0.1,0.1c-0.9,0.4-1.8,0.8-2.7,1.3c-0.1,0-0.2,0.1-0.3,0.2c-0.9,0.5-1.7,1-2.5,1.5c-0.8,0.5-1.5,1.1-2.2,1.7
						c-0.1,0.1-0.2,0.2-0.3,0.3c-0.7,0.6-1.4,1.2-2.1,1.9c-0.2,0.2-0.4,0.5-0.6,0.7c-0.4,0.4-0.8,0.8-1.1,1.2
						c-0.3,0.3-0.5,0.7-0.8,1c-0.4,0.5-0.8,1.1-1.2,1.6c-0.2,0.4-0.5,0.8-0.7,1.1c-0.1,0.1-0.1,0.2-0.2,0.3
						c-0.4,0.7-0.8,1.4-1.2,2.1c-0.8,1.5-1.5,3.1-2,4.7c-1,3.1-1.6,6.4-1.6,9.9c0,0.6,0.1,1.3,0.1,1.9c0,0.1,0,0.1,0,0.2
						c0.1,0.9,0.1,1.7,0.3,2.6c0,0,0,0,0,0.1c0.1,0.8,0.3,1.6,0.4,2.4c0.1,0.3,0.1,0.5,0.2,0.8c0.1,0.5,0.3,1.1,0.4,1.6
						c0.3,0.9,0.6,1.7,0.9,2.5c2.1,5.2,5.5,9.7,9.8,13.1c0.5,0.4,0.9,0.7,1.4,1.1c0.5,0.3,0.9,0.6,1.4,0.9c0,0,0.1,0,0.1,0.1
						c0,0,0,0,0.1,0c4.9,3.1,10.6,4.9,16.7,4.9c5.6,0,10.8-1.5,15.4-4c0.7-0.4,1.5-0.9,2.2-1.3c0.1-0.1,0.2-0.1,0.3-0.2
						c0.6-0.4,1.1-0.8,1.7-1.3c0,0,0,0,0.1-0.1c0.5-0.4,1-0.8,1.4-1.2c0.1-0.1,0.3-0.2,0.4-0.3c0.4-0.4,0.8-0.7,1.2-1.1
						c0.2-0.2,0.4-0.4,0.6-0.6c0.1-0.1,0.1-0.2,0.2-0.3c1.1-1.2,2-2.4,2.9-3.7c0.4-0.6,0.9-1.3,1.2-1.9c0.4-0.6,0.7-1.3,1.1-1.9
						c0.7-1.4,1.3-2.7,1.7-4.2c0.4-1.3,0.8-2.6,1.1-3.9c0-0.1,0-0.1,0-0.2c0.1-0.5,0.2-1.1,0.3-1.8c0.1-0.7,0.1-1.4,0.2-2.1
						c0-0.1,0-0.1,0-0.2c0-0.6,0.1-1.2,0.1-1.9c0-0.6-0.1-1.1-0.1-1.7c0-0.1,0-0.2,0-0.3c-0.3-5-1.8-9.7-4.2-13.9
						c-5.5-9.5-15.8-16-27.6-16C-144,1146.4-144,1146.4-144.1,1146.4C-144,1146.4-144,1146.4-144.1,1146.4z M-144.1,1148.4
						C-144.1,1148.4-144.1,1148.4-144.1,1148.4c3.4,0,6.7,0.8,9.9,1.9h-9.8c-1.6,0-2.9,1.3-2.9,2.9c0,1.6,1.3,2.9,2.9,2.9h3.8
						c0.1,0,0.1,0,0.2,0.1c0.3,0.1,0.5,0.2,0.6,0.4c0.1,0.1,0.2,0.2,0.2,0.6c0,0.4-0.2,0.7-0.6,0.8c-0.1,0-0.2,0.1-0.3,0.1
						c0,0,0,0-0.1,0h-7.7c-1.7,0-3,1.3-3,2.9c0,1.7,1.3,3,3,3h30c0.6,1.2,1.2,2.5,1.6,3.8h-27.8c-1.6,0-2.9,1.3-2.9,2.9
						c0,1.6,1.3,2.9,2.9,2.9h29.5c0.1,0.6,0.2,1.2,0.3,1.9h-20.1c-1.6,0-2.9,1.3-2.9,2.9c0,1.7,1.3,3.1,2.9,3.1h1.9
						c0.7,0,1,0.4,1,0.9c0,0.4-0.3,0.9-1,0.9h-3.8c-1.7,0-3,1.4-3,3.1c0,1.6,1.3,2.9,3,2.9h20c-0.8,2-1.6,4-2.8,5.7h-7.6
						c-1.6,0-2.9,1.4-2.9,3.1c0,1.6,1.3,2.9,2.9,2.9h2.1c-1.5,1.4-3,2.8-4.9,3.8h-29.2c-1-0.5-1.8-1.3-2.7-1.9h15.4
						c1.6,0,2.9-1.3,2.9-2.9c0-1.6-1.3-2.9-2.9-2.9h-7.7c-0.7,0-1.1-0.4-1.1-1.1c0-0.4,0.4-0.9,1.1-0.9h3.7c1.7,0,3-1.3,3-2.9
						c0-1.7-1.3-3.1-3-3.1h-22c-1-2.4-1.5-5-1.7-7.6h17.9c1.7,0,3.1-1.4,3.1-3.1c0-1.6-1.4-2.9-3.1-2.9h-7.7c-0.4,0-0.9-0.4-0.9-0.9
						c0-0.7,0.4-1,0.9-1h3.9c1.6,0,2.9-1.3,2.9-2.9c0-1.6-1.3-2.9-2.9-2.9h-12.3c2.5-6.5,7-11.8,12.7-15.2c1.3-0.8,2.6-1.4,3.9-1.9
						c0.7-0.3,1.4-0.6,2.2-0.8c0.3-0.1,0.7-0.2,1.1-0.3c0.5-0.1,0.9-0.3,1.4-0.4c0.3-0.1,0.6-0.1,0.9-0.2c0.7-0.1,1.4-0.2,2.1-0.3
						c0.1,0,0.2,0,0.4-0.1C-146.1,1148.4-145.1,1148.4-144.1,1148.4z M-144.1,1152.2h14.7c4.2,2.3,7.7,5.7,10.3,9.6h-28.9
						c-0.7,0-1-0.3-1-1c0-0.4,0.3-0.9,1-0.9h7.7h0.4h0.6v-0.4c1.1-0.4,1.9-1.4,1.9-2.5c0-0.7-0.2-1.3-0.6-1.8
						c-0.3-0.4-0.8-0.6-1.2-0.8v-0.4h-1h-3.9c-0.4,0-0.9-0.4-0.9-0.9C-144.9,1152.7-144.5,1152.2-144.1,1152.2z M-139.1,1158.1
						c0,0,0.1,0,0.1,0.1l-0.1,0.1V1158.1z M-151.8,1167.7c-1.6,0-2.9,1.3-2.9,2.9c0,1.6,1.3,2.9,2.9,2.9s2.9-1.3,2.9-2.9
						C-148.9,1169-150.2,1167.7-151.8,1167.7z M-172.7,1169.7h13.2c0.4,0,0.9,0.4,0.9,0.9c0,0.4-0.4,0.9-0.9,0.9h-3.9
						c-1.6,0-2.9,1.3-2.9,3c0,1.6,1.3,2.9,2.9,2.9h7.7c0.7,0,1.1,0.4,1.1,0.9c0,0.7-0.4,1.1-1.1,1.1h-18.2c0-0.3-0.1-0.7-0.1-1.1
						C-174,1175.2-173.5,1172.4-172.7,1169.7z M-151.8,1169.7c0.4,0,0.9,0.4,0.9,0.9c0,0.4-0.4,0.9-0.9,0.9c-0.4,0-0.9-0.5-0.9-0.9
						C-152.6,1170.1-152.2,1169.7-151.8,1169.7z M-144.1,1169.7h28.7c0.2,0.6,0.4,1.2,0.5,1.8h-29.2c-0.4,0-0.9-0.5-0.9-0.9
						C-144.9,1170.1-144.5,1169.7-144.1,1169.7z M-134.4,1177.4h20.3c0,0.3,0.1,0.6,0.1,0.9c0,0.4-0.1,0.7-0.1,1.1h-4.7
						c-1.7,0-3,1.3-3,2.9s1.3,2.9,3,2.9h4c-0.2,0.7-0.3,1.3-0.5,1.9h-20.9c-0.7,0-1-0.4-1-0.9c0-0.7,0.3-1.1,1-1.1h3.8
						c1.7,0,3-1.3,3-2.9s-1.3-2.9-3-2.9h-1.9c-0.4,0-0.9-0.4-0.9-1.1C-135.3,1177.8-134.8,1177.4-134.4,1177.4z M-118.8,1181.3h4.6
						c-0.1,0.6-0.1,1.2-0.2,1.8h-4.4c-0.7,0-1-0.4-1-0.9C-119.8,1181.7-119.5,1181.3-118.8,1181.3z M-171.2,1190.9h21.3
						c0.7,0,1,0.4,1,1.1c0,0.4-0.3,0.9-1,0.9h-3.7c-1.7,0-3.1,1.3-3.1,2.9c0,1.7,1.4,3.1,3.1,3.1h7.7c0.4,0,0.9,0.4,0.9,0.9
						c0,0.4-0.4,0.9-0.9,0.9h-18.2C-167.1,1197.8-169.5,1194.5-171.2,1190.9z M-163.4,1192.8c-1.6,0-2.9,1.3-2.9,2.9
						c0,1.7,1.3,3.1,2.9,3.1c1.6,0,2.9-1.4,2.9-3.1C-160.5,1194.1-161.8,1192.8-163.4,1192.8z M-163.4,1194.8c0.4,0,0.9,0.4,0.9,0.9
						c0,0.7-0.4,1.1-0.9,1.1c-0.4,0-0.9-0.4-0.9-1.1C-164.3,1195.2-163.8,1194.8-163.4,1194.8z M-126.6,1196.7h6.3
						c-0.5,0.7-1.1,1.3-1.6,1.9h-4.7c-0.4,0-0.9-0.4-0.9-0.9C-127.6,1197.1-127.1,1196.7-126.6,1196.7z M-154.6,1206.4h21.1
						c-3.3,1.2-6.8,1.9-10.6,1.9C-147.8,1208.4-151.3,1207.7-154.6,1206.4z"/>
				</g>
			</g>
		</g>
	</g>
</g>
</svg>
