<?xml version="1.0" encoding="utf-8"?>
<!-- Generator: Adobe Illustrator 24.0.2, SVG Export Plug-In . SVG Version: 6.00 Build 0)  -->
<svg version="1.1"
	 id="svg4475" inkscape:version="0.48.4 r9939" sodipodi:docname="6 Uranus planet astrology solar system ice giants ouranos.svg" xmlns:cc="http://creativecommons.org/ns#" xmlns:dc="http://purl.org/dc/elements/1.1/" xmlns:inkscape="http://www.inkscape.org/namespaces/inkscape" xmlns:rdf="http://www.w3.org/1999/02/22-rdf-syntax-ns#" xmlns:sodipodi="http://sodipodi.sourceforge.net/DTD/sodipodi-0.dtd" xmlns:svg="http://www.w3.org/2000/svg"
	 xmlns="http://www.w3.org/2000/svg" xmlns:xlink="http://www.w3.org/1999/xlink" x="0px" y="0px" viewBox="0 0 64 64"
	 style="enable-background:new 0 0 64 64;" xml:space="preserve">
<sodipodi:namedview  bordercolor="#666666" borderopacity="1.0" id="base" inkscape:bbox-nodes="true" inkscape:bbox-paths="true" inkscape:current-layer="g14600" inkscape:cx="5.3528482" inkscape:cy="27.364056" inkscape:document-units="px" inkscape:pageopacity="0.0" inkscape:pageshadow="2" inkscape:snap-bbox="true" inkscape:snap-bbox-edge-midpoints="true" inkscape:snap-bbox-midpoints="true" inkscape:snap-global="true" inkscape:window-height="705" inkscape:window-maximized="1" inkscape:window-width="1366" inkscape:window-x="-8" inkscape:window-y="-8" inkscape:zoom="7.9195959" pagecolor="#ffffff" showgrid="true">
	<inkscape:grid  empspacing="5" enabled="true" id="grid4527" snapvisiblegridlinesonly="true" type="xygrid" visible="true">
		</inkscape:grid>
</sodipodi:namedview>
<g id="layer1" transform="translate(0,-1020.3622)" inkscape:groupmode="layer" inkscape:label="Layer 1">
	<g id="g10414" transform="translate(309.5948,-461.25192)">
		<g id="g15415" transform="translate(66.405195,515.25192)">
			<g id="g15417" transform="translate(-150,-49.999983)">
				<g id="g14600" transform="translate(-49.999995,-130.00002)">
					<path id="path10005" d="M-143.9,1146.4c-0.2,0-0.4,0-0.6,0.1c-17.4,0.3-31.4,14.5-31.4,32c0,17.7,14.4,31.9,32.1,31.9
						c17.5,0,31.9-14.3,31.9-31.9C-112,1160.8-126.4,1146.4-143.9,1146.4C-143.9,1146.4-143.9,1146.4-143.9,1146.4z M-143.9,1148.4
						c0.1,0,0.2,0,0.3,0c16.3,0.2,29.6,13.6,29.6,30.1c0,15-11.1,27.4-25.4,29.6c0-0.2,0.1-0.4,0.1-0.6c0-1.7-1.3-3-3-3h-3.2h-6.3
						c-0.4,0-0.9-0.4-0.9-0.9c0-0.4,0.4-0.9,0.9-0.9h17.8h5.4c1.7,0,3.1-1.3,3.1-3c0-1.6-1.4-2.9-3.1-2.9h-17.4
						c-0.4,0-0.9-0.4-0.9-0.9c0-0.7,0.5-1.1,0.9-1.1h9h3.2c1.6,0,2.9-1.3,2.9-2.9c0-1.6-1.3-2.9-2.9-2.9h-3.2h-18.6
						c-0.4,0-0.9-0.4-0.9-1.1c0-0.4,0.4-0.9,0.9-0.9h24.9c1.7,0,3-1.3,3-2.9c0-1.7-1.3-3.1-3-3.1h-15.3c-0.7,0-1.1-0.4-1.1-0.9
						c0-0.4,0.4-0.9,1.1-0.9h1h3.2c1.6,0,2.9-1.4,2.9-3.1c0-1.6-1.3-2.9-2.9-2.9h-3.2h-4.9c-0.4,0-0.9-0.4-0.9-0.9
						c0-0.7,0.4-1.1,0.9-1.1h15.5c1.7,0,3.1-1.3,3.1-2.9c0-1.6-1.4-2.9-3.1-2.9h-3h-16.3c-0.4,0-0.9-0.4-0.9-1.1
						c0-0.4,0.5-0.9,0.9-0.9h11c1.7,0,3.1-1.3,3.1-2.9c0-1.7-1.4-3.1-3.1-3.1h-3.1h-3.2c-0.4,0-0.9-0.4-0.9-0.9
						c0-0.4,0.4-0.9,0.9-0.9h8.8c1.7,0,3-1.3,3-3c0-1.6-1.3-2.9-3-2.9h-3.8c-0.7,0-1-0.4-1-0.9
						C-144.9,1148.7-144.6,1148.4-143.9,1148.4z M-147,1148.5c0.1,0,0.1,0,0.2,0c-0.1,0.3-0.1,0.5-0.1,0.8c0,1.6,1.3,2.9,3,2.9h3.8
						c0.7,0,1,0.5,1,0.9c0,0.7-0.3,1-1,1h-8.8c-1.6,0-2.9,1.3-2.9,2.9c0,1.6,1.3,2.9,2.9,2.9h3.2h3.1c0.7,0,1.1,0.4,1.1,1.1
						c0,0.4-0.4,0.9-1.1,0.9h-11c-1.6,0-2.9,1.3-2.9,2.9c0,1.7,1.3,3.1,2.9,3.1h16.3h3c0.7,0,1.1,0.4,1.1,0.9c0,0.4-0.4,0.9-1.1,0.9
						h-15.5c-1.6,0-2.9,1.4-2.9,3.1c0,1.6,1.3,2.9,2.9,2.9h4.9h3.2c0.4,0,0.9,0.4,0.9,0.9c0,0.7-0.4,1.1-0.9,1.1h-3.2h-1
						c-1.7,0-3.1,1.3-3.1,2.9c0,1.6,1.4,2.9,3.1,2.9h15.3c0.7,0,1,0.4,1,1.1c0,0.4-0.3,0.9-1,0.9h-24.9c-1.6,0-2.9,1.3-2.9,2.9
						c0,1.7,1.3,3.1,2.9,3.1h18.6h3.2c0.4,0,0.9,0.4,0.9,0.9c0,0.4-0.4,0.9-0.9,0.9h-3.2h-9c-1.6,0-2.9,1.4-2.9,3.1
						c0,1.6,1.3,2.9,2.9,2.9h17.4c0.7,0,1.1,0.4,1.1,0.9c0,0.7-0.4,1-1.1,1h-5.4h-17.8c-1.6,0-2.9,1.3-2.9,2.9
						c0,1.6,1.3,2.9,2.9,2.9h6.3h3.2c0.7,0,1,0.3,1,1c0,0.3-0.3,0.7-0.8,0.8c-0.1,0-0.2,0.1-0.3,0.1c-0.5,0-1,0.1-1.6,0.1
						c-16.6,0-30.1-13.3-30.1-29.9C-174,1162.9-162.2,1150.1-147,1148.5z"/>
				</g>
			</g>
		</g>
	</g>
</g>
</svg>
